<svg width="256" height="256" viewBox="0 0 256 256" fill="none" xmlns="http://www.w3.org/2000/svg">
<path d="M66.56 91.07L22.25 128L66.56 164.93C67.1903 165.456 67.6433 166.164 67.8574 166.957C68.0715 167.75 68.0364 168.59 67.7568 169.362C67.4772 170.134 66.9666 170.802 66.2945 171.273C65.6224 171.745 64.8212 171.999 64 172C63.0632 172.004 62.1556 171.674 61.44 171.07L13.44 131.07C12.9905 130.695 12.6289 130.225 12.3808 129.695C12.1327 129.164 12.0042 128.586 12.0042 128C12.0042 127.414 12.1327 126.836 12.3808 126.305C12.6289 125.775 12.9905 125.305 13.44 124.93L61.44 84.93C62.259 84.2965 63.2918 84.0052 64.3212 84.1175C65.3505 84.2298 66.2963 84.7369 66.9594 85.5322C67.6226 86.3274 67.9515 87.3489 67.877 88.3817C67.8025 89.4145 67.3304 90.3781 66.56 91.07ZM242.56 124.93L194.56 84.93C194.16 84.5708 193.692 84.2959 193.183 84.1217C192.674 83.9476 192.136 83.8778 191.6 83.9165C191.063 83.9551 190.54 84.1015 190.062 84.3469C189.584 84.5922 189.16 84.9315 188.815 85.3444C188.471 85.7573 188.213 86.2354 188.058 86.7501C187.903 87.2647 187.853 87.8055 187.911 88.3399C187.969 88.8744 188.135 89.3916 188.397 89.8607C188.66 90.3298 189.015 90.7411 189.44 91.07L233.75 128L189.44 164.93C189.015 165.259 188.66 165.67 188.397 166.139C188.135 166.608 187.969 167.126 187.911 167.66C187.853 168.195 187.903 168.735 188.058 169.25C188.213 169.765 188.471 170.243 188.815 170.656C189.16 171.069 189.584 171.408 190.062 171.653C190.54 171.898 191.063 172.045 191.6 172.084C192.136 172.122 192.674 172.052 193.183 171.878C193.692 171.704 194.16 171.429 194.56 171.07L242.56 131.07C243.009 130.695 243.371 130.225 243.619 129.695C243.867 129.164 243.996 128.586 243.996 128C243.996 127.414 243.867 126.836 243.619 126.305C243.371 125.775 243.009 125.305 242.56 124.93ZM161.37 36.24C160.876 36.0598 160.352 35.9788 159.827 36.0014C159.302 36.024 158.786 36.1499 158.31 36.3719C157.833 36.5938 157.405 36.9075 157.05 37.295C156.695 37.6824 156.42 38.1361 156.24 38.63L92.24 214.63C92.0598 215.124 91.9787 215.648 92.0013 216.173C92.024 216.698 92.1499 217.214 92.3718 217.69C92.5938 218.167 92.9075 218.595 93.2949 218.95C93.6824 219.305 94.136 219.58 94.63 219.76C95.0697 219.917 95.533 219.998 96 220C96.8208 220 97.6219 219.748 98.2946 219.278C98.9672 218.807 99.4788 218.141 99.76 217.37L163.76 41.37C163.94 40.8763 164.021 40.3518 163.999 39.8267C163.976 39.3016 163.85 38.7861 163.628 38.3097C163.406 37.8333 163.092 37.4053 162.705 37.0501C162.318 36.695 161.864 36.4197 161.37 36.24Z" fill="#CCCCCC"/>
</svg>
