<svg width="2141" height="1384" viewBox="0 0 2141 1384" fill="none" xmlns="http://www.w3.org/2000/svg">
<g clip-path="url(#clip0_673_5986)">
<mask id="mask0_673_5986" style="mask-type:luminance" maskUnits="userSpaceOnUse" x="0" y="0" width="2141" height="1384">
<path d="M2141 0H0V1384H2141V0Z" fill="white"/>
</mask>
<g mask="url(#mask0_673_5986)">
<path d="M2141 0H0V1384H2141V0Z" fill="black"/>
<g filter="url(#filter0_f_673_5986)">
<path d="M1423 1111.41C1651.21 1111.41 1836.21 934.452 1836.21 716.161C1836.21 497.869 1651.21 320.909 1423 320.909C1194.79 320.909 1009.79 497.869 1009.79 716.161C1009.79 934.452 1194.79 1111.41 1423 1111.41Z" fill="url(#paint0_linear_673_5986)"/>
</g>
<path d="M1657.39 1322.51V1312.87C1657.39 1311.52 1658.06 1310.85 1659.41 1310.85H1668.96C1670.31 1310.85 1670.98 1311.52 1670.98 1312.87V1322.51C1670.98 1323.86 1670.31 1324.53 1668.96 1324.53H1659.41C1658.06 1324.53 1657.39 1323.86 1657.39 1322.51ZM1658.82 1322.67C1658.82 1323.05 1659 1323.24 1659.39 1323.24H1668.96C1669.35 1323.24 1669.55 1323.05 1669.55 1322.67V1312.71C1669.55 1312.32 1669.35 1312.14 1668.96 1312.14H1659.39C1659 1312.14 1658.82 1312.32 1658.82 1312.71V1322.67ZM1660.97 1319.41V1315.96C1660.97 1314.56 1661.68 1313.86 1663.08 1313.86H1666.08L1666.78 1314.44V1315.25H1663.05C1662.69 1315.25 1662.51 1315.43 1662.51 1315.8V1319.57C1662.51 1319.94 1662.69 1320.13 1663.05 1320.13H1666.78V1320.93L1666.08 1321.52H1663.08C1661.68 1321.52 1660.97 1320.81 1660.97 1319.41ZM1678.47 1324.53V1320.29C1678.47 1318.58 1679.21 1317.58 1680.7 1317.27L1684.65 1316.47C1685.23 1316.36 1685.52 1315.98 1685.52 1315.35V1313.78C1685.52 1313.04 1685.15 1312.67 1684.39 1312.67H1678.86V1311.64L1679.89 1310.85H1684.41C1686.5 1310.85 1687.54 1311.89 1687.54 1313.98V1315.25C1687.54 1316.96 1686.79 1317.96 1685.31 1318.26L1681.35 1319.05C1680.77 1319.17 1680.49 1319.55 1680.49 1320.19V1322.71H1687.54V1324.53H1678.47ZM1689.93 1321.39V1313.98C1689.93 1311.89 1690.97 1310.85 1693.05 1310.85H1695.88C1697.96 1310.85 1699 1311.89 1699 1313.98V1321.39C1699 1323.49 1697.96 1324.53 1695.88 1324.53H1693.05C1690.97 1324.53 1689.93 1323.49 1689.93 1321.39ZM1691.95 1321.59C1691.95 1322.33 1692.32 1322.71 1693.07 1322.71H1695.85C1696.61 1322.71 1696.98 1322.33 1696.98 1321.59V1313.78C1696.98 1313.04 1696.61 1312.67 1695.85 1312.67H1693.07C1692.32 1312.67 1691.95 1313.04 1691.95 1313.78V1321.59ZM1701.39 1324.53V1320.29C1701.39 1318.58 1702.13 1317.58 1703.62 1317.27L1707.57 1316.47C1708.15 1316.36 1708.44 1315.98 1708.44 1315.35V1313.78C1708.44 1313.04 1708.07 1312.67 1707.31 1312.67H1701.79V1311.64L1702.81 1310.85H1707.34C1709.42 1310.85 1710.46 1311.89 1710.46 1313.98V1315.25C1710.46 1316.96 1709.71 1317.96 1708.23 1318.26L1704.28 1319.05C1703.69 1319.17 1703.41 1319.55 1703.41 1320.19V1322.71H1710.46V1324.53H1701.39ZM1712.85 1322.12V1320.46L1717.31 1310.85H1719.01L1719.24 1311.31L1715.07 1320.3H1719.9V1316H1721.92V1324.53H1719.9V1322.12H1712.85ZM1729.43 1321.39V1313.98C1729.43 1311.89 1730.47 1310.85 1732.54 1310.85H1738.05L1739.05 1311.64V1312.67H1732.56C1731.81 1312.67 1731.42 1313.04 1731.42 1313.78V1321.59C1731.42 1322.33 1731.81 1322.71 1732.56 1322.71H1739.05V1323.73L1738.05 1324.53H1732.54C1730.47 1324.53 1729.43 1323.49 1729.43 1321.39ZM1741.45 1321.48V1317.22C1741.45 1315.18 1742.45 1314.18 1744.48 1314.18H1747.26C1749.28 1314.18 1750.28 1315.18 1750.28 1317.22V1321.48C1750.28 1323.51 1749.28 1324.53 1747.26 1324.53H1744.48C1742.45 1324.53 1741.45 1323.51 1741.45 1321.48ZM1743.37 1321.68C1743.37 1322.46 1743.76 1322.84 1744.53 1322.84H1747.21C1747.98 1322.84 1748.36 1322.46 1748.36 1321.68V1317.02C1748.36 1316.25 1747.98 1315.87 1747.21 1315.87H1744.53C1743.76 1315.87 1743.37 1316.25 1743.37 1317.02V1321.68ZM1753.06 1321.48V1317.22C1753.06 1315.18 1754.07 1314.18 1756.09 1314.18H1759.78V1309.86H1761.7V1324.53H1756.09C1754.07 1324.53 1753.06 1323.51 1753.06 1321.48ZM1754.99 1321.68C1754.99 1322.46 1755.37 1322.84 1756.15 1322.84H1759.78V1315.87H1756.15C1755.37 1315.87 1754.99 1316.25 1754.99 1317.02V1321.68ZM1764.64 1321.48V1317.22C1764.64 1315.18 1765.64 1314.18 1767.68 1314.18H1770.25C1772.27 1314.18 1773.28 1315.18 1773.28 1317.22V1320.07H1766.56V1321.68C1766.56 1322.46 1766.94 1322.84 1767.72 1322.84H1772.88V1323.86L1771.99 1324.53H1767.68C1765.64 1324.53 1764.64 1323.51 1764.64 1321.48ZM1766.56 1318.55H1771.36V1317.02C1771.36 1316.25 1770.97 1315.87 1770.2 1315.87H1767.72C1766.94 1315.87 1766.56 1316.25 1766.56 1317.02V1318.55ZM1776.21 1321.39V1313.98C1776.21 1311.89 1777.25 1310.85 1779.33 1310.85H1784.84L1785.85 1311.64V1312.67H1779.35C1778.59 1312.67 1778.22 1313.04 1778.22 1313.78V1321.59C1778.22 1322.33 1778.59 1322.71 1779.35 1322.71H1785.85V1323.73L1784.84 1324.53H1779.33C1777.25 1324.53 1776.21 1323.49 1776.21 1321.39ZM1790.89 1324.53C1788.86 1324.53 1787.83 1323.51 1787.83 1321.49C1787.83 1319.47 1788.86 1318.46 1790.89 1318.46H1794.24V1317.02C1794.24 1316.25 1793.86 1315.87 1793.09 1315.87H1788.85V1314.85L1789.77 1314.18H1793.14C1795.16 1314.18 1796.16 1315.18 1796.16 1317.22V1324.53H1790.89ZM1789.77 1321.68C1789.77 1322.46 1790.15 1322.84 1790.93 1322.84H1794.24V1319.97H1790.93C1790.15 1319.97 1789.77 1320.35 1789.77 1321.13V1321.68ZM1798.01 1314.49L1798.23 1314.18H1799.89L1802.7 1322.84H1803.06L1805.9 1314.18H1807.55L1807.76 1314.49L1804.39 1324.53H1801.4L1798.01 1314.49ZM1809.53 1321.48V1317.22C1809.53 1315.18 1810.54 1314.18 1812.56 1314.18H1815.14C1817.16 1314.18 1818.18 1315.18 1818.18 1317.22V1320.07H1811.45V1321.68C1811.45 1322.46 1811.85 1322.84 1812.63 1322.84H1817.78V1323.86L1816.89 1324.53H1812.56C1810.54 1324.53 1809.53 1323.51 1809.53 1321.48ZM1811.45 1318.55H1816.26V1317.02C1816.26 1316.25 1815.87 1315.87 1815.1 1315.87H1812.63C1811.85 1315.87 1811.45 1316.25 1811.45 1317.02V1318.55Z" fill="#B0B0B0"/>
<path d="M1807.11 1232.62L1816.91 1221.14H1814.6L1806.08 1231.11L1799.28 1221.14H1791.45L1801.72 1236.21L1791.45 1248.25H1793.77L1802.75 1237.72L1809.94 1248.25H1817.78L1807.11 1232.62ZM1803.93 1236.35L1802.89 1234.84L1794.6 1222.91H1798.17L1804.86 1232.54L1805.9 1234.04L1814.6 1246.57H1811.03L1803.93 1236.35Z" fill="white"/>
<path d="M1555.59 1281.16V1267.78H1557.58V1271.99H1562.29V1273.73H1557.58V1281.41C1557.58 1282.56 1558.16 1283.14 1559.31 1283.14H1562.53V1284.13L1561.54 1284.88H1559.31C1556.83 1284.88 1555.59 1283.64 1555.59 1281.16ZM1565.2 1281.16V1275.71C1565.2 1273.23 1566.44 1271.99 1568.91 1271.99H1572.38C1574.86 1271.99 1576.1 1273.23 1576.1 1275.71V1281.16C1576.1 1283.64 1574.86 1284.88 1572.38 1284.88H1568.91C1566.44 1284.88 1565.2 1283.64 1565.2 1281.16ZM1567.18 1281.41C1567.18 1282.56 1567.76 1283.14 1568.91 1283.14H1572.38C1573.55 1283.14 1574.12 1282.56 1574.12 1281.41V1275.46C1574.12 1274.31 1573.55 1273.73 1572.38 1273.73H1568.91C1567.76 1273.73 1567.18 1274.31 1567.18 1275.46V1281.41ZM1579.67 1281.16V1275.71C1579.67 1273.23 1580.91 1271.99 1583.39 1271.99H1590.32V1286.12C1590.32 1288.59 1589.09 1289.83 1586.61 1289.83H1581.65L1580.66 1289.09V1288.1H1586.61C1587.77 1288.1 1588.34 1287.52 1588.34 1286.36V1284.88H1583.39C1580.91 1284.88 1579.67 1283.64 1579.67 1281.16ZM1581.65 1281.41C1581.65 1282.56 1582.23 1283.14 1583.39 1283.14H1588.34V1273.73H1583.39C1582.23 1273.73 1581.65 1274.31 1581.65 1275.46V1281.41ZM1594.09 1281.16V1275.71C1594.09 1273.23 1595.33 1271.99 1597.81 1271.99H1601.28C1603.75 1271.99 1604.99 1273.23 1604.99 1275.71V1281.16C1604.99 1283.64 1603.75 1284.88 1601.28 1284.88H1597.81C1595.33 1284.88 1594.09 1283.64 1594.09 1281.16ZM1596.07 1281.41C1596.07 1282.56 1596.66 1283.14 1597.81 1283.14H1601.28C1602.44 1283.14 1603.01 1282.56 1603.01 1281.41V1275.46C1603.01 1274.31 1602.44 1273.73 1601.28 1273.73H1597.81C1596.66 1273.73 1596.07 1274.31 1596.07 1275.46V1281.41ZM1609.01 1284.7V1271.42C1609.01 1268.99 1610.22 1267.78 1612.65 1267.78H1624.37V1283.39H1618.18C1615.7 1283.39 1614.46 1282.15 1614.46 1279.67V1276.45C1614.46 1273.97 1615.7 1272.74 1618.18 1272.74H1622.54V1269.36H1612.65C1611.45 1269.36 1610.84 1269.97 1610.84 1271.17V1284.95C1610.84 1286.15 1611.45 1286.76 1612.65 1286.76H1623.88V1287.6L1622.88 1288.35H1612.65C1610.22 1288.35 1609.01 1287.13 1609.01 1284.7ZM1616.44 1279.92C1616.44 1281.07 1617.02 1281.66 1618.18 1281.66H1622.39V1274.47H1618.18C1617.02 1274.47 1616.44 1275.05 1616.44 1276.2V1279.92ZM1628.39 1281.16V1275.71C1628.39 1273.23 1629.63 1271.99 1632.1 1271.99H1636.96L1637.95 1272.74V1273.73H1632.1C1630.94 1273.73 1630.37 1274.31 1630.37 1275.46V1281.41C1630.37 1282.56 1630.94 1283.14 1632.1 1283.14H1637.95V1284.13L1636.96 1284.88H1632.1C1629.63 1284.88 1628.39 1283.64 1628.39 1281.16ZM1640.88 1281.16V1275.71C1640.88 1273.23 1642.11 1271.99 1644.59 1271.99H1648.06C1650.54 1271.99 1651.78 1273.23 1651.78 1275.71V1281.16C1651.78 1283.64 1650.54 1284.88 1648.06 1284.88H1644.59C1642.11 1284.88 1640.88 1283.64 1640.88 1281.16ZM1642.86 1281.41C1642.86 1282.56 1643.43 1283.14 1644.59 1283.14H1648.06C1649.21 1283.14 1649.8 1282.56 1649.8 1281.41V1275.46C1649.8 1274.31 1649.21 1273.73 1648.06 1273.73H1644.59C1643.43 1273.73 1642.86 1274.31 1642.86 1275.46V1281.41ZM1655.35 1281.16V1275.71C1655.35 1273.23 1656.59 1271.99 1659.06 1271.99H1664.02V1266.54H1666V1284.88H1659.06C1656.59 1284.88 1655.35 1283.64 1655.35 1281.16ZM1657.33 1281.41C1657.33 1282.56 1657.9 1283.14 1659.06 1283.14H1664.02V1273.73H1659.06C1657.9 1273.73 1657.33 1274.31 1657.33 1275.46V1281.41ZM1669.77 1281.16V1275.71C1669.77 1273.23 1671.01 1271.99 1673.49 1271.99H1676.71C1679.19 1271.99 1680.42 1273.23 1680.42 1275.71V1279.2H1671.75V1281.41C1671.75 1282.56 1672.32 1283.14 1673.49 1283.14H1679.93V1284.13L1678.94 1284.88H1673.49C1671.01 1284.88 1669.77 1283.64 1669.77 1281.16ZM1671.75 1277.59H1678.44V1275.46C1678.44 1274.31 1677.86 1273.73 1676.71 1273.73H1673.49C1672.32 1273.73 1671.75 1274.31 1671.75 1275.46V1277.59ZM1683.99 1281.16V1275.71C1683.99 1273.23 1685.23 1271.99 1687.71 1271.99H1692.57L1693.56 1272.74V1273.73H1687.71C1686.56 1273.73 1685.98 1274.31 1685.98 1275.46V1281.41C1685.98 1282.56 1686.56 1283.14 1687.71 1283.14H1693.56V1284.13L1692.57 1284.88H1687.71C1685.23 1284.88 1683.99 1283.64 1683.99 1281.16ZM1699.73 1284.88C1697.24 1284.88 1695.99 1283.63 1695.99 1281.14C1695.99 1278.65 1697.24 1277.39 1699.73 1277.39H1704.26V1275.46C1704.26 1274.31 1703.68 1273.73 1702.53 1273.73H1697.23V1272.74L1698.22 1271.99H1702.53C1705.01 1271.99 1706.25 1273.23 1706.25 1275.71V1284.88H1699.73ZM1697.97 1281.41C1697.97 1282.56 1698.55 1283.14 1699.7 1283.14H1704.26V1279H1699.7C1698.55 1279 1697.97 1279.59 1697.97 1280.74V1281.41ZM1708.62 1272.34L1708.85 1271.99H1710.56L1714.32 1283.14H1714.82L1718.59 1271.99H1720.3L1720.52 1272.34L1716.18 1284.88H1712.96L1708.62 1272.34ZM1722.79 1281.16V1275.71C1722.79 1273.23 1724.02 1271.99 1726.5 1271.99H1729.72C1732.2 1271.99 1733.44 1273.23 1733.44 1275.71V1279.2H1724.77V1281.41C1724.77 1282.56 1725.35 1283.14 1726.5 1283.14H1732.95V1284.13L1731.95 1284.88H1726.5C1724.02 1284.88 1722.79 1283.64 1722.79 1281.16ZM1724.77 1277.59H1731.46V1275.46C1731.46 1274.31 1730.88 1273.73 1729.72 1273.73H1726.5C1725.35 1273.73 1724.77 1274.31 1724.77 1275.46V1277.59ZM1737.26 1284.88V1282.2H1739.66V1284.88H1737.26ZM1743.45 1281.16V1275.71C1743.45 1273.23 1744.69 1271.99 1747.17 1271.99H1752.03L1753.02 1272.74V1273.73H1747.17C1746.02 1273.73 1745.43 1274.31 1745.43 1275.46V1281.41C1745.43 1282.56 1746.02 1283.14 1747.17 1283.14H1753.02V1284.13L1752.03 1284.88H1747.17C1744.69 1284.88 1743.45 1283.64 1743.45 1281.16ZM1755.94 1281.16V1275.71C1755.94 1273.23 1757.18 1271.99 1759.66 1271.99H1763.13C1765.61 1271.99 1766.85 1273.23 1766.85 1275.71V1281.16C1766.85 1283.64 1765.61 1284.88 1763.13 1284.88H1759.66C1757.18 1284.88 1755.94 1283.64 1755.94 1281.16ZM1757.92 1281.41C1757.92 1282.56 1758.49 1283.14 1759.66 1283.14H1763.13C1764.28 1283.14 1764.86 1282.56 1764.86 1281.41V1275.46C1764.86 1274.31 1764.28 1273.73 1763.13 1273.73H1759.66C1758.49 1273.73 1757.92 1274.31 1757.92 1275.46V1281.41ZM1770.61 1284.88V1271.99H1785.23C1787.71 1271.99 1788.95 1273.23 1788.95 1275.71V1284.88H1786.97V1275.46C1786.97 1274.31 1786.38 1273.73 1785.23 1273.73H1780.77V1284.88H1778.79V1273.73H1772.59V1284.88H1770.61ZM1792.88 1284.88V1282.2H1795.28V1284.88H1792.88ZM1802.31 1284.88C1799.81 1284.88 1798.56 1283.63 1798.56 1281.14C1798.56 1278.65 1799.81 1277.39 1802.31 1277.39H1806.84V1275.46C1806.84 1274.31 1806.27 1273.73 1805.11 1273.73H1799.8V1272.74L1800.79 1271.99H1805.11C1807.58 1271.99 1808.82 1273.23 1808.82 1275.71V1284.88H1802.31ZM1800.55 1281.41C1800.55 1282.56 1801.13 1283.14 1802.28 1283.14H1806.84V1279H1802.28C1801.13 1279 1800.55 1279.59 1800.55 1280.74V1281.41ZM1812.59 1284.88V1273.48C1813.17 1272.49 1814.25 1271.99 1815.81 1271.99H1818.29L1819.28 1272.74V1273.73H1816.08C1815.39 1273.73 1814.89 1273.91 1814.57 1274.3V1284.88H1812.59Z" fill="white"/>
<path d="M1686.29 363.037H1160.95C1140.42 363.037 1123.78 379.679 1123.78 400.208V1045.74C1123.78 1066.27 1140.42 1082.92 1160.95 1082.92H1686.29C1706.81 1082.92 1723.46 1066.27 1723.46 1045.74V400.208C1723.46 379.679 1706.81 363.037 1686.29 363.037Z" fill="black"/>
<path d="M1686.29 364.896H1160.95C1141.45 364.896 1125.64 380.705 1125.64 400.208V1045.74C1125.64 1065.25 1141.45 1081.06 1160.95 1081.06H1686.29C1705.79 1081.06 1721.6 1065.25 1721.6 1045.74V400.208C1721.6 380.705 1705.79 364.896 1686.29 364.896Z" stroke="#B0B0B0" stroke-opacity="0.3" stroke-width="3"/>
<path d="M1170.98 412.697V411.086H1178.64C1179.37 411.086 1179.73 410.73 1179.73 410.02V408.137C1179.73 407.509 1179.45 407.137 1178.89 407.022L1173.86 406.006C1171.94 405.626 1170.98 404.337 1170.98 402.14V400.777C1170.98 398.085 1172.33 396.738 1175.02 396.738H1180.8L1182.26 397.878V399.489H1175.1C1174.37 399.489 1174.01 399.844 1174.01 400.554V402.215C1174.01 402.843 1174.29 403.214 1174.85 403.33L1179.88 404.321C1181.8 404.717 1182.75 406.006 1182.75 408.187V409.797C1182.75 412.49 1181.41 413.837 1178.71 413.837H1172.45L1170.98 412.697ZM1185.97 418.793V400.827H1193.11C1195.71 400.827 1197 402.132 1197 404.742V409.921C1197 412.532 1195.71 413.837 1193.11 413.837H1188.87V418.793H1185.97ZM1188.87 411.309H1192.96C1193.72 411.309 1194.1 410.929 1194.1 410.169V404.494C1194.1 403.735 1193.72 403.354 1192.96 403.354H1188.87V411.309ZM1200.32 409.921V404.742C1200.32 402.132 1201.63 400.827 1204.24 400.827H1207.46C1210.05 400.827 1211.35 402.132 1211.35 404.742V408.41H1203.22V410.169C1203.22 410.929 1203.6 411.309 1204.36 411.309H1210.85V412.87L1209.54 413.837H1204.24C1201.63 413.837 1200.32 412.532 1200.32 409.921ZM1203.22 406.155H1208.45V404.494C1208.45 403.735 1208.07 403.354 1207.31 403.354H1204.36C1203.6 403.354 1203.22 403.735 1203.22 404.494V406.155ZM1214.87 413.837V400.827H1222.01C1224.6 400.827 1225.9 402.132 1225.9 404.742V413.837H1223V404.494C1223 403.735 1222.62 403.354 1221.86 403.354H1217.77V413.837H1214.87ZM1229.31 409.921V404.742C1229.31 402.132 1230.62 400.827 1233.23 400.827H1237.44V395.499H1240.34V413.837H1233.23C1230.62 413.837 1229.31 412.532 1229.31 409.921ZM1232.21 410.169C1232.21 410.929 1232.59 411.309 1233.35 411.309H1237.44V403.354H1233.35C1232.59 403.354 1232.21 403.735 1232.21 404.494V410.169Z" fill="#B0B0B0"/>
<path d="M1270.03 415.076V394.558H1279.61C1282.84 394.558 1284.45 396.173 1284.45 399.405V401.278C1284.45 401.952 1284.25 402.527 1283.86 403.003L1282.82 404.252L1284.07 405.293C1284.72 405.828 1285.05 406.621 1285.05 407.672V410.229C1285.05 413.46 1283.44 415.076 1280.2 415.076H1270.03ZM1273.66 411.775H1280.11C1280.98 411.775 1281.42 411.349 1281.42 410.497V407.374C1281.42 406.522 1280.98 406.096 1280.11 406.096H1273.66V411.775ZM1273.66 402.795H1279.52C1280.39 402.795 1280.82 402.359 1280.82 401.486V399.137C1280.82 398.285 1280.39 397.858 1279.52 397.858H1273.66V402.795ZM1288.92 410.378V399.464H1292.41V410.675C1292.41 411.587 1292.86 412.043 1293.77 412.043H1298.68V399.464H1302.16V415.076H1293.62C1290.49 415.076 1288.92 413.51 1288.92 410.378ZM1304.94 399.999L1305.3 399.464H1308.3L1312.23 412.043H1312.68L1316.6 399.464H1319.6L1319.96 399.999L1313.16 421.023H1310.15L1309.79 420.488L1311.67 415.076H1309.85L1304.94 399.999Z" fill="white"/>
<path d="M1562.39 598.453H1289.8C1282.96 598.453 1277.41 604 1277.41 610.843V737.225C1277.41 744.068 1282.96 749.615 1289.8 749.615H1562.39C1569.23 749.615 1574.78 744.068 1574.78 737.225V610.843C1574.78 604 1569.23 598.453 1562.39 598.453Z" fill="white" fill-opacity="0.15"/>
<path d="M1366.7 708.727V695.524H1385.73V639.856H1370.15V632.125L1377.17 626.653H1400.25V695.524H1417.37V708.727H1366.7ZM1432.14 689.338V646.042C1432.14 633.116 1438.6 626.653 1451.52 626.653H1468.17C1481.11 626.653 1487.56 633.116 1487.56 646.042V689.338C1487.56 702.264 1481.11 708.727 1468.17 708.727H1451.52C1438.6 708.727 1432.14 702.264 1432.14 689.338ZM1446.76 690.409C1446.76 693.819 1448.47 695.524 1451.88 695.524H1467.82C1471.23 695.524 1472.93 693.819 1472.93 690.409V644.971C1472.93 641.561 1471.23 639.856 1467.82 639.856H1451.88C1448.47 639.856 1446.76 641.561 1446.76 644.971V690.409Z" fill="white"/>
<path d="M1543.71 674.49V668.424H1554.12V657.48H1560.43V668.424H1570.83V674.49H1560.43V685.433H1554.12V674.49H1543.71Z" fill="white"/>
<path d="M1297.14 676.274V670.208H1314.56V676.274H1297.14Z" fill="white"/>
<path d="M1170.13 914.601V912.263H1181.86V914.601H1177.29V926.797H1174.7V914.601H1170.13ZM1182.94 923.469V919.067C1182.94 916.848 1184.05 915.739 1186.27 915.739H1189.22C1191.42 915.739 1192.52 916.848 1192.52 919.067V923.469C1192.52 925.688 1191.42 926.797 1189.22 926.797H1186.27C1184.05 926.797 1182.94 925.688 1182.94 923.469ZM1185.41 923.68C1185.41 924.325 1185.73 924.649 1186.37 924.649H1189.09C1189.74 924.649 1190.06 924.325 1190.06 923.68V918.856C1190.06 918.211 1189.74 917.887 1189.09 917.887H1186.37C1185.73 917.887 1185.41 918.211 1185.41 918.856V923.68ZM1195.43 923.469V912.263H1197.89V915.739H1201.66V917.887H1197.89V923.68C1197.89 924.325 1198.22 924.649 1198.86 924.649H1201.87V925.976L1200.76 926.797H1198.76C1196.54 926.797 1195.43 925.688 1195.43 923.469ZM1206.95 926.797C1204.73 926.797 1203.62 925.702 1203.62 923.511C1203.62 921.321 1204.73 920.225 1206.95 920.225H1210.2V918.856C1210.2 918.211 1209.87 917.887 1209.23 917.887H1204.76V916.56L1205.86 915.739H1209.35C1211.56 915.739 1212.66 916.848 1212.66 919.067V926.797H1206.95ZM1206.09 923.68C1206.09 924.325 1206.41 924.649 1207.06 924.649H1210.2V922.142H1207.06C1206.41 922.142 1206.09 922.458 1206.09 923.09V923.68ZM1215.65 923.132V911.21H1218.11V923.385C1218.11 924.298 1218.58 924.789 1219.5 924.859V926.987C1216.93 926.987 1215.65 925.702 1215.65 923.132Z" fill="white"/>
<path d="M1616.2 931.753V929.414H1619.57V919.557H1616.8V918.188L1618.04 917.219H1622.13V929.414H1625.17V931.753H1616.2ZM1627.78 928.319V920.652C1627.78 918.364 1628.92 917.219 1631.21 917.219H1634.16C1636.45 917.219 1637.59 918.364 1637.59 920.652V928.319C1637.59 930.608 1636.45 931.753 1634.16 931.753H1631.21C1628.92 931.753 1627.78 930.608 1627.78 928.319ZM1630.37 928.509C1630.37 929.112 1630.67 929.414 1631.27 929.414H1634.1C1634.71 929.414 1635 929.112 1635 928.509V920.463C1635 919.859 1634.71 919.557 1634.1 919.557H1631.27C1630.67 919.557 1630.37 919.859 1630.37 920.463V928.509ZM1645.5 928.319V917.219H1648.07V928.509C1648.07 929.112 1648.38 929.414 1649 929.414H1653.28C1653.89 929.414 1654.2 929.112 1654.2 928.509V917.219H1656.77V928.319C1656.77 930.608 1655.62 931.753 1653.34 931.753H1648.93C1646.65 931.753 1645.5 930.608 1645.5 928.319ZM1659.6 930.784V929.414H1666.11C1666.72 929.414 1667.03 929.112 1667.03 928.509V926.908C1667.03 926.374 1666.8 926.058 1666.33 925.96L1662.04 925.096C1660.42 924.773 1659.6 923.678 1659.6 921.811V920.652C1659.6 918.364 1660.75 917.219 1663.03 917.219H1667.94L1669.19 918.188V919.557H1663.09C1662.48 919.557 1662.17 919.859 1662.17 920.463V921.874C1662.17 922.408 1662.41 922.724 1662.88 922.822L1667.17 923.664C1668.79 924.001 1669.61 925.097 1669.61 926.95V928.319C1669.61 930.608 1668.46 931.753 1666.18 931.753H1660.85L1659.6 930.784ZM1672.56 931.753V917.219H1678.13C1681.92 917.219 1683.82 919.122 1683.82 922.927V926.044C1683.82 929.849 1681.92 931.753 1678.13 931.753H1672.56ZM1675.12 929.414H1678.28C1680.26 929.414 1681.26 928.425 1681.26 926.445V922.527C1681.26 920.547 1680.26 919.557 1678.28 919.557H1675.12V929.414ZM1685.69 919.557V917.219H1697.42V919.557H1692.85V931.753H1690.26V919.557H1685.69Z" fill="white"/>
<path d="M1175.82 889.006L1691.24 890.221" stroke="white" stroke-dasharray="2 2"/>
<path d="M1687.52 965.207H1159.71V1045.74H1687.52V965.207Z" fill="#EB5D47" fill-opacity="0.2"/>
<path d="M1392.49 1016.01V992.069H1403.67C1407.43 992.069 1409.32 993.954 1409.32 997.724V999.91C1409.32 1000.7 1409.08 1001.37 1408.62 1001.92L1407.41 1003.38L1408.87 1004.59C1409.63 1005.22 1410.01 1006.14 1410.01 1007.37V1010.35C1410.01 1014.12 1408.13 1016.01 1404.36 1016.01H1392.49ZM1396.73 1012.16H1404.25C1405.27 1012.16 1405.77 1011.66 1405.77 1010.66V1007.02C1405.77 1006.03 1405.27 1005.53 1404.25 1005.53H1396.73V1012.16ZM1396.73 1001.68H1403.56C1404.57 1001.68 1405.08 1001.17 1405.08 1000.15V997.412C1405.08 996.417 1404.57 995.92 1403.56 995.92H1396.73V1001.68ZM1414.82 1010.35V992.069H1419.04V1010.66C1419.04 1011.66 1419.55 1012.16 1420.57 1012.16H1427.62C1428.63 1012.16 1429.14 1011.66 1429.14 1010.66V992.069H1433.38V1010.35C1433.38 1014.12 1431.48 1016.01 1427.72 1016.01H1420.47C1416.7 1016.01 1414.82 1014.12 1414.82 1010.35ZM1436.79 992.902L1437.31 992.069H1440.91L1446.57 1002.93L1452.26 992.069H1455.9L1456.39 992.902L1448.72 1007.4V1016.01H1444.46V1007.4L1436.79 992.902Z" fill="#EB5D47"/>
<path d="M417.02 712.325V710.511H433.018V712.325H426V731.03H424.037V712.325H417.02ZM436.168 731.03V709.024H438.042V715.626H444.405C447.3 715.626 448.746 717.083 448.746 719.997V731.03H446.873V719.7C446.873 718.094 446.07 717.291 444.465 717.291H438.042V731.03H436.168ZM453.295 726.658V719.997C453.295 717.083 454.752 715.626 457.666 715.626H461.532C464.426 715.626 465.874 717.083 465.874 719.997V724.071H455.168V726.956C455.168 728.581 455.981 729.394 457.607 729.394H465.279V730.256L464.268 731.03H457.666C454.752 731.03 453.295 729.573 453.295 726.658ZM455.168 722.495H464V719.7C464 718.094 463.197 717.291 461.591 717.291H457.607C455.981 717.291 455.168 718.094 455.168 719.7V722.495ZM477.456 726.658V719.997C477.456 717.083 478.913 715.626 481.827 715.626H485.99C488.884 715.626 490.331 717.083 490.331 719.997V726.658C490.331 729.573 488.884 731.03 485.99 731.03H481.827C478.913 731.03 477.456 729.573 477.456 726.658ZM479.329 726.956C479.329 728.581 480.142 729.394 481.767 729.394H486.049C487.655 729.394 488.458 728.581 488.458 726.956V719.7C488.458 718.094 487.655 717.291 486.049 717.291H481.767C480.142 717.291 479.329 718.094 479.329 719.7V726.956ZM495.001 731.03V715.626H503.238C506.132 715.626 507.58 717.083 507.58 719.997V731.03H505.706V719.7C505.706 718.094 504.903 717.291 503.298 717.291H496.875V731.03H495.001ZM512.248 727.253V709.024H514.122V727.402C514.122 728.829 514.845 729.573 516.292 729.632V731.268C513.596 731.268 512.248 729.929 512.248 727.253ZM517.521 716.013L517.759 715.626H519.395L524.153 729.394H524.836L529.624 715.626H531.23L531.468 716.013L524.004 736.977H522.398L522.16 736.62L524.242 731.03H522.874L517.521 716.013ZM539.914 716.013L540.18 715.626H541.698L545.088 729.394H545.564L549.608 715.626H551.779L555.793 729.394H556.299L559.688 715.626H561.205L561.443 716.013L557.696 731.03H554.544L550.678 717.708L546.841 731.03H543.69L539.914 716.013ZM567.915 731.03C564.981 731.03 563.515 729.563 563.515 726.629C563.515 723.675 564.981 722.198 567.915 722.198H573.744V719.7C573.744 718.094 572.941 717.291 571.335 717.291H564.942V716.399L565.983 715.626H571.276C574.17 715.626 575.617 717.083 575.617 719.997V731.03H567.915ZM565.388 726.956C565.388 728.581 566.201 729.394 567.826 729.394H573.744V723.774H567.826C566.201 723.774 565.388 724.577 565.388 726.183V726.956ZM580.287 727.253V709.024H582.16V727.402C582.16 728.829 582.884 729.573 584.331 729.632V731.268C581.635 731.268 580.287 729.929 580.287 727.253ZM587.575 727.253V709.024H589.448V727.402C589.448 728.829 590.172 729.573 591.619 729.632V731.268C588.923 731.268 587.575 729.929 587.575 727.253ZM594.745 726.658V719.997C594.745 717.083 596.202 715.626 599.116 715.626H602.982C605.876 715.626 607.323 717.083 607.323 719.997V724.071H596.618V726.956C596.618 728.581 597.431 729.394 599.057 729.394H606.729V730.256L605.717 731.03H599.116C596.202 731.03 594.745 729.573 594.745 726.658ZM596.618 722.495H605.45V719.7C605.45 718.094 604.647 717.291 603.041 717.291H599.057C597.431 717.291 596.618 718.094 596.618 719.7V722.495ZM611.882 726.658V710.511H613.755V715.626H619.583V717.291H613.755V726.956C613.755 728.581 614.568 729.394 616.193 729.394H619.881V730.256L618.87 731.03H616.253C613.339 731.03 611.882 729.573 611.882 726.658ZM630.408 712.682V710.244H632.549V712.682H630.408ZM630.527 731.03V715.626H632.401V731.03H630.527ZM637.294 731.03V715.626H645.53C648.425 715.626 649.872 717.083 649.872 719.997V731.03H647.999V719.7C647.999 718.094 647.196 717.291 645.59 717.291H639.167V731.03H637.294ZM661.683 726.658V710.511H663.557V715.626H669.385V717.291H663.557V726.956C663.557 728.581 664.369 729.394 665.995 729.394H669.682V730.256L668.671 731.03H666.055C663.14 731.03 661.683 729.573 661.683 726.658ZM673.185 731.03V709.024H675.058V715.626H681.422C684.316 715.626 685.763 717.083 685.763 719.997V731.03H683.89V719.7C683.89 718.094 683.087 717.291 681.481 717.291H675.058V731.03H673.185ZM690.313 726.658V719.997C690.313 717.083 691.77 715.626 694.684 715.626H698.55C701.444 715.626 702.891 717.083 702.891 719.997V724.071H692.186V726.956C692.186 728.581 692.999 729.394 694.625 729.394H702.297V730.256L701.286 731.03H694.684C691.77 731.03 690.313 729.573 690.313 726.658ZM692.186 722.495H701.018V719.7C701.018 718.094 700.215 717.291 698.609 717.291H694.625C692.999 717.291 692.186 718.094 692.186 719.7V722.495ZM714.711 731.03V715.626H732.167C735.061 715.626 736.508 717.083 736.508 719.997V731.03H734.635V719.7C734.635 718.094 733.832 717.291 732.226 717.291H726.546V731.03H724.673V717.291H716.585V731.03H714.711ZM744.85 731.03C741.916 731.03 740.449 729.563 740.449 726.629C740.449 723.675 741.916 722.198 744.85 722.198H750.679V719.7C750.679 718.094 749.876 717.291 748.27 717.291H741.877V716.399L742.917 715.626H748.21C751.105 715.626 752.552 717.083 752.552 719.997V731.03H744.85ZM742.323 726.956C742.323 728.581 743.135 729.394 744.761 729.394H750.679V723.774H744.761C743.135 723.774 742.323 724.577 742.323 726.183V726.956ZM757.222 731.03V717.351C757.916 716.201 759.174 715.626 760.998 715.626H763.912L764.923 716.399V717.291H761.087C760.176 717.291 759.511 717.539 759.095 718.035V731.03H757.222ZM768.144 731.03V709.024H770.017V724.071L777.689 715.626H779.503L779.711 716.013L774.15 722.109L780.127 730.643L779.919 731.03H778.105L772.901 723.476L770.017 726.569V731.03H768.144ZM783.152 726.658V719.997C783.152 717.083 784.609 715.626 787.523 715.626H791.389C794.283 715.626 795.73 717.083 795.73 719.997V724.071H785.025V726.956C785.025 728.581 785.838 729.394 787.463 729.394H795.135V730.256L794.124 731.03H787.523C784.609 731.03 783.152 729.573 783.152 726.658ZM785.025 722.495H793.857V719.7C793.857 718.094 793.054 717.291 791.448 717.291H787.463C785.838 717.291 785.025 718.094 785.025 719.7V722.495ZM800.287 726.658V710.511H802.16V715.626H807.989V717.291H802.16V726.956C802.16 728.581 802.973 729.394 804.599 729.394H808.286V730.256L807.275 731.03H804.658C801.744 731.03 800.287 729.573 800.287 726.658ZM817.208 716.013L817.476 715.626H818.992L822.382 729.394H822.858L826.902 715.626H829.073L833.087 729.394H833.593L836.983 715.626H838.499L838.737 716.013L834.99 731.03H831.838L827.973 717.708L824.137 731.03H820.985L817.208 716.013ZM841.814 712.682V710.244H843.955V712.682H841.814ZM841.932 731.03V715.626H843.806V731.03H841.932ZM848.58 726.658V710.511H850.453V715.626H856.281V717.291H850.453V726.956C850.453 728.581 851.266 729.394 852.891 729.394H856.579V730.256L855.568 731.03H852.951C850.037 731.03 848.58 729.573 848.58 726.658ZM860.081 731.03V709.024H861.955V715.626H868.318C871.213 715.626 872.66 717.083 872.66 719.997V731.03H870.786V719.7C870.786 718.094 869.984 717.291 868.378 717.291H861.955V731.03H860.081ZM888.158 731.03C885.224 731.03 883.758 729.563 883.758 726.629C883.758 723.675 885.224 722.198 888.158 722.198H893.987V719.7C893.987 718.094 893.184 717.291 891.578 717.291H885.185V716.399L886.226 715.626H891.519C894.413 715.626 895.86 717.083 895.86 719.997V731.03H888.158ZM885.631 726.956C885.631 728.581 886.444 729.394 888.069 729.394H893.987V723.774H888.069C886.444 723.774 885.631 724.577 885.631 726.183V726.956ZM418.744 768.201V750.567C418.744 747.653 420.201 746.195 423.115 746.195H425.732L426.743 746.969V747.831H423.056C421.43 747.831 420.618 748.644 420.618 750.269V752.797H426.446V754.462H420.618V768.201H418.744ZM429.541 763.829V757.168C429.541 754.254 430.998 752.797 433.912 752.797H438.075C440.97 752.797 442.417 754.254 442.417 757.168V763.829C442.417 766.744 440.97 768.201 438.075 768.201H433.912C430.998 768.201 429.541 766.744 429.541 763.829ZM431.414 764.127C431.414 765.752 432.227 766.565 433.853 766.565H438.135C439.74 766.565 440.543 765.752 440.543 764.127V756.871C440.543 755.265 439.74 754.462 438.135 754.462H433.853C432.227 754.462 431.414 755.265 431.414 756.871V764.127ZM446.849 763.829V757.168C446.849 754.254 448.306 752.797 451.22 752.797H457.137L458.148 753.57V754.462H451.16C449.535 754.462 448.722 755.265 448.722 756.871V764.127C448.722 765.752 449.535 766.565 451.16 766.565H458.148V767.427L457.137 768.201H451.22C448.306 768.201 446.849 766.744 446.849 763.829ZM461.836 763.829V752.797H463.709V764.127C463.709 765.752 464.522 766.565 466.147 766.565H472.541V752.797H474.414V768.201H466.207C463.293 768.201 461.836 766.744 461.836 763.829ZM478.696 767.427V766.565H485.595C487.181 766.565 487.974 765.772 487.974 764.186C487.974 762.6 487.339 761.708 486.071 761.51L482.443 760.885C479.945 760.469 478.696 759.151 478.696 756.93C478.696 754.175 480.163 752.797 483.097 752.797H488.122L489.133 753.57V754.462H482.978C481.372 754.462 480.569 755.245 480.569 756.811C480.569 758.199 481.233 759.002 482.562 759.22L486.219 759.845C488.638 760.241 489.847 761.649 489.847 764.067C489.847 766.823 488.38 768.201 485.446 768.201H479.707L478.696 767.427ZM501.035 763.829V757.168C501.035 754.254 502.492 752.797 505.406 752.797H509.569C512.464 752.797 513.911 754.254 513.911 757.168V763.829C513.911 766.744 512.464 768.201 509.569 768.201H505.406C502.492 768.201 501.035 766.744 501.035 763.829ZM502.909 764.127C502.909 765.752 503.721 766.565 505.347 766.565H509.629C511.235 766.565 512.038 765.752 512.038 764.127V756.871C512.038 755.265 511.235 754.462 509.629 754.462H505.347C503.721 754.462 502.909 755.265 502.909 756.871V764.127ZM518.581 768.201V752.797H526.818C529.712 752.797 531.159 754.254 531.159 757.168V768.201H529.286V756.871C529.286 755.265 528.483 754.462 526.877 754.462H520.454V768.201H518.581ZM543.387 768.201V747.682H545.617L557.184 765.257V747.682H559.147V768.201H556.947L545.379 750.626V768.201H543.387ZM564.644 768.201V747.682H577.847V749.496H566.637V757.376H576.955V759.161H566.637V768.201H564.644ZM579.464 749.496V747.682H595.462V749.496H588.445V768.201H586.482V749.496H579.464ZM596.798 767.427V766.565H603.697C605.283 766.565 606.076 765.772 606.076 764.186C606.076 762.6 605.441 761.708 604.172 761.51L600.545 760.885C598.047 760.469 596.798 759.151 596.798 756.93C596.798 754.175 598.265 752.797 601.199 752.797H606.224L607.235 753.57V754.462H601.08C599.474 754.462 598.671 755.245 598.671 756.811C598.671 758.199 599.335 759.002 600.664 759.22L604.321 759.845C606.74 760.241 607.949 761.649 607.949 764.067C607.949 766.823 606.482 768.201 603.548 768.201H597.809L596.798 767.427ZM612.381 768.201V765.316H614.819V768.201H612.381Z" fill="#B0B0B0"/>
<path d="M419.65 572.597V556.361C419.65 551.513 422.074 549.09 426.921 549.09H439.053L441.685 551.142V554.041H427.055C425.746 554.041 425.092 554.68 425.092 555.959V572.998C425.092 574.277 425.746 574.916 427.055 574.916H441.685V577.816L439.053 579.867H426.921C422.074 579.867 419.65 577.444 419.65 572.597ZM447.713 579.867V549.09H468.409V554.041H453.154V562.784H467.071V567.735H453.154V579.867H447.713ZM470.823 554.041V549.09H495.667V554.041H485.988V579.867H480.502V554.041H470.823Z" fill="white"/>
<path d="M993.711 265.154V260.202H1000.85V239.327H995.004V236.428L997.636 234.376H1006.29V260.202H1012.71V265.154H993.711ZM1018.25 257.883V241.647C1018.25 236.8 1020.67 234.376 1025.52 234.376H1031.76C1036.61 234.376 1039.03 236.8 1039.03 241.647V257.883C1039.03 262.73 1036.61 265.154 1031.76 265.154H1025.52C1020.67 265.154 1018.25 262.73 1018.25 257.883ZM1023.74 258.284C1023.74 259.563 1024.38 260.202 1025.65 260.202H1031.63C1032.91 260.202 1033.55 259.563 1033.55 258.284V241.245C1033.55 239.966 1032.91 239.327 1031.63 239.327H1025.65C1024.38 239.327 1023.74 239.966 1023.74 241.245V258.284ZM1055.6 257.883V241.647C1055.6 236.8 1058.02 234.376 1062.87 234.376H1075L1077.63 236.428V239.327H1063C1061.69 239.327 1061.04 239.966 1061.04 241.245V258.284C1061.04 259.563 1061.69 260.202 1063 260.202H1077.63V263.102L1075 265.154H1062.87C1058.02 265.154 1055.6 262.73 1055.6 257.883ZM1083.66 265.154V234.376H1104.36V239.327H1089.1V248.07H1103.02V253.021H1089.1V265.154H1083.66ZM1106.77 239.327V234.376H1131.61V239.327H1121.94V265.154H1116.45V239.327H1106.77Z" fill="white"/>
<path d="M419.795 660.405V656.757H426.376V636.695H421.064V634.633L423.125 633.047H430.421V656.757H436.368V660.405H419.795ZM451.528 654.299V645.774C451.528 641.73 453.55 639.708 457.594 639.708H465.247L467.07 641.056V643.078H457.713C456.154 643.078 455.374 643.845 455.374 645.378V654.695C455.374 656.255 456.154 657.035 457.713 657.035H467.07V659.057L465.247 660.405H457.594C453.55 660.405 451.528 658.369 451.528 654.299ZM471.662 654.299V645.774C471.662 641.73 473.684 639.708 477.728 639.708H483.279C487.323 639.708 489.345 641.73 489.345 645.774V654.299C489.345 658.369 487.323 660.405 483.279 660.405H477.728C473.684 660.405 471.662 658.369 471.662 654.299ZM475.508 654.695C475.508 656.255 476.287 657.035 477.847 657.035H483.2C484.732 657.035 485.499 656.255 485.499 654.695V645.378C485.499 643.845 484.732 643.078 483.2 643.078H477.847C476.287 643.078 475.508 643.845 475.508 645.378V654.695ZM495.211 660.405V637.17C495.211 633.1 497.233 631.064 501.277 631.064H504.964L506.788 632.412V634.435H501.396C499.836 634.435 499.057 635.214 499.057 636.774V639.708H506.391V643.078H499.057V660.405H495.211ZM510.659 660.405V637.17C510.659 633.1 512.681 631.064 516.725 631.064H520.412L522.236 632.412V634.435H516.844C515.285 634.435 514.504 635.214 514.504 636.774V639.708H521.839V643.078H514.504V660.405H510.659ZM525.791 654.299V645.774C525.791 641.73 527.813 639.708 531.857 639.708H537.011C541.055 639.708 543.077 641.73 543.077 645.774V651.484H529.636V654.695C529.636 656.255 530.416 657.035 531.976 657.035H542.284V659.057L540.5 660.405H531.857C527.813 660.405 525.791 658.369 525.791 654.299ZM529.636 648.47H539.231V645.378C539.231 643.845 538.464 643.078 536.932 643.078H531.976C530.416 643.078 529.636 643.845 529.636 645.378V648.47ZM548.635 654.299V645.774C548.635 641.73 550.657 639.708 554.701 639.708H559.856C563.9 639.708 565.922 641.73 565.922 645.774V651.484H552.481V654.695C552.481 656.255 553.261 657.035 554.82 657.035H565.129V659.057L563.345 660.405H554.701C550.657 660.405 548.635 658.369 548.635 654.299ZM552.481 648.47H562.076V645.378C562.076 643.845 561.309 643.078 559.776 643.078H554.82C553.261 643.078 552.481 643.845 552.481 645.378V648.47ZM571.756 660.405V655.726H576.197V660.405H571.756ZM582.249 660.405V655.726H586.69V660.405H582.249ZM592.743 660.405V655.726H597.183V660.405H592.743ZM603.234 660.405V655.726H607.675V660.405H603.234ZM613.728 660.405V655.726H618.168V660.405H613.728ZM624.221 660.405V655.726H628.661V660.405H624.221ZM635.15 660.405V656.757H641.732V636.695H636.419V634.633L638.48 633.047H645.776V656.757H651.723V660.405H635.15ZM667.358 654.14V633.047H671.362V654.537C671.362 656.017 672.116 656.757 673.622 656.757H681.948C683.455 656.757 684.208 656.017 684.208 654.537V633.047H688.213V654.14C688.213 658.317 686.138 660.405 681.988 660.405H673.583C669.433 660.405 667.358 658.317 667.358 654.14ZM693.781 658.819V656.757H705.993C707.499 656.757 708.253 656.017 708.253 654.537V651.404C708.253 650.11 707.684 649.356 706.548 649.144L698.261 647.44C695.274 646.858 693.781 644.862 693.781 641.452V639.311C693.781 635.135 695.855 633.047 700.006 633.047H709.442L711.464 634.633V636.695H700.045C698.539 636.695 697.785 637.434 697.785 638.915V641.611C697.785 642.906 698.353 643.659 699.49 643.871L707.816 645.497C710.776 646.131 712.257 648.14 712.257 651.523V654.14C712.257 658.317 710.182 660.405 706.032 660.405H695.803L693.781 658.819ZM718.047 660.405V633.047H728.673C735.492 633.047 738.902 636.483 738.902 643.356V650.096C738.902 656.969 735.492 660.405 728.673 660.405H718.047ZM722.051 656.757H728.871C732.888 656.757 734.897 654.749 734.897 650.73V642.721C734.897 638.703 732.888 636.695 728.871 636.695H722.051V656.757ZM742.535 636.695V633.047H764.341V636.695H755.46V660.405H751.416V636.695H742.535Z" fill="white"/>
<path d="M2137.28 0H0V182.138H2137.28V0Z" fill="black" fill-opacity="0.04"/>
<path d="M1761.89 96.8077V80.5714C1761.89 75.7243 1764.31 73.3008 1769.15 73.3008H1775.39C1780.25 73.3008 1782.67 75.7243 1782.67 80.5714V96.8077C1782.67 101.655 1780.25 104.078 1775.39 104.078H1769.15C1764.31 104.078 1761.89 101.655 1761.89 96.8077ZM1767.37 97.2092C1767.37 98.4878 1768.01 99.1272 1769.29 99.1272H1775.27C1776.55 99.1272 1777.18 98.4878 1777.18 97.2092V80.17C1777.18 78.8913 1776.55 78.252 1775.27 78.252H1769.29C1768.01 78.252 1767.37 78.8913 1767.37 80.17V97.2092ZM1787.67 96.8077V80.5714C1787.67 75.7243 1790.09 73.3008 1794.95 73.3008H1801.19C1806.04 73.3008 1808.45 75.7243 1808.45 80.5714V96.8077C1808.45 101.655 1806.04 104.078 1801.19 104.078H1794.95C1790.09 104.078 1787.67 101.655 1787.67 96.8077ZM1793.16 97.2092C1793.16 98.4878 1793.79 99.1272 1795.07 99.1272H1801.05C1802.33 99.1272 1802.98 98.4878 1802.98 97.2092V80.17C1802.98 78.8913 1802.33 78.252 1801.05 78.252H1795.07C1793.79 78.252 1793.16 78.8913 1793.16 80.17V97.2092ZM1813.46 96.8077V80.5714C1813.46 75.7243 1815.89 73.3008 1820.73 73.3008H1826.97C1831.82 73.3008 1834.25 75.7243 1834.25 80.5714V96.8077C1834.25 101.655 1831.82 104.078 1826.97 104.078H1820.73C1815.89 104.078 1813.46 101.655 1813.46 96.8077ZM1818.95 97.2092C1818.95 98.4878 1819.59 99.1272 1820.87 99.1272H1826.84C1828.11 99.1272 1828.76 98.4878 1828.76 97.2092V80.17C1828.76 78.8913 1828.11 78.252 1826.84 78.252H1820.87C1819.59 78.252 1818.95 78.8913 1818.95 80.17V97.2092ZM1839.91 104.078V98.2797H1845.71V104.078H1839.91ZM1852.03 104.078V98.2797H1857.83V104.078H1852.03ZM1864.13 104.078V98.2797H1869.93V104.078H1864.13ZM1876.24 104.078V98.2797H1882.04V104.078H1876.24ZM1888.35 104.078V98.2797H1894.15V104.078H1888.35ZM1900.46 104.078V98.2797H1906.26V104.078H1900.46ZM1911.9 96.8077V80.5714C1911.9 75.7243 1914.32 73.3008 1919.17 73.3008H1925.41C1930.26 73.3008 1932.69 75.7243 1932.69 80.5714V96.8077C1932.69 101.655 1930.26 104.078 1925.41 104.078H1919.17C1914.32 104.078 1911.9 101.655 1911.9 96.8077ZM1917.38 97.2092C1917.38 98.4878 1918.03 99.1272 1919.31 99.1272H1925.28C1926.57 99.1272 1927.2 98.4878 1927.2 97.2092V80.17C1927.2 78.8913 1926.57 78.252 1925.28 78.252H1919.31C1918.03 78.252 1917.38 78.8913 1917.38 80.17V97.2092ZM1937.69 96.8077V80.5714C1937.69 75.7243 1940.11 73.3008 1944.95 73.3008H1951.2C1956.05 73.3008 1958.47 75.7243 1958.47 80.5714V96.8077C1958.47 101.655 1956.05 104.078 1951.2 104.078H1944.95C1940.11 104.078 1937.69 101.655 1937.69 96.8077ZM1943.17 97.2092C1943.17 98.4878 1943.81 99.1272 1945.09 99.1272H1951.07C1952.35 99.1272 1952.98 98.4878 1952.98 97.2092V80.17C1952.98 78.8913 1952.35 78.252 1951.07 78.252H1945.09C1943.81 78.252 1943.17 78.8913 1943.17 80.17V97.2092ZM1963.48 96.8077V80.5714C1963.48 75.7243 1965.9 73.3008 1970.75 73.3008H1976.99C1981.84 73.3008 1984.27 75.7243 1984.27 80.5714V96.8077C1984.27 101.655 1981.84 104.078 1976.99 104.078H1970.75C1965.9 104.078 1963.48 101.655 1963.48 96.8077ZM1968.96 97.2092C1968.96 98.4878 1969.6 99.1272 1970.88 99.1272H1976.86C1978.13 99.1272 1978.78 98.4878 1978.78 97.2092V80.17C1978.78 78.8913 1978.13 78.252 1976.86 78.252H1970.88C1969.6 78.252 1968.96 78.8913 1968.96 80.17V97.2092ZM1989.26 96.8077V80.5714C1989.26 75.7243 1991.69 73.3008 1996.53 73.3008H2002.78C2007.62 73.3008 2010.05 75.7243 2010.05 80.5714V96.8077C2010.05 101.655 2007.62 104.078 2002.78 104.078H1996.53C1991.69 104.078 1989.26 101.655 1989.26 96.8077ZM1994.75 97.2092C1994.75 98.4878 1995.39 99.1272 1996.67 99.1272H2002.64C2003.92 99.1272 2004.56 98.4878 2004.56 97.2092V80.17C2004.56 78.8913 2003.92 78.252 2002.64 78.252H1996.67C1995.39 78.252 1994.75 78.8913 1994.75 80.17V97.2092Z" fill="white"/>
<path d="M127.151 102.22V74.8623H133.336L144.2 92.8233V74.8623H149.909V102.22H143.724L132.861 84.2591V102.22H127.151ZM156.026 95.5591V81.5233C156.026 77.0827 158.247 74.8623 162.687 74.8623H171.727C176.168 74.8623 178.388 77.0827 178.388 81.5233V95.5591C178.388 99.9998 176.168 102.22 171.727 102.22H162.687C158.247 102.22 156.026 99.9998 156.026 95.5591ZM161.736 95.8763C161.736 96.6693 162.132 97.0658 162.925 97.0658H171.489C172.282 97.0658 172.679 96.6693 172.679 95.8763V81.2062C172.679 80.4132 172.282 80.0167 171.489 80.0167H162.925C162.132 80.0167 161.736 80.4132 161.736 81.2062V95.8763ZM184.494 102.22V74.8623H191.313L199.005 91.277L206.697 74.8623H213.516V102.22H207.807V84.9332L201.384 98.6517H196.626L190.203 84.9332V102.22H184.494ZM220.038 102.22V74.8623H232.964C237.404 74.8623 239.624 77.0827 239.624 81.5233V83.9023C239.624 84.801 239.359 85.5676 238.832 86.2019L237.444 87.8672L239.109 89.2549C239.981 89.9686 240.417 91.0259 240.417 92.4268V95.5591C240.417 99.9998 238.197 102.22 233.757 102.22H220.038ZM225.748 97.0658H233.519C234.312 97.0658 234.708 96.6693 234.708 95.8763V91.9114C234.708 91.1184 234.312 90.7219 233.519 90.7219H225.748V97.0658ZM225.748 85.5675H232.726C233.519 85.5675 233.915 85.1711 233.915 84.3781V81.2062C233.915 80.4132 233.519 80.0167 232.726 80.0167H225.748V85.5675ZM245.903 102.22V74.8623H259.224C263.665 74.8623 265.885 77.0827 265.885 81.5233V86.0433C265.885 89.3475 264.656 91.4092 262.198 92.2286L266.678 101.031L266.004 102.22H261.088L256.251 92.7044H251.612V102.22H245.903ZM251.612 87.55H258.986C259.779 87.55 260.176 87.1535 260.176 86.3605V81.2062C260.176 80.4132 259.779 80.0167 258.986 80.0167H251.612V87.55ZM271.612 102.22V74.8623H290.326V80.0167H277.321V85.5675H289.136V90.7219H277.321V97.0658H290.326V102.22H271.612Z" fill="white"/>
<path d="M361.155 98.8499V97.9281H370.314C371.86 97.9281 372.633 97.1549 372.633 95.6086V93.1107C372.633 91.8221 372.058 91.0589 370.909 90.821L364.367 89.4828C362.226 89.0665 361.155 87.6391 361.155 85.2007V83.6544C361.155 80.7006 362.632 79.2236 365.586 79.2236H372.901L374.031 80.1157V81.0376H365.497C363.931 81.0376 363.148 81.8107 363.148 83.3571V85.4089C363.148 86.7173 363.722 87.4905 364.872 87.7284L371.444 89.007C373.565 89.4432 374.626 90.8705 374.626 93.2891V95.3112C374.626 98.2651 373.149 99.742 370.195 99.742H362.315L361.155 98.8499ZM379.239 99.742V79.2236H381.231V88.0257H392.501V79.2236H394.493V99.742H392.501V89.8099H381.231V99.742H379.239ZM399.704 95.3112V83.6544C399.704 80.7006 401.181 79.2236 404.135 79.2236H411.123C414.077 79.2236 415.554 80.7006 415.554 83.6544V95.3112C415.554 98.2651 414.077 99.742 411.123 99.742H404.135C401.181 99.742 399.704 98.2651 399.704 95.3112ZM401.697 95.6086C401.697 97.1549 402.48 97.9281 404.046 97.9281H411.242C412.788 97.9281 413.561 97.1549 413.561 95.6086V83.3571C413.561 81.8107 412.788 81.0376 411.242 81.0376H404.046C402.48 81.0376 401.697 81.8107 401.697 83.3571V95.6086ZM420.765 99.742V79.2236H430.4C433.353 79.2236 434.83 80.7006 434.83 83.6544V87.4905C434.83 90.4245 433.353 91.8915 430.4 91.8915H422.757V99.742H420.765ZM422.757 90.1073H430.518C432.065 90.1073 432.838 89.3242 432.838 87.7581V83.3571C432.838 81.8107 432.065 81.0376 430.518 81.0376H422.757V90.1073ZM438.545 98.8499V97.9281H447.703C449.25 97.9281 450.023 97.1549 450.023 95.6086V93.1107C450.023 91.8221 449.448 91.0589 448.298 90.821L441.756 89.4828C439.615 89.0665 438.545 87.6391 438.545 85.2007V83.6544C438.545 80.7006 440.022 79.2236 442.975 79.2236H450.29L451.42 80.1157V81.0376H442.886C441.32 81.0376 440.537 81.8107 440.537 83.3571V85.4089C440.537 86.7173 441.112 87.4905 442.262 87.7284L448.833 89.007C450.955 89.4432 452.015 90.8705 452.015 93.2891V95.3112C452.015 98.2651 450.538 99.742 447.585 99.742H439.704L438.545 98.8499Z" fill="white"/>
</g>
</g>
<defs>
<filter id="filter0_f_673_5986" x="559.789" y="-129.091" width="1726.42" height="1690.5" filterUnits="userSpaceOnUse" color-interpolation-filters="sRGB">
<feFlood flood-opacity="0" result="BackgroundImageFix"/>
<feBlend mode="normal" in="SourceGraphic" in2="BackgroundImageFix" result="shape"/>
<feGaussianBlur stdDeviation="225" result="effect1_foregroundBlur_673_5986"/>
</filter>
<linearGradient id="paint0_linear_673_5986" x1="1009.79" y1="1111.41" x2="1888.52" y2="1048.21" gradientUnits="userSpaceOnUse">
<stop stop-color="#EB5D47"/>
<stop offset="1" stop-color="#A933B2" stop-opacity="0.47"/>
</linearGradient>
<clipPath id="clip0_673_5986">
<rect width="2141" height="1384" fill="white"/>
</clipPath>
</defs>
</svg>
