<svg width="1728" height="1117" viewBox="0 0 1728 1117" fill="none" xmlns="http://www.w3.org/2000/svg">
<g clip-path="url(#clip0_405_748)">
<rect width="1728" height="1117" fill="black"/>
<g filter="url(#filter0_f_405_748)">
<ellipse cx="1249.5" cy="612" rx="333.5" ry="319" fill="url(#paint0_linear_405_748)"/>
</g>
<rect x="984" y="329" width="484" height="581" rx="30" fill="black"/>
<rect x="985.5" y="330.5" width="481" height="578" rx="28.5" stroke="#B0B0B0" stroke-opacity="0.3" stroke-width="3"/>
<path d="M1022.32 372.896V371.336H1029.74C1030.44 371.336 1030.79 370.992 1030.79 370.304V368.48C1030.79 367.872 1030.52 367.512 1029.98 367.4L1025.1 366.416C1023.25 366.048 1022.32 364.8 1022.32 362.672V361.352C1022.32 358.744 1023.62 357.44 1026.23 357.44H1031.82L1033.24 358.544V360.104H1026.3C1025.6 360.104 1025.25 360.448 1025.25 361.136V362.744C1025.25 363.352 1025.52 363.712 1026.06 363.824L1030.94 364.784C1032.79 365.168 1033.72 366.416 1033.72 368.528V370.088C1033.72 372.696 1032.42 374 1029.81 374H1023.74L1022.32 372.896ZM1036.84 378.8V361.4H1043.75C1046.26 361.4 1047.52 362.664 1047.52 365.192V370.208C1047.52 372.736 1046.26 374 1043.75 374H1039.65V378.8H1036.84ZM1039.65 371.552H1043.61C1044.34 371.552 1044.71 371.184 1044.71 370.448V364.952C1044.71 364.216 1044.34 363.848 1043.61 363.848H1039.65V371.552ZM1050.73 370.208V365.192C1050.73 362.664 1052 361.4 1054.53 361.4H1057.65C1060.16 361.4 1061.41 362.664 1061.41 365.192V368.744H1053.54V370.448C1053.54 371.184 1053.91 371.552 1054.65 371.552H1060.93V373.064L1059.66 374H1054.53C1052 374 1050.73 372.736 1050.73 370.208ZM1053.54 366.56H1058.61V364.952C1058.61 364.216 1058.24 363.848 1057.5 363.848H1054.65C1053.91 363.848 1053.54 364.216 1053.54 364.952V366.56ZM1064.82 374V361.4H1071.74C1074.25 361.4 1075.5 362.664 1075.5 365.192V374H1072.7V364.952C1072.7 364.216 1072.33 363.848 1071.59 363.848H1067.63V374H1064.82ZM1078.81 370.208V365.192C1078.81 362.664 1080.08 361.4 1082.6 361.4H1086.68V356.24H1089.49V374H1082.6C1080.08 374 1078.81 372.736 1078.81 370.208ZM1081.62 370.448C1081.62 371.184 1081.99 371.552 1082.72 371.552H1086.68V363.848H1082.72C1081.99 363.848 1081.62 364.216 1081.62 364.952V370.448Z" fill="#B0B0B0"/>
<path d="M1114.97 374V357.44H1122.79C1125.48 357.44 1126.82 358.784 1126.82 361.472V362.912C1126.82 363.456 1126.66 363.92 1126.34 364.304L1125.5 365.312L1126.51 366.152C1127.04 366.584 1127.3 367.224 1127.3 368.072V369.968C1127.3 372.656 1125.96 374 1123.27 374H1114.97ZM1118.42 370.88H1123.13C1123.61 370.88 1123.85 370.64 1123.85 370.16V367.76C1123.85 367.28 1123.61 367.04 1123.13 367.04H1118.42V370.88ZM1118.42 363.92H1122.65C1123.13 363.92 1123.37 363.68 1123.37 363.2V361.28C1123.37 360.8 1123.13 360.56 1122.65 360.56H1118.42V363.92ZM1130.29 370.112V361.328H1133.6V370.352C1133.6 370.864 1133.86 371.12 1134.37 371.12H1137.87V361.328H1141.18V374H1134.18C1131.58 374 1130.29 372.704 1130.29 370.112ZM1143.34 361.832L1143.67 361.328H1146.53L1149.46 371.12H1149.7L1152.63 361.328H1155.48L1155.82 361.832L1150.51 378.8H1147.66L1147.32 378.296L1148.76 374H1147.15L1143.34 361.832Z" fill="white"/>
<path d="M1180.06 604V593.344H1195.42V548.416H1182.85V542.176L1188.51 537.76H1207.14V593.344H1220.96V604H1180.06ZM1232.88 588.352V553.408C1232.88 542.976 1238.09 537.76 1248.52 537.76H1261.96C1272.4 537.76 1277.61 542.976 1277.61 553.408V588.352C1277.61 598.784 1272.4 604 1261.96 604H1248.52C1238.09 604 1232.88 598.784 1232.88 588.352ZM1244.68 589.216C1244.68 591.968 1246.06 593.344 1248.81 593.344H1261.68C1264.43 593.344 1265.8 591.968 1265.8 589.216V552.544C1265.8 549.792 1264.43 548.416 1261.68 548.416H1248.81C1246.06 548.416 1244.68 549.792 1244.68 552.544V589.216Z" fill="white"/>
<path d="M1322.93 576.368V571.472H1331.33V562.64H1336.42V571.472H1344.82V576.368H1336.42V585.2H1331.33V576.368H1322.93Z" fill="white"/>
<path d="M1123.92 577.808V572.912H1137.98V577.808H1123.92Z" fill="white"/>
<path d="M1021.41 774.157V772.27H1030.88V774.157H1027.19V784H1025.1V774.157H1021.41ZM1031.75 781.314V777.761C1031.75 775.97 1032.65 775.075 1034.44 775.075H1036.82C1038.6 775.075 1039.49 775.97 1039.49 777.761V781.314C1039.49 783.105 1038.6 784 1036.82 784H1034.44C1032.65 784 1031.75 783.105 1031.75 781.314ZM1033.74 781.484C1033.74 782.005 1034 782.266 1034.52 782.266H1036.72C1037.24 782.266 1037.5 782.005 1037.5 781.484V777.591C1037.5 777.07 1037.24 776.809 1036.72 776.809H1034.52C1034 776.809 1033.74 777.07 1033.74 777.591V781.484ZM1041.83 781.314V772.27H1043.82V775.075H1046.86V776.809H1043.82V781.484C1043.82 782.005 1044.08 782.266 1044.6 782.266H1047.03V783.337L1046.13 784H1044.52C1042.73 784 1041.83 783.105 1041.83 781.314ZM1051.13 784C1049.34 784 1048.44 783.116 1048.44 781.348C1048.44 779.58 1049.34 778.696 1051.13 778.696H1053.75V777.591C1053.75 777.07 1053.49 776.809 1052.97 776.809H1049.36V775.738L1050.25 775.075H1053.07C1054.85 775.075 1055.74 775.97 1055.74 777.761V784H1051.13ZM1050.43 781.484C1050.43 782.005 1050.69 782.266 1051.22 782.266H1053.75V780.243H1051.22C1050.69 780.243 1050.43 780.498 1050.43 781.008V781.484ZM1058.15 781.042V771.42H1060.14V781.246C1060.14 781.983 1060.51 782.379 1061.26 782.436V784.153C1059.19 784.153 1058.15 783.116 1058.15 781.042Z" fill="white"/>
<path d="M1381.43 788V786.113H1384.15V778.157H1381.92V777.052L1382.92 776.27H1386.22V786.113H1388.67V788H1381.43ZM1390.78 785.229V779.041C1390.78 777.194 1391.7 776.27 1393.55 776.27H1395.93C1397.78 776.27 1398.7 777.194 1398.7 779.041V785.229C1398.7 787.076 1397.78 788 1395.93 788H1393.55C1391.7 788 1390.78 787.076 1390.78 785.229ZM1392.87 785.382C1392.87 785.869 1393.11 786.113 1393.6 786.113H1395.88C1396.37 786.113 1396.61 785.869 1396.61 785.382V778.888C1396.61 778.401 1396.37 778.157 1395.88 778.157H1393.6C1393.11 778.157 1392.87 778.401 1392.87 778.888V785.382ZM1405.08 785.229V776.27H1407.16V785.382C1407.16 785.869 1407.41 786.113 1407.91 786.113H1411.36C1411.85 786.113 1412.1 785.869 1412.1 785.382V776.27H1414.18V785.229C1414.18 787.076 1413.25 788 1411.41 788H1407.85C1406.01 788 1405.08 787.076 1405.08 785.229ZM1416.46 787.218V786.113H1421.72C1422.21 786.113 1422.46 785.869 1422.46 785.382V784.09C1422.46 783.659 1422.27 783.404 1421.89 783.325L1418.43 782.628C1417.12 782.367 1416.46 781.483 1416.46 779.976V779.041C1416.46 777.194 1417.39 776.27 1419.23 776.27H1423.19L1424.2 777.052V778.157H1419.28C1418.79 778.157 1418.54 778.401 1418.54 778.888V780.027C1418.54 780.458 1418.73 780.713 1419.11 780.792L1422.57 781.472C1423.88 781.744 1424.54 782.628 1424.54 784.124V785.229C1424.54 787.076 1423.61 788 1421.77 788H1417.47L1416.46 787.218ZM1426.92 788V776.27H1431.42C1434.48 776.27 1436.01 777.806 1436.01 780.877V783.393C1436.01 786.464 1434.48 788 1431.42 788H1426.92ZM1428.99 786.113H1431.54C1433.14 786.113 1433.94 785.314 1433.94 783.716V780.554C1433.94 778.956 1433.14 778.157 1431.54 778.157H1428.99V786.113ZM1437.52 778.157V776.27H1446.99V778.157H1443.3V788H1441.21V778.157H1437.52Z" fill="white"/>
<line x1="1026" y1="753.5" x2="1442" y2="754.481" stroke="white" stroke-dasharray="2 2"/>
<rect width="426" height="55" transform="translate(1013 815)" fill="#EB5D47" fill-opacity="0.2"/>
<path d="M1208.2 848V834.2H1214.64C1216.81 834.2 1217.9 835.287 1217.9 837.46V838.72C1217.9 839.173 1217.77 839.56 1217.5 839.88L1216.8 840.72L1217.64 841.42C1218.08 841.78 1218.3 842.313 1218.3 843.02V844.74C1218.3 846.913 1217.21 848 1215.04 848H1208.2ZM1210.64 845.78H1214.98C1215.57 845.78 1215.86 845.493 1215.86 844.92V842.82C1215.86 842.247 1215.57 841.96 1214.98 841.96H1210.64V845.78ZM1210.64 839.74H1214.58C1215.17 839.74 1215.46 839.447 1215.46 838.86V837.28C1215.46 836.707 1215.17 836.42 1214.58 836.42H1210.64V839.74ZM1221.07 844.74V834.2H1223.51V844.92C1223.51 845.493 1223.8 845.78 1224.39 845.78H1228.45C1229.03 845.78 1229.33 845.493 1229.33 844.92V834.2H1231.77V844.74C1231.77 846.913 1230.68 848 1228.51 848H1224.33C1222.15 848 1221.07 846.913 1221.07 844.74ZM1233.74 834.68L1234.04 834.2H1236.12L1239.38 840.46L1242.66 834.2H1244.76L1245.04 834.68L1240.62 843.04V848H1238.16V843.04L1233.74 834.68Z" fill="#EB5D47"/>
<g filter="url(#filter1_b_405_748)">
<rect width="1725" height="137" fill="black" fill-opacity="0.04"/>
<rect width="188" height="55" transform="translate(1230.5 40)" fill="#EB5D47" fill-opacity="0.2"/>
<path d="M1287.18 73V70.78H1290.38V61.42H1287.76V60.12L1288.94 59.2H1292.82V70.78H1295.7V73H1287.18ZM1298.18 69.74V62.46C1298.18 60.2867 1299.27 59.2 1301.44 59.2H1304.24C1306.42 59.2 1307.5 60.2867 1307.5 62.46V69.74C1307.5 71.9133 1306.42 73 1304.24 73H1301.44C1299.27 73 1298.18 71.9133 1298.18 69.74ZM1300.64 69.92C1300.64 70.4933 1300.93 70.78 1301.5 70.78H1304.18C1304.76 70.78 1305.04 70.4933 1305.04 69.92V62.28C1305.04 61.7067 1304.76 61.42 1304.18 61.42H1301.5C1300.93 61.42 1300.64 61.7067 1300.64 62.28V69.92ZM1314.93 69.74V62.46C1314.93 60.2867 1316.02 59.2 1318.19 59.2H1323.63L1324.81 60.12V61.42H1318.25C1317.66 61.42 1317.37 61.7067 1317.37 62.28V69.92C1317.37 70.4933 1317.66 70.78 1318.25 70.78H1324.81V72.08L1323.63 73H1318.19C1316.02 73 1314.93 71.9133 1314.93 69.74ZM1327.31 69.74V62.46C1327.31 60.2867 1328.4 59.2 1330.57 59.2H1335.15C1337.33 59.2 1338.41 60.2867 1338.41 62.46V69.74C1338.41 71.9133 1337.33 73 1335.15 73H1330.57C1328.4 73 1327.31 71.9133 1327.31 69.74ZM1329.75 69.92C1329.75 70.4933 1330.05 70.78 1330.63 70.78H1335.09C1335.68 70.78 1335.97 70.4933 1335.97 69.92V62.28C1335.97 61.7067 1335.68 61.42 1335.09 61.42H1330.63C1330.05 61.42 1329.75 61.7067 1329.75 62.28V69.92ZM1341.61 73V59.2H1350.89V61.42H1344.05V65.34H1350.29V67.56H1344.05V73H1341.61ZM1353.2 73V59.2H1362.48V61.42H1355.64V65.34H1361.88V67.56H1355.64V73H1353.2Z" fill="#EB5D47"/>
<path d="M101.8 71.088V62.352C101.8 59.744 103.104 58.44 105.712 58.44H112.24L113.656 59.544V61.104H105.784C105.08 61.104 104.728 61.448 104.728 62.136V71.304C104.728 71.992 105.08 72.336 105.784 72.336H113.656V73.896L112.24 75H105.712C103.104 75 101.8 73.696 101.8 71.088ZM116.659 71.088V62.352C116.659 59.744 117.963 58.44 120.571 58.44H126.067C128.675 58.44 129.979 59.744 129.979 62.352V71.088C129.979 73.696 128.675 75 126.067 75H120.571C117.963 75 116.659 73.696 116.659 71.088ZM119.587 71.304C119.587 71.992 119.939 72.336 120.643 72.336H125.995C126.699 72.336 127.051 71.992 127.051 71.304V62.136C127.051 61.448 126.699 61.104 125.995 61.104H120.643C119.939 61.104 119.587 61.448 119.587 62.136V71.304ZM133.821 75V58.44H144.957V61.104H136.749V65.808H144.237V68.472H136.749V75H133.821ZM147.72 75V58.44H158.856V61.104H150.648V65.808H158.136V68.472H150.648V75H147.72Z" fill="white"/>
<path d="M1484.34 71.088V62.352C1484.34 59.744 1485.65 58.44 1488.26 58.44H1491.62C1494.22 58.44 1495.53 59.744 1495.53 62.352V71.088C1495.53 73.696 1494.22 75 1491.62 75H1488.26C1485.65 75 1484.34 73.696 1484.34 71.088ZM1487.3 71.304C1487.3 71.992 1487.64 72.336 1488.33 72.336H1491.54C1492.23 72.336 1492.58 71.992 1492.58 71.304V62.136C1492.58 61.448 1492.23 61.104 1491.54 61.104H1488.33C1487.64 61.104 1487.3 61.448 1487.3 62.136V71.304ZM1498.22 71.088V62.352C1498.22 59.744 1499.52 58.44 1502.13 58.44H1505.49C1508.1 58.44 1509.4 59.744 1509.4 62.352V71.088C1509.4 73.696 1508.1 75 1505.49 75H1502.13C1499.52 75 1498.22 73.696 1498.22 71.088ZM1501.17 71.304C1501.17 71.992 1501.52 72.336 1502.2 72.336H1505.42C1506.11 72.336 1506.45 71.992 1506.45 71.304V62.136C1506.45 61.448 1506.11 61.104 1505.42 61.104H1502.2C1501.52 61.104 1501.17 61.448 1501.17 62.136V71.304ZM1512.09 71.088V62.352C1512.09 59.744 1513.4 58.44 1516.01 58.44H1519.37C1521.97 58.44 1523.28 59.744 1523.28 62.352V71.088C1523.28 73.696 1521.97 75 1519.37 75H1516.01C1513.4 75 1512.09 73.696 1512.09 71.088ZM1515.05 71.304C1515.05 71.992 1515.39 72.336 1516.08 72.336H1519.29C1519.98 72.336 1520.33 71.992 1520.33 71.304V62.136C1520.33 61.448 1519.98 61.104 1519.29 61.104H1516.08C1515.39 61.104 1515.05 61.448 1515.05 62.136V71.304ZM1525.97 71.088V62.352C1525.97 59.744 1527.27 58.44 1529.88 58.44H1533.24C1535.85 58.44 1537.15 59.744 1537.15 62.352V71.088C1537.15 73.696 1535.85 75 1533.24 75H1529.88C1527.27 75 1525.97 73.696 1525.97 71.088ZM1528.92 71.304C1528.92 71.992 1529.27 72.336 1529.95 72.336H1533.17C1533.86 72.336 1534.2 71.992 1534.2 71.304V62.136C1534.2 61.448 1533.86 61.104 1533.17 61.104H1529.95C1529.27 61.104 1528.92 61.448 1528.92 62.136V71.304ZM1540.2 75V71.88H1543.32V75H1540.2ZM1546.72 75V71.88H1549.84V75H1546.72ZM1553.24 75V71.88H1556.36V75H1553.24ZM1559.39 71.088V62.352C1559.39 59.744 1560.69 58.44 1563.3 58.44H1566.66C1569.27 58.44 1570.57 59.744 1570.57 62.352V71.088C1570.57 73.696 1569.27 75 1566.66 75H1563.3C1560.69 75 1559.39 73.696 1559.39 71.088ZM1562.34 71.304C1562.34 71.992 1562.69 72.336 1563.37 72.336H1566.59C1567.28 72.336 1567.62 71.992 1567.62 71.304V62.136C1567.62 61.448 1567.28 61.104 1566.59 61.104H1563.37C1562.69 61.104 1562.34 61.448 1562.34 62.136V71.304ZM1573.27 71.088V62.352C1573.27 59.744 1574.57 58.44 1577.18 58.44H1580.54C1583.15 58.44 1584.45 59.744 1584.45 62.352V71.088C1584.45 73.696 1583.15 75 1580.54 75H1577.18C1574.57 75 1573.27 73.696 1573.27 71.088ZM1576.22 71.304C1576.22 71.992 1576.56 72.336 1577.25 72.336H1580.47C1581.15 72.336 1581.5 71.992 1581.5 71.304V62.136C1581.5 61.448 1581.15 61.104 1580.47 61.104H1577.25C1576.56 61.104 1576.22 61.448 1576.22 62.136V71.304ZM1587.14 71.088V62.352C1587.14 59.744 1588.44 58.44 1591.05 58.44H1594.41C1597.02 58.44 1598.32 59.744 1598.32 62.352V71.088C1598.32 73.696 1597.02 75 1594.41 75H1591.05C1588.44 75 1587.14 73.696 1587.14 71.088ZM1590.09 71.304C1590.09 71.992 1590.44 72.336 1591.12 72.336H1594.34C1595.03 72.336 1595.37 71.992 1595.37 71.304V62.136C1595.37 61.448 1595.03 61.104 1594.34 61.104H1591.12C1590.44 61.104 1590.09 61.448 1590.09 62.136V71.304ZM1601.02 71.088V62.352C1601.02 59.744 1602.32 58.44 1604.93 58.44H1608.29C1610.9 58.44 1612.2 59.744 1612.2 62.352V71.088C1612.2 73.696 1610.9 75 1608.29 75H1604.93C1602.32 75 1601.02 73.696 1601.02 71.088ZM1603.97 71.304C1603.97 71.992 1604.31 72.336 1605 72.336H1608.22C1608.9 72.336 1609.25 71.992 1609.25 71.304V62.136C1609.25 61.448 1608.9 61.104 1608.22 61.104H1605C1604.31 61.104 1603.97 61.448 1603.97 62.136V71.304ZM1614.89 71.088V62.352C1614.89 59.744 1616.19 58.44 1618.8 58.44H1622.16C1624.77 58.44 1626.07 59.744 1626.07 62.352V71.088C1626.07 73.696 1624.77 75 1622.16 75H1618.8C1616.19 75 1614.89 73.696 1614.89 71.088ZM1617.84 71.304C1617.84 71.992 1618.19 72.336 1618.87 72.336H1622.09C1622.78 72.336 1623.12 71.992 1623.12 71.304V62.136C1623.12 61.448 1622.78 61.104 1622.09 61.104H1618.87C1618.19 61.104 1617.84 61.448 1617.84 62.136V71.304Z" fill="white"/>
</g>
<path d="M106.64 660.8V656.64H131.28C134.32 656.64 135.84 655.147 135.84 652.16V645.84C135.84 643.227 134.693 641.707 132.4 641.28L115.68 637.84C109.653 636.667 106.64 632.64 106.64 625.76V621.44C106.64 613.013 110.827 608.8 119.2 608.8H138.24L142.32 612V616.16H119.28C116.24 616.16 114.72 617.653 114.72 620.64V626.08C114.72 628.693 115.867 630.213 118.16 630.64L134.96 633.92C140.933 635.2 143.92 639.253 143.92 646.08V651.36C143.92 659.787 139.733 664 131.36 664H110.72L106.64 660.8ZM154.803 680V622.24H177.443C185.603 622.24 189.682 626.32 189.682 634.48V651.68C189.682 659.893 185.603 664 177.443 664H162.563V680H154.803ZM162.563 657.2H177.283C180.376 657.2 181.923 655.627 181.923 652.48V633.68C181.923 630.587 180.376 629.04 177.283 629.04H162.563V657.2ZM200.881 651.68V634.48C200.881 626.32 204.961 622.24 213.121 622.24H223.521C231.681 622.24 235.761 626.32 235.761 634.48V646H208.641V652.48C208.641 655.627 210.215 657.2 213.361 657.2H234.161V661.28L230.561 664H213.121C204.961 664 200.881 659.893 200.881 651.68ZM208.641 639.92H228.001V633.68C228.001 630.587 226.455 629.04 223.361 629.04H213.361C210.215 629.04 208.641 630.587 208.641 633.68V639.92ZM247.615 664V622.24H270.255C278.415 622.24 282.495 626.32 282.495 634.48V664H274.735V633.68C274.735 630.587 273.188 629.04 270.095 629.04H255.375V664H247.615ZM294.006 651.68V634.48C294.006 626.32 298.086 622.24 306.246 622.24H321.126V604.8H328.886V664H306.246C298.086 664 294.006 659.893 294.006 651.68ZM301.766 652.48C301.766 655.627 303.34 657.2 306.486 657.2H321.126V629.04H306.486C303.34 629.04 301.766 630.587 301.766 633.68V652.48ZM370.664 664C362.45 664 358.344 659.92 358.344 651.76C358.344 643.6 362.45 639.52 370.664 639.52H384.184V633.68C384.184 630.587 382.637 629.04 379.544 629.04H362.424V624.96L366.104 622.24H379.704C387.864 622.24 391.944 626.32 391.944 634.48V664H370.664ZM366.104 652.48C366.104 655.627 367.677 657.2 370.824 657.2H384.184V645.6H370.824C367.677 645.6 366.104 647.173 366.104 650.32V652.48ZM423.078 650.96V621.84C423.078 613.147 427.425 608.8 436.118 608.8H457.878L462.598 612.48V617.68H436.358C434.011 617.68 432.838 618.827 432.838 621.12V651.68C432.838 653.973 434.011 655.12 436.358 655.12H462.598V660.32L457.878 664H436.118C427.425 664 423.078 659.653 423.078 650.96ZM472.609 650.96V621.84C472.609 613.147 476.956 608.8 485.649 608.8H503.969C512.663 608.8 517.009 613.147 517.009 621.84V650.96C517.009 659.653 512.663 664 503.969 664H485.649C476.956 664 472.609 659.653 472.609 650.96ZM482.369 651.68C482.369 653.973 483.543 655.12 485.889 655.12H503.729C506.076 655.12 507.249 653.973 507.249 651.68V621.12C507.249 618.827 506.076 617.68 503.729 617.68H485.889C483.543 617.68 482.369 618.827 482.369 621.12V651.68ZM529.816 664V608.8H566.936V617.68H539.576V633.36H564.536V642.24H539.576V664H529.816ZM576.144 664V608.8H613.264V617.68H585.904V633.36H610.864V642.24H585.904V664H576.144ZM617.992 674L622.552 654.56H630.232L631.032 655.84L623.912 675.44L617.992 674ZM107.6 751.68V734.48C107.6 726.32 111.68 722.24 119.84 722.24H130.24C138.4 722.24 142.48 726.32 142.48 734.48V746H115.36V752.48C115.36 755.627 116.933 757.2 120.08 757.2H140.88V761.28L137.28 764H119.84C111.68 764 107.6 759.893 107.6 751.68ZM115.36 739.92H134.72V733.68C134.72 730.587 133.173 729.04 130.08 729.04H120.08C116.933 729.04 115.36 730.587 115.36 733.68V739.92ZM154.334 764V722.24H176.974C185.134 722.24 189.214 726.32 189.214 734.48V764H181.454V733.68C181.454 730.587 179.907 729.04 176.814 729.04H162.094V764H154.334ZM194.405 774.08C199.045 773.92 201.365 771.52 201.365 766.88V722.24H209.125V766C209.125 775.813 204.218 780.72 194.405 780.72V774.08ZM201.045 714.72V706.24H209.365V714.72H201.045ZM220.959 751.68V734.48C220.959 726.32 225.039 722.24 233.199 722.24H244.399C252.559 722.24 256.639 726.32 256.639 734.48V751.68C256.639 759.893 252.559 764 244.399 764H233.199C225.039 764 220.959 759.893 220.959 751.68ZM228.719 752.48C228.719 755.627 230.293 757.2 233.439 757.2H244.239C247.333 757.2 248.879 755.627 248.879 752.48V733.68C248.879 730.587 247.333 729.04 244.239 729.04H233.439C230.293 729.04 228.719 730.587 228.719 733.68V752.48ZM263.754 723.52L264.634 722.24H271.354L282.714 757.2H284.154L295.594 722.24H302.234L303.114 723.52L284.154 780H277.434L276.634 778.72L281.834 764H277.434L263.754 723.52ZM340.195 764C331.982 764 327.875 759.92 327.875 751.76C327.875 743.6 331.982 739.52 340.195 739.52H353.715V733.68C353.715 730.587 352.168 729.04 349.075 729.04H331.955V724.96L335.635 722.24H349.235C357.395 722.24 361.475 726.32 361.475 734.48V764H340.195ZM335.635 752.48C335.635 755.627 337.208 757.2 340.355 757.2H353.715V745.6H340.355C337.208 745.6 335.635 747.173 335.635 750.32V752.48ZM392.209 751.68V734.48C392.209 726.32 396.289 722.24 404.449 722.24H419.889L423.569 724.96V729.04H404.689C401.543 729.04 399.969 730.587 399.969 733.68V752.48C399.969 755.627 401.543 757.2 404.689 757.2H423.569V761.28L419.889 764H404.449C396.289 764 392.209 759.893 392.209 751.68ZM432.834 751.68V734.48C432.834 726.32 436.914 722.24 445.074 722.24H456.274C464.434 722.24 468.514 726.32 468.514 734.48V751.68C468.514 759.893 464.434 764 456.274 764H445.074C436.914 764 432.834 759.893 432.834 751.68ZM440.594 752.48C440.594 755.627 442.168 757.2 445.314 757.2H456.114C459.208 757.2 460.754 755.627 460.754 752.48V733.68C460.754 730.587 459.208 729.04 456.114 729.04H445.314C442.168 729.04 440.594 730.587 440.594 733.68V752.48ZM479.709 751.68V734.48C479.709 726.32 483.789 722.24 491.949 722.24H503.149C511.309 722.24 515.389 726.32 515.389 734.48V751.68C515.389 759.893 511.309 764 503.149 764H491.949C483.789 764 479.709 759.893 479.709 751.68ZM487.469 752.48C487.469 755.627 489.043 757.2 492.189 757.2H502.989C506.083 757.2 507.629 755.627 507.629 752.48V733.68C507.629 730.587 506.083 729.04 502.989 729.04H492.189C489.043 729.04 487.469 730.587 487.469 733.68V752.48ZM527.224 764V717.12C527.224 708.907 531.304 704.8 539.464 704.8H546.904L550.584 707.52V711.6H539.704C536.558 711.6 534.984 713.173 534.984 716.32V722.24H549.784V729.04H534.984V764H527.224ZM558.396 764V717.12C558.396 708.907 562.476 704.8 570.636 704.8H578.076L581.756 707.52V711.6H570.876C567.73 711.6 566.156 713.173 566.156 716.32V722.24H580.956V729.04H566.156V764H558.396ZM588.928 751.68V734.48C588.928 726.32 593.008 722.24 601.168 722.24H611.568C619.728 722.24 623.808 726.32 623.808 734.48V746H596.688V752.48C596.688 755.627 598.261 757.2 601.408 757.2H622.208V761.28L618.608 764H601.168C593.008 764 588.928 759.893 588.928 751.68ZM596.688 739.92H616.048V733.68C616.048 730.587 614.501 729.04 611.408 729.04H601.408C598.261 729.04 596.688 730.587 596.688 733.68V739.92Z" fill="white"/>
<path d="M105.24 834V809.16H121.44V811.896H108.264V819.6H120.36V822.336H108.264V831.264H121.44V834H105.24ZM130.542 834C126.918 834 125.106 832.188 125.106 828.564C125.106 824.94 126.918 823.128 130.542 823.128H137.13V820.32C137.13 818.64 136.29 817.8 134.61 817.8H126.906V816.36L128.346 815.28H134.61C138.21 815.28 140.01 817.08 140.01 820.68V834H130.542ZM127.986 828.96C127.986 830.64 128.826 831.48 130.506 831.48H137.13V825.468H130.506C128.826 825.468 127.986 826.308 127.986 827.988V828.96ZM144.906 832.92V831.48H153.222C154.878 831.48 155.706 830.64 155.706 828.96C155.706 827.256 155.046 826.296 153.726 826.08L149.442 825.36C146.418 824.856 144.906 823.212 144.906 820.428C144.906 816.996 146.706 815.28 150.306 815.28H156.318L157.758 816.36V817.8H150.27C148.59 817.8 147.75 818.64 147.75 820.32C147.75 821.832 148.458 822.708 149.874 822.948L154.158 823.668C157.134 824.148 158.622 825.864 158.622 828.816C158.622 832.272 156.798 834 153.15 834H146.346L144.906 832.92ZM161.466 815.784L161.79 815.28H164.274L169.746 831.48H170.466L175.938 815.28H178.422L178.746 815.784L169.962 841.2H167.478L167.154 840.696L169.566 834H167.766L161.466 815.784ZM179.898 838.5L181.914 830.112H184.83L185.154 830.652L182.13 839.04L179.898 838.5ZM199.338 828.6V820.68C199.338 817.08 201.138 815.28 204.738 815.28H211.794L213.234 816.36V817.8H204.738C203.058 817.8 202.218 818.64 202.218 820.32V828.96C202.218 830.64 203.058 831.48 204.738 831.48H213.234V832.92L211.794 834H204.738C201.138 834 199.338 832.2 199.338 828.6ZM217.479 828.6V820.68C217.479 817.08 219.279 815.28 222.879 815.28H227.919C231.519 815.28 233.319 817.08 233.319 820.68V828.6C233.319 832.2 231.519 834 227.919 834H222.879C219.279 834 217.479 832.2 217.479 828.6ZM220.359 828.96C220.359 830.64 221.199 831.48 222.879 831.48H227.919C229.599 831.48 230.439 830.64 230.439 828.96V820.32C230.439 818.64 229.599 817.8 227.919 817.8H222.879C221.199 817.8 220.359 818.64 220.359 820.32V828.96ZM238.79 834V815.28H248.87C252.47 815.28 254.27 817.08 254.27 820.68V834H251.39V820.32C251.39 818.64 250.55 817.8 248.87 817.8H241.67V834H238.79ZM259.74 828.6V809.16H262.62V815.28H269.46V817.8H262.62V828.96C262.62 830.64 263.46 831.48 265.14 831.48H269.82V832.92L268.38 834H265.14C261.54 834 259.74 832.2 259.74 828.6ZM278.41 834C274.786 834 272.974 832.188 272.974 828.564C272.974 824.94 274.786 823.128 278.41 823.128H284.998V820.32C284.998 818.64 284.158 817.8 282.478 817.8H274.774V816.36L276.214 815.28H282.478C286.078 815.28 287.878 817.08 287.878 820.68V834H278.41ZM275.854 828.96C275.854 830.64 276.694 831.48 278.374 831.48H284.998V825.468H278.374C276.694 825.468 275.854 826.308 275.854 827.988V828.96ZM293.205 828.6V820.68C293.205 817.08 295.005 815.28 298.605 815.28H305.661L307.101 816.36V817.8H298.605C296.925 817.8 296.085 818.64 296.085 820.32V828.96C296.085 830.64 296.925 831.48 298.605 831.48H307.101V832.92L305.661 834H298.605C295.005 834 293.205 832.2 293.205 828.6ZM311.49 828.888V807.36H314.37V829.176C314.37 830.832 315.21 831.708 316.89 831.804V834.288C313.29 834.288 311.49 832.488 311.49 828.888ZM320.697 828.6V820.68C320.697 817.08 322.497 815.28 326.097 815.28H330.777C334.377 815.28 336.177 817.08 336.177 820.68V825.756H323.577V828.96C323.577 830.64 324.417 831.48 326.097 831.48H335.457V832.92L334.017 834H326.097C322.497 834 320.697 832.2 320.697 828.6ZM323.577 823.416H333.297V820.32C333.297 818.64 332.457 817.8 330.777 817.8H326.097C324.417 817.8 323.577 818.64 323.577 820.32V823.416ZM340.937 832.92V831.48H349.253C350.909 831.48 351.737 830.64 351.737 828.96C351.737 827.256 351.077 826.296 349.757 826.08L345.473 825.36C342.449 824.856 340.937 823.212 340.937 820.428C340.937 816.996 342.737 815.28 346.337 815.28H352.349L353.789 816.36V817.8H346.301C344.621 817.8 343.781 818.64 343.781 820.32C343.781 821.832 344.489 822.708 345.905 822.948L350.189 823.668C353.165 824.148 354.653 825.864 354.653 828.816C354.653 832.272 352.829 834 349.181 834H342.377L340.937 832.92ZM358.937 832.92V831.48H367.253C368.909 831.48 369.737 830.64 369.737 828.96C369.737 827.256 369.077 826.296 367.757 826.08L363.473 825.36C360.449 824.856 358.937 823.212 358.937 820.428C358.937 816.996 360.737 815.28 364.337 815.28H370.349L371.789 816.36V817.8H364.301C362.621 817.8 361.781 818.64 361.781 820.32C361.781 821.832 362.489 822.708 363.905 822.948L368.189 823.668C371.165 824.148 372.653 825.864 372.653 828.816C372.653 832.272 370.829 834 367.181 834H360.377L358.937 832.92ZM375.929 838.5L377.945 830.112H380.861L381.185 830.652L378.161 839.04L375.929 838.5ZM395.369 828.6V820.68C395.369 817.08 397.169 815.28 400.769 815.28H407.969V807.36H410.849V834H400.769C397.169 834 395.369 832.2 395.369 828.6ZM398.249 828.96C398.249 830.64 399.089 831.48 400.769 831.48H407.969V817.8H400.769C399.089 817.8 398.249 818.64 398.249 820.32V828.96ZM416.322 828.6V820.68C416.322 817.08 418.122 815.28 421.722 815.28H426.402C430.002 815.28 431.802 817.08 431.802 820.68V825.756H419.202V828.96C419.202 830.64 420.042 831.48 421.722 831.48H431.082V832.92L429.642 834H421.722C418.122 834 416.322 832.2 416.322 828.6ZM419.202 823.416H428.922V820.32C428.922 818.64 428.082 817.8 426.402 817.8H421.722C420.042 817.8 419.202 818.64 419.202 820.32V823.416ZM436.994 828.6V820.68C436.994 817.08 438.794 815.28 442.394 815.28H449.45L450.89 816.36V817.8H442.394C440.714 817.8 439.874 818.64 439.874 820.32V828.96C439.874 830.64 440.714 831.48 442.394 831.48H450.89V832.92L449.45 834H442.394C438.794 834 436.994 832.2 436.994 828.6ZM455.135 828.6V820.68C455.135 817.08 456.935 815.28 460.535 815.28H465.215C468.815 815.28 470.615 817.08 470.615 820.68V825.756H458.015V828.96C458.015 830.64 458.855 831.48 460.535 831.48H469.895V832.92L468.455 834H460.535C456.935 834 455.135 832.2 455.135 828.6ZM458.015 823.416H467.735V820.32C467.735 818.64 466.895 817.8 465.215 817.8H460.535C458.855 817.8 458.015 818.64 458.015 820.32V823.416ZM476.095 834V815.28H486.175C489.775 815.28 491.575 817.08 491.575 820.68V834H488.695V820.32C488.695 818.64 487.855 817.8 486.175 817.8H478.975V834H476.095ZM497.045 828.6V809.16H499.925V815.28H506.765V817.8H499.925V828.96C499.925 830.64 500.765 831.48 502.445 831.48H507.125V832.92L505.685 834H502.445C498.845 834 497.045 832.2 497.045 828.6ZM511.142 834V817.44C511.982 816 513.542 815.28 515.822 815.28H519.422L520.862 816.36V817.8H516.218C515.21 817.8 514.478 818.076 514.022 818.628V834H511.142ZM528.757 834C525.133 834 523.321 832.188 523.321 828.564C523.321 824.94 525.133 823.128 528.757 823.128H535.345V820.32C535.345 818.64 534.505 817.8 532.825 817.8H525.121V816.36L526.561 815.28H532.825C536.425 815.28 538.225 817.08 538.225 820.68V834H528.757ZM526.201 828.96C526.201 830.64 527.041 831.48 528.721 831.48H535.345V825.468H528.721C527.041 825.468 526.201 826.308 526.201 827.988V828.96ZM543.697 828.888V807.36H546.577V829.176C546.577 830.832 547.417 831.708 549.097 831.804V834.288C545.497 834.288 543.697 832.488 543.697 828.888ZM553.049 811.788V808.404H556.217V811.788H553.049ZM553.193 834V815.28H556.073V834H553.193ZM560.761 834V831.768L571.525 817.8H561.121V815.28H575.161V817.512L564.397 831.48H575.521V834H560.761ZM579.905 828.6V820.68C579.905 817.08 581.705 815.28 585.305 815.28H589.985C593.585 815.28 595.385 817.08 595.385 820.68V825.756H582.785V828.96C582.785 830.64 583.625 831.48 585.305 831.48H594.665V832.92L593.225 834H585.305C581.705 834 579.905 832.2 579.905 828.6ZM582.785 823.416H592.505V820.32C592.505 818.64 591.665 817.8 589.985 817.8H585.305C583.625 817.8 582.785 818.64 582.785 820.32V823.416ZM600.576 828.6V820.68C600.576 817.08 602.376 815.28 605.976 815.28H613.176V807.36H616.056V834H605.976C602.376 834 600.576 832.2 600.576 828.6ZM603.456 828.96C603.456 830.64 604.296 831.48 605.976 831.48H613.176V817.8H605.976C604.296 817.8 603.456 818.64 603.456 820.32V828.96ZM620.09 838.5L622.106 830.112H625.022L625.346 830.652L622.322 839.04L620.09 838.5ZM639.53 828.6V820.68C639.53 817.08 641.33 815.28 644.93 815.28H655.01V835.8C655.01 839.4 653.21 841.2 649.61 841.2H642.41L640.97 840.12V838.68H649.61C651.29 838.68 652.13 837.84 652.13 836.16V834H644.93C641.33 834 639.53 832.2 639.53 828.6ZM642.41 828.96C642.41 830.64 643.25 831.48 644.93 831.48H652.13V817.8H644.93C643.25 817.8 642.41 818.64 642.41 820.32V828.96ZM660.627 834V817.44C661.467 816 663.027 815.28 665.307 815.28H668.907L670.347 816.36V817.8H665.703C664.695 817.8 663.963 818.076 663.507 818.628V834H660.627ZM673.877 828.6V820.68C673.877 817.08 675.677 815.28 679.277 815.28H683.957C687.557 815.28 689.357 817.08 689.357 820.68V825.756H676.757V828.96C676.757 830.64 677.597 831.48 679.277 831.48H688.637V832.92L687.197 834H679.277C675.677 834 673.877 832.2 673.877 828.6ZM676.757 823.416H686.477V820.32C686.477 818.64 685.637 817.8 683.957 817.8H679.277C677.597 817.8 676.757 818.64 676.757 820.32V823.416ZM694.549 828.6V820.68C694.549 817.08 696.349 815.28 699.949 815.28H704.629C708.229 815.28 710.029 817.08 710.029 820.68V825.756H697.429V828.96C697.429 830.64 698.269 831.48 699.949 831.48H709.309V832.92L707.869 834H699.949C696.349 834 694.549 832.2 694.549 828.6ZM697.429 823.416H707.149V820.32C707.149 818.64 706.309 817.8 704.629 817.8H699.949C698.269 817.8 697.429 818.64 697.429 820.32V823.416ZM715.509 834V815.28H725.589C729.189 815.28 730.989 817.08 730.989 820.68V834H728.109V820.32C728.109 818.64 727.269 817.8 725.589 817.8H718.389V834H715.509ZM736.675 834V830.112H740.167V834H736.675Z" fill="#B0B0B0"/>
<path d="M103.312 898V895.264H109.468V875.896H104.572V874.42L106.192 873.16H112.492V895.264H118.072V898H103.312ZM132.341 892.492V878.668C132.341 874.996 134.177 873.16 137.849 873.16H148.001L149.621 874.42V875.896H137.813C136.181 875.896 135.365 876.712 135.365 878.344V892.816C135.365 894.448 136.181 895.264 137.813 895.264H149.621V896.74L148.001 898H137.849C134.177 898 132.341 896.164 132.341 892.492ZM154.314 892.492V878.668C154.314 874.996 156.15 873.16 159.822 873.16H168.246C171.918 873.16 173.754 874.996 173.754 878.668V892.492C173.754 896.164 171.918 898 168.246 898H159.822C156.15 898 154.314 896.164 154.314 892.492ZM157.338 892.816C157.338 894.448 158.154 895.264 159.786 895.264H168.282C169.914 895.264 170.73 894.448 170.73 892.816V878.344C170.73 876.712 169.914 875.896 168.282 875.896H159.786C158.154 875.896 157.338 876.712 157.338 878.344V892.816ZM179.881 898V873.16H196.081V875.896H182.905V884.68H195.001V887.416H182.905V898H179.881ZM200.412 898V873.16H216.612V875.896H203.436V884.68H215.532V887.416H203.436V898H200.412ZM228.656 891.16V888.64H244.856V891.16H228.656ZM228.656 883.24V880.72H244.856V883.24H228.656ZM259.125 898V895.264H265.281V875.896H260.385V874.42L262.005 873.16H268.305V895.264H273.885V898H259.125ZM288.297 892.492V873.16H291.321V892.816C291.321 894.448 292.137 895.264 293.769 895.264H301.545C303.177 895.264 303.993 894.448 303.993 892.816V873.16H307.017V892.492C307.017 896.164 305.181 898 301.509 898H293.805C290.133 898 288.297 896.164 288.297 892.492ZM312.219 896.74V895.264H323.307C324.939 895.264 325.755 894.448 325.755 892.816V889.9C325.755 888.532 325.143 887.728 323.919 887.488L316.179 885.904C313.539 885.376 312.219 883.612 312.219 880.612V878.668C312.219 874.996 314.055 873.16 317.727 873.16H326.439L328.059 874.42V875.896H317.691C316.059 875.896 315.243 876.712 315.243 878.344V880.792C315.243 882.16 315.855 882.964 317.079 883.204L324.819 884.752C327.459 885.28 328.779 887.056 328.779 890.08V892.492C328.779 896.164 326.943 898 323.271 898H313.839L312.219 896.74ZM334.181 898V873.16H343.901C349.901 873.16 352.901 876.16 352.901 882.16V889C352.901 895 349.901 898 343.901 898H334.181ZM337.205 895.264H344.081C347.945 895.264 349.877 893.332 349.877 889.468V881.692C349.877 877.828 347.945 875.896 344.081 875.896H337.205V895.264ZM356.274 875.896V873.16H375.858V875.896H367.578V898H364.554V875.896H356.274Z" fill="#EB5D47"/>
</g>
<defs>
<filter id="filter0_f_405_748" x="466" y="-157" width="1567" height="1538" filterUnits="userSpaceOnUse" color-interpolation-filters="sRGB">
<feFlood flood-opacity="0" result="BackgroundImageFix"/>
<feBlend mode="normal" in="SourceGraphic" in2="BackgroundImageFix" result="shape"/>
<feGaussianBlur stdDeviation="225" result="effect1_foregroundBlur_405_748"/>
</filter>
<filter id="filter1_b_405_748" x="-31" y="-31" width="1787" height="199" filterUnits="userSpaceOnUse" color-interpolation-filters="sRGB">
<feFlood flood-opacity="0" result="BackgroundImageFix"/>
<feGaussianBlur in="BackgroundImageFix" stdDeviation="15.5"/>
<feComposite in2="SourceAlpha" operator="in" result="effect1_backgroundBlur_405_748"/>
<feBlend mode="normal" in="SourceGraphic" in2="effect1_backgroundBlur_405_748" result="shape"/>
</filter>
<linearGradient id="paint0_linear_405_748" x1="916" y1="931" x2="1625.22" y2="879.989" gradientUnits="userSpaceOnUse">
<stop stop-color="#EB5D47"/>
<stop offset="1" stop-color="#A933B2" stop-opacity="0.47"/>
</linearGradient>
<clipPath id="clip0_405_748">
<rect width="1728" height="1117" fill="white"/>
</clipPath>
</defs>
</svg>
