<svg width="1520" height="295" viewBox="0 0 1520 295" fill="none" xmlns="http://www.w3.org/2000/svg">
<path d="M1109.73 119.128C1109.73 122.968 1108.47 126.061 1105.95 128.408C1103.43 130.755 1099.66 131.928 1094.62 131.928H1085.6V151H1081.12V106.264H1094.62C1099.62 106.264 1103.37 107.437 1105.89 109.784C1108.45 112.131 1109.73 115.245 1109.73 119.128ZM1094.62 128.088C1101.62 128.088 1105.12 125.101 1105.12 119.128C1105.12 116.141 1104.29 113.88 1102.62 112.344C1100.96 110.808 1098.29 110.04 1094.62 110.04H1085.6V128.088H1094.62ZM1137.34 151.448C1133.2 151.448 1129.45 150.488 1126.08 148.568C1122.71 146.605 1120.04 143.896 1118.08 140.44C1116.16 136.941 1115.2 132.995 1115.2 128.6C1115.2 124.205 1116.16 120.28 1118.08 116.824C1120.04 113.325 1122.71 110.616 1126.08 108.696C1129.45 106.733 1133.2 105.752 1137.34 105.752C1141.52 105.752 1145.3 106.733 1148.67 108.696C1152.04 110.616 1154.69 113.325 1156.61 116.824C1158.53 120.28 1159.49 124.205 1159.49 128.6C1159.49 132.995 1158.53 136.941 1156.61 140.44C1154.69 143.896 1152.04 146.605 1148.67 148.568C1145.3 150.488 1141.52 151.448 1137.34 151.448ZM1137.34 147.544C1140.67 147.544 1143.66 146.776 1146.3 145.24C1148.95 143.704 1151.04 141.507 1152.57 138.648C1154.11 135.747 1154.88 132.397 1154.88 128.6C1154.88 124.803 1154.11 121.475 1152.57 118.616C1151.04 115.757 1148.95 113.56 1146.3 112.024C1143.66 110.488 1140.67 109.72 1137.34 109.72C1134.01 109.72 1131.03 110.488 1128.38 112.024C1125.74 113.56 1123.65 115.757 1122.11 118.616C1120.57 121.475 1119.81 124.803 1119.81 128.6C1119.81 132.397 1120.57 135.747 1122.11 138.648C1123.65 141.507 1125.74 143.704 1128.38 145.24C1131.03 146.776 1134.01 147.544 1137.34 147.544ZM1196.29 119.128C1196.29 122.968 1195.03 126.061 1192.51 128.408C1190 130.755 1186.22 131.928 1181.19 131.928H1172.16V151H1167.68V106.264H1181.19C1186.18 106.264 1189.93 107.437 1192.45 109.784C1195.01 112.131 1196.29 115.245 1196.29 119.128ZM1181.19 128.088C1188.18 128.088 1191.68 125.101 1191.68 119.128C1191.68 116.141 1190.85 113.88 1189.19 112.344C1187.52 110.808 1184.86 110.04 1181.19 110.04H1172.16V128.088H1181.19ZM1232.42 119.128C1232.42 122.968 1231.16 126.061 1228.64 128.408C1226.12 130.755 1222.35 131.928 1217.31 131.928H1208.29V151H1203.81V106.264H1217.31C1222.3 106.264 1226.06 107.437 1228.58 109.784C1231.14 112.131 1232.42 115.245 1232.42 119.128ZM1217.31 128.088C1224.31 128.088 1227.81 125.101 1227.81 119.128C1227.81 116.141 1226.98 113.88 1225.31 112.344C1223.65 110.808 1220.98 110.04 1217.31 110.04H1208.29V128.088H1217.31ZM1244.41 106.264V151H1239.93V106.264H1244.41ZM1288.29 151H1283.81L1259.04 113.368V151H1254.56V106.264H1259.04L1283.81 143.832V106.264H1288.29V151ZM1312 151.448C1309.06 151.448 1306.45 150.936 1304.19 149.912C1301.97 148.888 1300.22 147.459 1298.94 145.624C1297.66 143.789 1296.98 141.741 1296.9 139.48H1301.63C1301.85 141.656 1302.81 143.576 1304.51 145.24C1306.22 146.861 1308.72 147.672 1312 147.672C1315.03 147.672 1317.42 146.904 1319.17 145.368C1320.96 143.789 1321.86 141.805 1321.86 139.416C1321.86 137.496 1321.37 135.96 1320.38 134.808C1319.4 133.613 1318.19 132.739 1316.74 132.184C1315.29 131.587 1313.28 130.947 1310.72 130.264C1307.73 129.453 1305.37 128.664 1303.62 127.896C1301.87 127.128 1300.37 125.933 1299.14 124.312C1297.9 122.691 1297.28 120.493 1297.28 117.72C1297.28 115.416 1297.88 113.368 1299.07 111.576C1300.27 109.741 1301.95 108.312 1304.13 107.288C1306.3 106.264 1308.8 105.752 1311.62 105.752C1315.76 105.752 1319.08 106.776 1321.6 108.824C1324.16 110.829 1325.63 113.432 1326.02 116.632H1321.15C1320.85 114.797 1319.85 113.176 1318.14 111.768C1316.44 110.317 1314.13 109.592 1311.23 109.592C1308.54 109.592 1306.3 110.317 1304.51 111.768C1302.72 113.176 1301.82 115.117 1301.82 117.592C1301.82 119.469 1302.32 120.984 1303.3 122.136C1304.28 123.288 1305.49 124.163 1306.94 124.76C1308.44 125.357 1310.44 125.997 1312.96 126.68C1315.86 127.491 1318.21 128.301 1320 129.112C1321.79 129.88 1323.31 131.075 1324.54 132.696C1325.78 134.317 1326.4 136.493 1326.4 139.224C1326.4 141.315 1325.85 143.299 1324.74 145.176C1323.63 147.053 1321.98 148.568 1319.81 149.72C1317.63 150.872 1315.03 151.448 1312 151.448Z" fill="#696969"/>
<path d="M971.6 223.632H977.624V225H969.92V208.224H971.6V223.632ZM980.862 209.424C980.526 209.424 980.238 209.304 979.998 209.064C979.758 208.824 979.638 208.528 979.638 208.176C979.638 207.824 979.758 207.536 979.998 207.312C980.238 207.072 980.526 206.952 980.862 206.952C981.198 206.952 981.486 207.072 981.726 207.312C981.966 207.536 982.086 207.824 982.086 208.176C982.086 208.528 981.966 208.824 981.726 209.064C981.486 209.304 981.198 209.424 980.862 209.424ZM981.702 211.896V225H980.022V211.896H981.702ZM991.002 211.704C992.234 211.704 993.306 211.992 994.218 212.568C995.13 213.144 995.786 213.872 996.186 214.752V211.896H997.866V225.336C997.866 226.536 997.602 227.6 997.074 228.528C996.562 229.456 995.842 230.168 994.914 230.664C993.986 231.176 992.93 231.432 991.746 231.432C990.066 231.432 988.666 231.032 987.546 230.232C986.442 229.432 985.754 228.344 985.482 226.968H987.138C987.426 227.88 987.97 228.608 988.77 229.152C989.586 229.696 990.578 229.968 991.746 229.968C992.594 229.968 993.354 229.784 994.026 229.416C994.698 229.064 995.226 228.536 995.61 227.832C995.994 227.128 996.186 226.296 996.186 225.336V222.096C995.77 222.992 995.106 223.736 994.194 224.328C993.298 224.904 992.234 225.192 991.002 225.192C989.802 225.192 988.722 224.912 987.762 224.352C986.818 223.792 986.074 223 985.53 221.976C985.002 220.952 984.738 219.768 984.738 218.424C984.738 217.08 985.002 215.904 985.53 214.896C986.074 213.872 986.818 213.088 987.762 212.544C988.722 211.984 989.802 211.704 991.002 211.704ZM996.186 218.448C996.186 217.392 995.97 216.464 995.538 215.664C995.106 214.864 994.514 214.248 993.762 213.816C993.026 213.384 992.21 213.168 991.314 213.168C990.386 213.168 989.554 213.376 988.818 213.792C988.082 214.208 987.498 214.816 987.066 215.616C986.65 216.4 986.442 217.336 986.442 218.424C986.442 219.496 986.65 220.44 987.066 221.256C987.498 222.056 988.082 222.672 988.818 223.104C989.554 223.52 990.386 223.728 991.314 223.728C992.21 223.728 993.026 223.512 993.762 223.08C994.514 222.648 995.106 222.032 995.538 221.232C995.97 220.432 996.186 219.504 996.186 218.448ZM1007.94 211.656C1008.93 211.656 1009.82 211.864 1010.61 212.28C1011.41 212.696 1012.03 213.336 1012.48 214.2C1012.94 215.048 1013.17 216.088 1013.17 217.32V225H1011.52V217.512C1011.52 216.088 1011.16 215 1010.44 214.248C1009.73 213.496 1008.77 213.12 1007.53 213.12C1006.27 213.12 1005.26 213.52 1004.51 214.32C1003.76 215.12 1003.38 216.296 1003.38 217.848V225H1001.7V207.24H1003.38V214.128C1003.8 213.344 1004.41 212.736 1005.21 212.304C1006.02 211.872 1006.93 211.656 1007.94 211.656ZM1019.07 213.312V221.448C1019.07 222.248 1019.22 222.8 1019.53 223.104C1019.83 223.408 1020.37 223.56 1021.14 223.56H1022.67V225H1020.87C1019.69 225 1018.81 224.728 1018.23 224.184C1017.66 223.624 1017.37 222.712 1017.37 221.448V213.312H1015.54V211.896H1017.37V208.608H1019.07V211.896H1022.67V213.312H1019.07Z" fill="#696969"/>
<path d="M1146.66 221L1142.67 214.16H1140.03V221H1137.85V204.272H1143.25C1144.51 204.272 1145.58 204.488 1146.44 204.92C1147.32 205.352 1147.98 205.936 1148.41 206.672C1148.84 207.408 1149.06 208.248 1149.06 209.192C1149.06 210.344 1148.72 211.36 1148.05 212.24C1147.39 213.12 1146.4 213.704 1145.07 213.992L1149.27 221H1146.66ZM1140.03 212.408H1143.25C1144.43 212.408 1145.32 212.12 1145.91 211.544C1146.5 210.952 1146.8 210.168 1146.8 209.192C1146.8 208.2 1146.5 207.432 1145.91 206.888C1145.34 206.344 1144.45 206.072 1143.25 206.072H1140.03V212.408ZM1164.45 213.92C1164.45 214.336 1164.43 214.776 1164.38 215.24H1153.87C1153.95 216.536 1154.39 217.552 1155.19 218.288C1156 219.008 1156.99 219.368 1158.14 219.368C1159.08 219.368 1159.87 219.152 1160.49 218.72C1161.13 218.272 1161.58 217.68 1161.83 216.944H1164.19C1163.83 218.208 1163.13 219.24 1162.07 220.04C1161.02 220.824 1159.71 221.216 1158.14 221.216C1156.89 221.216 1155.77 220.936 1154.78 220.376C1153.8 219.816 1153.03 219.024 1152.47 218C1151.91 216.96 1151.63 215.76 1151.63 214.4C1151.63 213.04 1151.91 211.848 1152.45 210.824C1152.99 209.8 1153.75 209.016 1154.73 208.472C1155.72 207.912 1156.86 207.632 1158.14 207.632C1159.39 207.632 1160.49 207.904 1161.45 208.448C1162.41 208.992 1163.15 209.744 1163.66 210.704C1164.19 211.648 1164.45 212.72 1164.45 213.92ZM1162.19 213.464C1162.19 212.632 1162.01 211.92 1161.64 211.328C1161.27 210.72 1160.77 210.264 1160.13 209.96C1159.51 209.64 1158.81 209.48 1158.04 209.48C1156.94 209.48 1155.99 209.832 1155.21 210.536C1154.44 211.24 1154 212.216 1153.89 213.464H1162.19ZM1172.76 207.632C1173.89 207.632 1174.88 207.88 1175.73 208.376C1176.6 208.872 1177.24 209.496 1177.65 210.248V207.848H1179.86V221.288C1179.86 222.488 1179.6 223.552 1179.09 224.48C1178.58 225.424 1177.84 226.16 1176.88 226.688C1175.94 227.216 1174.84 227.48 1173.57 227.48C1171.84 227.48 1170.4 227.072 1169.25 226.256C1168.1 225.44 1167.42 224.328 1167.21 222.92H1169.37C1169.61 223.72 1170.11 224.36 1170.86 224.84C1171.61 225.336 1172.52 225.584 1173.57 225.584C1174.77 225.584 1175.75 225.208 1176.5 224.456C1177.27 223.704 1177.65 222.648 1177.65 221.288V218.528C1177.22 219.296 1176.58 219.936 1175.73 220.448C1174.88 220.96 1173.89 221.216 1172.76 221.216C1171.59 221.216 1170.52 220.928 1169.56 220.352C1168.62 219.776 1167.88 218.968 1167.33 217.928C1166.79 216.888 1166.52 215.704 1166.52 214.376C1166.52 213.032 1166.79 211.856 1167.33 210.848C1167.88 209.824 1168.62 209.032 1169.56 208.472C1170.52 207.912 1171.59 207.632 1172.76 207.632ZM1177.65 214.4C1177.65 213.408 1177.45 212.544 1177.05 211.808C1176.65 211.072 1176.11 210.512 1175.42 210.128C1174.75 209.728 1174 209.528 1173.19 209.528C1172.37 209.528 1171.63 209.72 1170.96 210.104C1170.28 210.488 1169.75 211.048 1169.35 211.784C1168.95 212.52 1168.75 213.384 1168.75 214.376C1168.75 215.384 1168.95 216.264 1169.35 217.016C1169.75 217.752 1170.28 218.32 1170.96 218.72C1171.63 219.104 1172.37 219.296 1173.19 219.296C1174 219.296 1174.75 219.104 1175.42 218.72C1176.11 218.32 1176.65 217.752 1177.05 217.016C1177.45 216.264 1177.65 215.392 1177.65 214.4ZM1195.22 207.848V221H1193.03V219.056C1192.62 219.728 1192.03 220.256 1191.28 220.64C1190.54 221.008 1189.73 221.192 1188.83 221.192C1187.81 221.192 1186.89 220.984 1186.07 220.568C1185.26 220.136 1184.61 219.496 1184.13 218.648C1183.66 217.8 1183.43 216.768 1183.43 215.552V207.848H1185.59V215.264C1185.59 216.56 1185.92 217.56 1186.58 218.264C1187.23 218.952 1188.13 219.296 1189.26 219.296C1190.43 219.296 1191.35 218.936 1192.02 218.216C1192.7 217.496 1193.03 216.448 1193.03 215.072V207.848H1195.22ZM1201.09 203.24V221H1198.9V203.24H1201.09ZM1203.99 214.376C1203.99 213.032 1204.26 211.856 1204.81 210.848C1205.35 209.824 1206.1 209.032 1207.04 208.472C1208 207.912 1209.06 207.632 1210.23 207.632C1211.38 207.632 1212.38 207.88 1213.23 208.376C1214.08 208.872 1214.71 209.496 1215.13 210.248V207.848H1217.34V221H1215.13V218.552C1214.7 219.32 1214.05 219.96 1213.18 220.472C1212.34 220.968 1211.34 221.216 1210.21 221.216C1209.04 221.216 1207.98 220.928 1207.04 220.352C1206.1 219.776 1205.35 218.968 1204.81 217.928C1204.26 216.888 1203.99 215.704 1203.99 214.376ZM1215.13 214.4C1215.13 213.408 1214.93 212.544 1214.53 211.808C1214.13 211.072 1213.58 210.512 1212.9 210.128C1212.22 209.728 1211.48 209.528 1210.66 209.528C1209.85 209.528 1209.1 209.72 1208.43 210.104C1207.76 210.488 1207.22 211.048 1206.82 211.784C1206.42 212.52 1206.22 213.384 1206.22 214.376C1206.22 215.384 1206.42 216.264 1206.82 217.016C1207.22 217.752 1207.76 218.32 1208.43 218.72C1209.1 219.104 1209.85 219.296 1210.66 219.296C1211.48 219.296 1212.22 219.104 1212.9 218.72C1213.58 218.32 1214.13 217.752 1214.53 217.016C1214.93 216.264 1215.13 215.392 1215.13 214.4ZM1223.21 209.984C1223.6 209.232 1224.14 208.648 1224.84 208.232C1225.56 207.816 1226.44 207.608 1227.46 207.608V209.864H1226.88C1224.44 209.864 1223.21 211.192 1223.21 213.848V221H1221.03V207.848H1223.21V209.984Z" fill="#696969"/>
<path d="M1338.82 208.392V225H1336.63V212.616L1331.11 225H1329.58L1324.03 212.592V225H1321.85V208.392H1324.2L1330.34 222.12L1336.49 208.392H1338.82ZM1354.52 217.92C1354.52 218.336 1354.5 218.776 1354.45 219.24H1343.94C1344.02 220.536 1344.46 221.552 1345.26 222.288C1346.07 223.008 1347.06 223.368 1348.21 223.368C1349.15 223.368 1349.94 223.152 1350.56 222.72C1351.2 222.272 1351.65 221.68 1351.9 220.944H1354.26C1353.9 222.208 1353.2 223.24 1352.14 224.04C1351.09 224.824 1349.78 225.216 1348.21 225.216C1346.96 225.216 1345.84 224.936 1344.85 224.376C1343.87 223.816 1343.1 223.024 1342.54 222C1341.98 220.96 1341.7 219.76 1341.7 218.4C1341.7 217.04 1341.98 215.848 1342.52 214.824C1343.06 213.8 1343.82 213.016 1344.8 212.472C1345.79 211.912 1346.93 211.632 1348.21 211.632C1349.46 211.632 1350.56 211.904 1351.52 212.448C1352.48 212.992 1353.22 213.744 1353.73 214.704C1354.26 215.648 1354.52 216.72 1354.52 217.92ZM1352.26 217.464C1352.26 216.632 1352.08 215.92 1351.71 215.328C1351.34 214.72 1350.84 214.264 1350.2 213.96C1349.58 213.64 1348.88 213.48 1348.11 213.48C1347.01 213.48 1346.06 213.832 1345.28 214.536C1344.51 215.24 1344.07 216.216 1343.96 217.464H1352.26ZM1356.59 218.376C1356.59 217.032 1356.86 215.856 1357.4 214.848C1357.95 213.824 1358.69 213.032 1359.63 212.472C1360.59 211.912 1361.67 211.632 1362.85 211.632C1363.87 211.632 1364.83 211.872 1365.71 212.352C1366.59 212.816 1367.26 213.432 1367.72 214.2V207.24H1369.93V225H1367.72V222.528C1367.29 223.312 1366.65 223.96 1365.8 224.472C1364.95 224.968 1363.96 225.216 1362.83 225.216C1361.66 225.216 1360.59 224.928 1359.63 224.352C1358.69 223.776 1357.95 222.968 1357.4 221.928C1356.86 220.888 1356.59 219.704 1356.59 218.376ZM1367.72 218.4C1367.72 217.408 1367.52 216.544 1367.12 215.808C1366.72 215.072 1366.18 214.512 1365.49 214.128C1364.82 213.728 1364.07 213.528 1363.26 213.528C1362.44 213.528 1361.7 213.72 1361.03 214.104C1360.35 214.488 1359.82 215.048 1359.42 215.784C1359.02 216.52 1358.82 217.384 1358.82 218.376C1358.82 219.384 1359.02 220.264 1359.42 221.016C1359.82 221.752 1360.35 222.32 1361.03 222.72C1361.7 223.104 1362.44 223.296 1363.26 223.296C1364.07 223.296 1364.82 223.104 1365.49 222.72C1366.18 222.32 1366.72 221.752 1367.12 221.016C1367.52 220.264 1367.72 219.392 1367.72 218.4ZM1374.75 209.712C1374.33 209.712 1373.98 209.568 1373.69 209.28C1373.41 208.992 1373.26 208.64 1373.26 208.224C1373.26 207.808 1373.41 207.456 1373.69 207.168C1373.98 206.88 1374.33 206.736 1374.75 206.736C1375.15 206.736 1375.49 206.88 1375.76 207.168C1376.05 207.456 1376.19 207.808 1376.19 208.224C1376.19 208.64 1376.05 208.992 1375.76 209.28C1375.49 209.568 1375.15 209.712 1374.75 209.712ZM1375.81 211.848V225H1373.62V211.848H1375.81ZM1391.19 211.848V225H1389.01V223.056C1388.59 223.728 1388.01 224.256 1387.26 224.64C1386.52 225.008 1385.7 225.192 1384.81 225.192C1383.78 225.192 1382.86 224.984 1382.05 224.568C1381.23 224.136 1380.58 223.496 1380.1 222.648C1379.64 221.8 1379.41 220.768 1379.41 219.552V211.848H1381.57V219.264C1381.57 220.56 1381.9 221.56 1382.55 222.264C1383.21 222.952 1384.1 223.296 1385.24 223.296C1386.41 223.296 1387.33 222.936 1388 222.216C1388.67 221.496 1389.01 220.448 1389.01 219.072V211.848H1391.19ZM1410.7 211.608C1411.72 211.608 1412.63 211.824 1413.43 212.256C1414.23 212.672 1414.86 213.304 1415.33 214.152C1415.79 215 1416.02 216.032 1416.02 217.248V225H1413.86V217.56C1413.86 216.248 1413.54 215.248 1412.88 214.56C1412.24 213.856 1411.37 213.504 1410.26 213.504C1409.13 213.504 1408.22 213.872 1407.55 214.608C1406.88 215.328 1406.54 216.376 1406.54 217.752V225H1404.38V217.56C1404.38 216.248 1404.06 215.248 1403.4 214.56C1402.76 213.856 1401.89 213.504 1400.78 213.504C1399.65 213.504 1398.74 213.872 1398.07 214.608C1397.4 215.328 1397.06 216.376 1397.06 217.752V225H1394.88V211.848H1397.06V213.744C1397.5 213.056 1398.07 212.528 1398.79 212.16C1399.53 211.792 1400.34 211.608 1401.22 211.608C1402.32 211.608 1403.3 211.856 1404.14 212.352C1404.99 212.848 1405.62 213.576 1406.04 214.536C1406.41 213.608 1407.02 212.888 1407.86 212.376C1408.71 211.864 1409.66 211.608 1410.7 211.608Z" fill="#696969"/>
<rect y="36" width="250" height="259" rx="10" fill="#8251FB"/>
<rect x="265" y="36" width="385" height="120" rx="10" fill="#9E7FFF"/>
<rect x="528" y="175" width="120" height="120" rx="10" fill="#696969"/>
<rect x="397" y="175" width="119" height="120" rx="10" fill="#5FA90F"/>
<rect x="265" y="175" width="120" height="120" rx="10" fill="#EB4335"/>
<path d="M90.408 163.032H87.312L86.184 167.736H89.4V169.032H85.872L84.672 174H83.28L84.504 169.032H79.968L78.768 174H77.376L78.6 169.032H75.888V167.736H78.912L80.04 163.032H76.92V161.808H80.352L81.528 156.96H82.92L81.72 161.808H86.256L87.432 156.96H88.824L87.624 161.808H90.408V163.032ZM84.816 167.736L85.944 163.032H81.408L80.28 167.736H84.816ZM104.345 169.272C104.345 170.264 104.065 171.128 103.505 171.864C102.961 172.6 102.233 173.176 101.321 173.592C100.425 173.992 99.4405 174.192 98.3685 174.192C97.2325 174.192 96.2245 173.968 95.3445 173.52C94.4645 173.056 93.7685 172.448 93.2565 171.696C92.7605 170.944 92.5125 170.104 92.5125 169.176C92.5125 168.456 92.6805 167.808 93.0165 167.232C93.3685 166.64 93.8005 166.144 94.3125 165.744C94.8405 165.344 95.3765 165.056 95.9205 164.88C95.4245 164.672 94.9605 164.4 94.5285 164.064C94.0965 163.712 93.7525 163.304 93.4965 162.84C93.2405 162.376 93.1125 161.864 93.1125 161.304C93.1125 160.6 93.2645 159.984 93.5685 159.456C93.8885 158.912 94.3045 158.456 94.8165 158.088C95.3285 157.704 95.8965 157.424 96.5205 157.248C97.1605 157.056 97.8005 156.96 98.4405 156.96C99.0645 156.96 99.6885 157.056 100.313 157.248C100.953 157.424 101.529 157.696 102.041 158.064C102.569 158.432 102.985 158.888 103.289 159.432C103.609 159.96 103.769 160.576 103.769 161.28C103.769 161.84 103.633 162.36 103.361 162.84C103.105 163.304 102.761 163.712 102.329 164.064C101.897 164.4 101.425 164.672 100.913 164.88C101.537 165.088 102.105 165.408 102.617 165.84C103.145 166.256 103.561 166.752 103.865 167.328C104.185 167.904 104.345 168.552 104.345 169.272ZM102.689 169.152C102.689 168.576 102.561 168.072 102.305 167.64C102.065 167.192 101.729 166.816 101.297 166.512C100.881 166.208 100.417 165.976 99.9045 165.816C99.4085 165.656 98.9045 165.576 98.3925 165.576C97.7045 165.576 97.0325 165.728 96.3765 166.032C95.7365 166.32 95.2085 166.736 94.7925 167.28C94.3925 167.808 94.1925 168.44 94.1925 169.176C94.1925 169.736 94.3125 170.232 94.5525 170.664C94.8085 171.096 95.1445 171.472 95.5605 171.792C95.9765 172.096 96.4325 172.328 96.9285 172.488C97.4405 172.648 97.9525 172.728 98.4645 172.728C99.1525 172.728 99.8165 172.584 100.457 172.296C101.113 171.992 101.649 171.568 102.065 171.024C102.481 170.48 102.689 169.856 102.689 169.152ZM94.7445 161.376C94.7445 161.984 94.9285 162.512 95.2965 162.96C95.6805 163.392 96.1605 163.72 96.7365 163.944C97.3125 164.168 97.8725 164.28 98.4165 164.28C98.9925 164.28 99.5605 164.168 100.121 163.944C100.697 163.704 101.169 163.368 101.537 162.936C101.921 162.488 102.113 161.952 102.113 161.328C102.113 160.72 101.937 160.2 101.585 159.768C101.233 159.336 100.769 159.008 100.193 158.784C99.6325 158.56 99.0325 158.448 98.3925 158.448C97.7845 158.448 97.1925 158.568 96.6165 158.808C96.0565 159.032 95.6005 159.368 95.2485 159.816C94.9125 160.248 94.7445 160.768 94.7445 161.376ZM106.595 174C106.595 173.456 106.643 172.912 106.739 172.368C106.835 171.808 107.019 171.256 107.291 170.712C107.563 170.168 107.963 169.648 108.491 169.152C109.019 168.64 109.715 168.16 110.579 167.712C111.043 167.472 111.523 167.24 112.019 167.016C112.515 166.776 112.979 166.52 113.411 166.248C113.859 165.96 114.211 165.64 114.467 165.288C114.739 164.92 114.875 164.488 114.875 163.992C114.875 163.592 114.755 163.2 114.515 162.816C114.291 162.432 113.939 162.12 113.459 161.88C112.995 161.64 112.411 161.52 111.707 161.52C111.195 161.52 110.731 161.592 110.315 161.736C109.899 161.88 109.531 162.064 109.211 162.288C108.891 162.496 108.619 162.712 108.395 162.936C108.171 163.144 107.987 163.32 107.843 163.464L106.811 162.336C106.891 162.24 107.067 162.072 107.339 161.832C107.627 161.576 107.987 161.312 108.419 161.04C108.867 160.768 109.387 160.536 109.979 160.344C110.587 160.152 111.251 160.056 111.971 160.056C112.947 160.056 113.779 160.232 114.467 160.584C115.171 160.92 115.707 161.376 116.075 161.952C116.443 162.528 116.627 163.152 116.627 163.824C116.627 164.48 116.483 165.048 116.195 165.528C115.923 165.992 115.563 166.4 115.115 166.752C114.683 167.088 114.227 167.384 113.747 167.64C113.283 167.88 112.859 168.088 112.475 168.264C111.723 168.616 111.091 168.968 110.579 169.32C110.067 169.672 109.659 170.032 109.355 170.4C109.051 170.752 108.811 171.104 108.635 171.456C108.475 171.792 108.363 172.144 108.299 172.512H116.891V174H106.595ZM124.343 177.576C123.143 177.576 122.055 177.272 121.079 176.664C120.103 176.072 119.375 175.288 118.895 174.312L119.975 173.496C120.423 174.28 121.031 174.912 121.799 175.392C122.583 175.872 123.439 176.112 124.367 176.112C125.167 176.112 125.879 175.936 126.503 175.584C127.143 175.232 127.647 174.744 128.015 174.12C128.399 173.496 128.591 172.776 128.591 171.96C128.591 171.176 128.407 170.488 128.039 169.896C127.687 169.288 127.199 168.816 126.575 168.48C125.967 168.144 125.279 167.976 124.511 167.976C123.775 167.976 123.071 168.144 122.399 168.48C121.727 168.8 121.183 169.272 120.767 169.896H119.255L121.151 160.296H129.383V161.808H122.375L121.199 167.928C121.615 167.48 122.127 167.136 122.735 166.896C123.343 166.64 123.999 166.512 124.703 166.512C125.743 166.512 126.679 166.744 127.511 167.208C128.359 167.672 129.031 168.312 129.527 169.128C130.023 169.944 130.271 170.88 130.271 171.936C130.271 173.056 129.999 174.04 129.455 174.888C128.927 175.736 128.215 176.392 127.319 176.856C126.423 177.336 125.431 177.576 124.343 177.576ZM140.877 172.512V174H132.741V172.512H136.149V162.24C136.021 162.432 135.805 162.64 135.501 162.864C135.197 163.088 134.845 163.296 134.445 163.488C134.061 163.68 133.677 163.84 133.293 163.968C132.909 164.096 132.557 164.16 132.237 164.16V162.576C132.605 162.576 133.005 162.472 133.437 162.264C133.869 162.056 134.285 161.816 134.685 161.544C135.085 161.272 135.421 161.016 135.693 160.776C135.965 160.536 136.117 160.376 136.149 160.296H137.829V172.512H140.877ZM143.534 174V156.96H154.718V158.448H145.214V164.712H153.23V166.104H145.214V174H143.534ZM170.483 169.608C170.483 170.456 170.267 171.216 169.835 171.888C169.403 172.544 168.819 173.064 168.083 173.448C167.363 173.816 166.571 174 165.707 174H157.667V156.96H165.875C166.675 156.96 167.363 157.176 167.939 157.608C168.531 158.024 168.979 158.568 169.283 159.24C169.603 159.896 169.763 160.584 169.763 161.304C169.763 162.152 169.547 162.936 169.115 163.656C168.683 164.376 168.083 164.912 167.315 165.264C168.291 165.552 169.059 166.088 169.619 166.872C170.195 167.656 170.483 168.568 170.483 169.608ZM168.803 169.32C168.803 168.744 168.675 168.216 168.419 167.736C168.163 167.24 167.811 166.84 167.363 166.536C166.931 166.232 166.435 166.08 165.875 166.08H159.347V172.536H165.707C166.283 172.536 166.803 172.384 167.267 172.08C167.731 171.776 168.099 171.384 168.371 170.904C168.659 170.408 168.803 169.88 168.803 169.32ZM159.347 158.424V164.712H165.203C165.763 164.712 166.259 164.568 166.691 164.28C167.123 163.976 167.467 163.584 167.723 163.104C167.979 162.624 168.107 162.112 168.107 161.568C168.107 160.992 167.987 160.472 167.747 160.008C167.507 159.528 167.179 159.144 166.763 158.856C166.347 158.568 165.875 158.424 165.347 158.424H159.347Z" fill="white"/>
<path d="M424.408 94.032H421.312L420.184 98.736H423.4V100.032H419.872L418.672 105H417.28L418.504 100.032H413.968L412.768 105H411.376L412.6 100.032H409.888V98.736H412.912L414.04 94.032H410.92V92.808H414.352L415.528 87.96H416.92L415.72 92.808H420.256L421.432 87.96H422.824L421.624 92.808H424.408V94.032ZM418.816 98.736L419.944 94.032H415.408L414.28 98.736H418.816ZM426.177 97.152C426.177 98.224 426.433 99.2 426.945 100.08C427.473 100.944 428.185 101.632 429.081 102.144C429.977 102.656 430.961 102.912 432.033 102.912C432.769 102.912 433.449 102.784 434.073 102.528C434.697 102.272 435.249 101.912 435.729 101.448C436.209 100.968 436.561 100.424 436.785 99.816C436.769 101.384 436.561 102.72 436.161 103.824C435.777 104.928 435.233 105.776 434.529 106.368C433.841 106.96 433.017 107.256 432.057 107.256C431.177 107.256 430.369 107.008 429.633 106.512C428.897 106.016 428.361 105.368 428.025 104.568L426.969 105.528C427.433 106.504 428.113 107.272 429.009 107.832C429.921 108.408 430.937 108.696 432.057 108.696C433.305 108.696 434.401 108.32 435.345 107.568C436.289 106.816 437.025 105.688 437.553 104.184C438.081 102.664 438.345 100.744 438.345 98.424C438.345 96.936 438.081 95.664 437.553 94.608C437.041 93.536 436.321 92.72 435.393 92.16C434.481 91.584 433.425 91.296 432.225 91.296C431.105 91.296 430.081 91.56 429.153 92.088C428.241 92.616 427.513 93.32 426.969 94.2C426.441 95.08 426.177 96.064 426.177 97.152ZM432.201 92.736C433.001 92.736 433.737 92.936 434.409 93.336C435.097 93.736 435.641 94.272 436.041 94.944C436.441 95.616 436.641 96.352 436.641 97.152C436.641 97.952 436.441 98.688 436.041 99.36C435.641 100.032 435.105 100.568 434.433 100.968C433.761 101.368 433.017 101.568 432.201 101.568C431.401 101.568 430.657 101.368 429.969 100.968C429.297 100.568 428.753 100.032 428.337 99.36C427.937 98.688 427.737 97.952 427.737 97.152C427.737 96.336 427.937 95.6 428.337 94.944C428.753 94.272 429.297 93.736 429.969 93.336C430.641 92.936 431.385 92.736 432.201 92.736ZM452.959 103.512V105H441.511V87.96H452.743V89.448H443.191V95.592H451.519V97.008H443.191V103.512H452.959ZM463.821 92.52H454.629V91.008H466.413L457.797 108.048H455.925L463.821 92.52ZM468.792 105V87.96H479.976V89.448H470.472V95.712H478.488V97.104H470.472V105H468.792ZM482.925 105V87.96H494.109V89.448H484.605V95.712H492.621V97.104H484.605V105H482.925ZM497.058 105V87.96H508.242V89.448H498.738V95.712H506.754V97.104H498.738V105H497.058Z" fill="white"/>
<path d="M299.272 233.688H297.208L296.456 236.824H298.6V237.688H296.248L295.448 241H294.52L295.336 237.688H292.312L291.512 241H290.584L291.4 237.688H289.592V236.824H291.608L292.36 233.688H290.28V232.872H292.568L293.352 229.64H294.28L293.48 232.872H296.504L297.288 229.64H298.216L297.416 232.872H299.272V233.688ZM295.544 236.824L296.296 233.688H293.272L292.52 236.824H295.544ZM308.931 240.008V241H301.299V229.64H308.787V230.632H302.419V234.728H307.971V235.672H302.419V240.008H308.931ZM319.593 238.072C319.593 238.637 319.449 239.144 319.161 239.592C318.873 240.029 318.484 240.376 317.993 240.632C317.513 240.877 316.985 241 316.409 241H311.049V229.64H316.521C317.054 229.64 317.513 229.784 317.897 230.072C318.292 230.349 318.59 230.712 318.793 231.16C319.006 231.597 319.113 232.056 319.113 232.536C319.113 233.101 318.969 233.624 318.681 234.104C318.393 234.584 317.993 234.941 317.481 235.176C318.132 235.368 318.644 235.725 319.017 236.248C319.401 236.771 319.593 237.379 319.593 238.072ZM318.473 237.88C318.473 237.496 318.388 237.144 318.217 236.824C318.046 236.493 317.812 236.227 317.513 236.024C317.225 235.821 316.894 235.72 316.521 235.72H312.169V240.024H316.409C316.793 240.024 317.14 239.923 317.449 239.72C317.758 239.517 318.004 239.256 318.185 238.936C318.377 238.605 318.473 238.253 318.473 237.88ZM312.169 230.616V234.808H316.073C316.446 234.808 316.777 234.712 317.065 234.52C317.353 234.317 317.582 234.056 317.753 233.736C317.924 233.416 318.009 233.075 318.009 232.712C318.009 232.328 317.929 231.981 317.769 231.672C317.609 231.352 317.39 231.096 317.113 230.904C316.836 230.712 316.521 230.616 316.169 230.616H312.169ZM325.977 243.032V240.184H320.649V239.224L326.329 231.864H327.065V239.192H328.473V240.184H327.065V243.032H325.977ZM321.801 239.192H326.089V233.576L321.801 239.192ZM334.504 237.224C334.984 237.299 335.394 237.469 335.736 237.736C336.077 238.003 336.344 238.339 336.536 238.744C336.728 239.149 336.824 239.608 336.824 240.12C336.824 240.76 336.669 241.325 336.36 241.816C336.05 242.307 335.618 242.685 335.064 242.952C334.509 243.219 333.864 243.352 333.128 243.352C332.317 243.352 331.608 243.187 331 242.856C330.392 242.536 329.933 242.088 329.624 241.512L330.376 240.824C330.61 241.283 330.957 241.651 331.416 241.928C331.874 242.216 332.445 242.36 333.128 242.36C333.917 242.36 334.541 242.163 335 241.768C335.469 241.384 335.704 240.829 335.704 240.104C335.704 239.379 335.458 238.803 334.968 238.376C334.488 237.939 333.8 237.72 332.904 237.72H332.504V236.792H332.936C333.757 236.792 334.386 236.6 334.824 236.216C335.261 235.832 335.48 235.341 335.48 234.744C335.48 234.307 335.378 233.944 335.176 233.656C334.973 233.368 334.696 233.149 334.344 233C334.002 232.851 333.608 232.776 333.16 232.776C332.552 232.776 332.013 232.915 331.544 233.192C331.085 233.459 330.738 233.832 330.504 234.312L329.8 233.64C329.981 233.267 330.242 232.941 330.584 232.664C330.925 232.387 331.325 232.173 331.784 232.024C332.242 231.864 332.733 231.784 333.256 231.784C333.917 231.784 334.498 231.907 335 232.152C335.501 232.387 335.896 232.717 336.184 233.144C336.472 233.571 336.616 234.072 336.616 234.648C336.616 235.075 336.53 235.469 336.36 235.832C336.189 236.195 335.944 236.499 335.624 236.744C335.314 236.989 334.941 237.149 334.504 237.224ZM343.051 237.224C343.531 237.299 343.941 237.469 344.283 237.736C344.624 238.003 344.891 238.339 345.083 238.744C345.275 239.149 345.371 239.608 345.371 240.12C345.371 240.76 345.216 241.325 344.907 241.816C344.597 242.307 344.165 242.685 343.611 242.952C343.056 243.219 342.411 243.352 341.674 243.352C340.864 243.352 340.155 243.187 339.547 242.856C338.939 242.536 338.48 242.088 338.171 241.512L338.923 240.824C339.157 241.283 339.504 241.651 339.963 241.928C340.421 242.216 340.992 242.36 341.674 242.36C342.464 242.36 343.088 242.163 343.547 241.768C344.016 241.384 344.251 240.829 344.251 240.104C344.251 239.379 344.005 238.803 343.515 238.376C343.035 237.939 342.347 237.72 341.451 237.72H341.051V236.792H341.483C342.304 236.792 342.933 236.6 343.371 236.216C343.808 235.832 344.027 235.341 344.027 234.744C344.027 234.307 343.925 233.944 343.723 233.656C343.52 233.368 343.243 233.149 342.891 233C342.549 232.851 342.155 232.776 341.707 232.776C341.099 232.776 340.56 232.915 340.091 233.192C339.632 233.459 339.285 233.832 339.051 234.312L338.347 233.64C338.528 233.267 338.789 232.941 339.131 232.664C339.472 232.387 339.872 232.173 340.331 232.024C340.789 231.864 341.28 231.784 341.803 231.784C342.464 231.784 343.045 231.907 343.547 232.152C344.048 232.387 344.443 232.717 344.731 233.144C345.019 233.571 345.163 234.072 345.163 234.648C345.163 235.075 345.077 235.469 344.907 235.832C344.736 236.195 344.491 236.499 344.171 236.744C343.861 236.989 343.488 237.149 343.051 237.224ZM350.301 243.384C349.501 243.384 348.776 243.181 348.125 242.776C347.475 242.381 346.989 241.859 346.669 241.208L347.389 240.664C347.688 241.187 348.093 241.608 348.605 241.928C349.128 242.248 349.699 242.408 350.317 242.408C350.851 242.408 351.325 242.291 351.741 242.056C352.168 241.821 352.504 241.496 352.749 241.08C353.005 240.664 353.133 240.184 353.133 239.64C353.133 239.117 353.011 238.659 352.765 238.264C352.531 237.859 352.205 237.544 351.789 237.32C351.384 237.096 350.925 236.984 350.413 236.984C349.923 236.984 349.453 237.096 349.005 237.32C348.557 237.533 348.195 237.848 347.917 238.264H346.909L348.173 231.864H353.661V232.872H348.989L348.205 236.952C348.483 236.653 348.824 236.424 349.229 236.264C349.635 236.093 350.072 236.008 350.541 236.008C351.235 236.008 351.859 236.163 352.413 236.472C352.979 236.781 353.427 237.208 353.757 237.752C354.088 238.296 354.253 238.92 354.253 239.624C354.253 240.371 354.072 241.027 353.709 241.592C353.357 242.157 352.883 242.595 352.285 242.904C351.688 243.224 351.027 243.384 350.301 243.384Z" fill="white"/>
<path d="M431.272 233.688H429.208L428.456 236.824H430.6V237.688H428.248L427.448 241H426.52L427.336 237.688H424.312L423.512 241H422.584L423.4 237.688H421.592V236.824H423.608L424.36 233.688H422.28V232.872H424.568L425.352 229.64H426.28L425.48 232.872H428.504L429.288 229.64H430.216L429.416 232.872H431.272V233.688ZM427.544 236.824L428.296 233.688H425.272L424.52 236.824H427.544ZM436.067 243.384C435.267 243.384 434.542 243.181 433.891 242.776C433.24 242.381 432.755 241.859 432.435 241.208L433.155 240.664C433.454 241.187 433.859 241.608 434.371 241.928C434.894 242.248 435.464 242.408 436.083 242.408C436.616 242.408 437.091 242.291 437.507 242.056C437.934 241.821 438.27 241.496 438.515 241.08C438.771 240.664 438.899 240.184 438.899 239.64C438.899 239.117 438.776 238.659 438.531 238.264C438.296 237.859 437.971 237.544 437.555 237.32C437.15 237.096 436.691 236.984 436.179 236.984C435.688 236.984 435.219 237.096 434.771 237.32C434.323 237.533 433.96 237.848 433.683 238.264H432.675L433.939 231.864H439.427V232.872H434.755L433.971 236.952C434.248 236.653 434.59 236.424 434.995 236.264C435.4 236.093 435.838 236.008 436.307 236.008C437 236.008 437.624 236.163 438.179 236.472C438.744 236.781 439.192 237.208 439.523 237.752C439.854 238.296 440.019 238.92 440.019 239.624C440.019 240.371 439.838 241.027 439.475 241.592C439.123 242.157 438.648 242.595 438.051 242.904C437.454 243.224 436.792 243.384 436.067 243.384ZM442.018 241V229.64H449.474V230.632H443.138V234.808H448.482V235.736H443.138V241H442.018ZM453.975 229.64H454.919L459.639 241H458.455L456.983 237.448H451.879L450.423 241H449.223L453.975 229.64ZM456.727 236.568L454.439 230.952L452.119 236.568H456.727ZM460.42 235.768C460.42 236.483 460.59 237.133 460.932 237.72C461.284 238.296 461.758 238.755 462.356 239.096C462.953 239.437 463.609 239.608 464.324 239.608C464.814 239.608 465.268 239.523 465.684 239.352C466.1 239.181 466.468 238.941 466.788 238.632C467.108 238.312 467.342 237.949 467.492 237.544C467.481 238.589 467.342 239.48 467.076 240.216C466.82 240.952 466.457 241.517 465.988 241.912C465.529 242.307 464.98 242.504 464.34 242.504C463.753 242.504 463.214 242.339 462.724 242.008C462.233 241.677 461.876 241.245 461.652 240.712L460.948 241.352C461.257 242.003 461.71 242.515 462.308 242.888C462.916 243.272 463.593 243.464 464.34 243.464C465.172 243.464 465.902 243.213 466.532 242.712C467.161 242.211 467.652 241.459 468.004 240.456C468.356 239.443 468.532 238.163 468.532 236.616C468.532 235.624 468.356 234.776 468.004 234.072C467.662 233.357 467.182 232.813 466.564 232.44C465.956 232.056 465.252 231.864 464.452 231.864C463.705 231.864 463.022 232.04 462.404 232.392C461.796 232.744 461.31 233.213 460.948 233.8C460.596 234.387 460.42 235.043 460.42 235.768ZM464.436 232.824C464.969 232.824 465.46 232.957 465.908 233.224C466.366 233.491 466.729 233.848 466.996 234.296C467.262 234.744 467.396 235.235 467.396 235.768C467.396 236.301 467.262 236.792 466.996 237.24C466.729 237.688 466.372 238.045 465.924 238.312C465.476 238.579 464.98 238.712 464.436 238.712C463.902 238.712 463.406 238.579 462.948 238.312C462.5 238.045 462.137 237.688 461.86 237.24C461.593 236.792 461.46 236.301 461.46 235.768C461.46 235.224 461.593 234.733 461.86 234.296C462.137 233.848 462.5 233.491 462.948 233.224C463.396 232.957 463.892 232.824 464.436 232.824ZM478.131 236.312C478.131 237.251 477.955 238.088 477.603 238.824C477.261 239.549 476.787 240.12 476.179 240.536C475.571 240.952 474.883 241.16 474.115 241.16C473.347 241.16 472.659 240.952 472.051 240.536C471.453 240.12 470.979 239.549 470.627 238.824C470.275 238.088 470.099 237.251 470.099 236.312C470.099 235.373 470.275 234.541 470.627 233.816C470.979 233.08 471.453 232.504 472.051 232.088C472.659 231.661 473.347 231.448 474.115 231.448C474.883 231.448 475.571 231.661 476.179 232.088C476.787 232.504 477.261 233.08 477.603 233.816C477.955 234.541 478.131 235.373 478.131 236.312ZM477.027 236.312C477.027 235.555 476.904 234.888 476.659 234.312C476.413 233.736 476.072 233.288 475.635 232.968C475.197 232.637 474.691 232.472 474.115 232.472C473.539 232.472 473.032 232.637 472.595 232.968C472.157 233.288 471.811 233.736 471.555 234.312C471.309 234.888 471.187 235.555 471.187 236.312C471.187 237.069 471.309 237.736 471.555 238.312C471.811 238.888 472.157 239.336 472.595 239.656C473.032 239.976 473.539 240.136 474.115 240.136C474.691 240.136 475.197 239.976 475.635 239.656C476.072 239.325 476.413 238.877 476.659 238.312C476.904 237.736 477.027 237.069 477.027 236.312ZM480.44 241V229.64H487.896V230.632H481.56V234.808H486.904V235.736H481.56V241H480.44Z" fill="white"/>
<path d="M560.272 233.688H558.208L557.456 236.824H559.6V237.688H557.248L556.448 241H555.52L556.336 237.688H553.312L552.512 241H551.584L552.4 237.688H550.592V236.824H552.608L553.36 233.688H551.28V232.872H553.568L554.352 229.64H555.28L554.48 232.872H557.504L558.288 229.64H559.216L558.416 232.872H560.272V233.688ZM556.544 236.824L557.296 233.688H554.272L553.52 236.824H556.544ZM569.819 237.256C569.819 236.541 569.643 235.896 569.291 235.32C568.95 234.733 568.48 234.269 567.883 233.928C567.296 233.587 566.64 233.416 565.915 233.416C565.435 233.416 564.982 233.501 564.555 233.672C564.139 233.843 563.776 234.083 563.467 234.392C563.158 234.701 562.923 235.064 562.763 235.48C562.763 234.435 562.891 233.544 563.147 232.808C563.414 232.072 563.782 231.507 564.251 231.112C564.72 230.717 565.27 230.52 565.899 230.52C566.496 230.52 567.035 230.685 567.515 231.016C568.006 231.336 568.363 231.768 568.587 232.312L569.291 231.672C568.982 231.021 568.528 230.509 567.931 230.136C567.334 229.752 566.656 229.56 565.899 229.56C565.067 229.56 564.336 229.811 563.707 230.312C563.078 230.813 562.587 231.571 562.235 232.584C561.883 233.587 561.707 234.861 561.707 236.408C561.707 237.389 561.883 238.237 562.235 238.952C562.587 239.667 563.067 240.216 563.675 240.6C564.294 240.973 564.998 241.16 565.787 241.16C566.544 241.16 567.227 240.984 567.835 240.632C568.443 240.28 568.923 239.811 569.275 239.224C569.638 238.627 569.819 237.971 569.819 237.256ZM565.819 240.2C565.275 240.2 564.779 240.067 564.331 239.8C563.883 239.533 563.52 239.176 563.243 238.728C562.976 238.28 562.843 237.789 562.843 237.256C562.843 236.712 562.976 236.221 563.243 235.784C563.51 235.336 563.867 234.979 564.315 234.712C564.774 234.445 565.275 234.312 565.819 234.312C566.352 234.312 566.843 234.445 567.291 234.712C567.739 234.979 568.096 235.336 568.363 235.784C568.64 236.232 568.779 236.723 568.779 237.256C568.779 237.789 568.64 238.28 568.363 238.728C568.096 239.176 567.739 239.533 567.291 239.8C566.843 240.067 566.352 240.2 565.819 240.2ZM571.092 235.768C571.092 236.483 571.262 237.133 571.604 237.72C571.956 238.296 572.43 238.755 573.028 239.096C573.625 239.437 574.281 239.608 574.996 239.608C575.486 239.608 575.94 239.523 576.356 239.352C576.772 239.181 577.14 238.941 577.46 238.632C577.78 238.312 578.014 237.949 578.164 237.544C578.153 238.589 578.014 239.48 577.748 240.216C577.492 240.952 577.129 241.517 576.66 241.912C576.201 242.307 575.652 242.504 575.012 242.504C574.425 242.504 573.886 242.339 573.396 242.008C572.905 241.677 572.548 241.245 572.324 240.712L571.62 241.352C571.929 242.003 572.382 242.515 572.98 242.888C573.588 243.272 574.265 243.464 575.012 243.464C575.844 243.464 576.574 243.213 577.204 242.712C577.833 242.211 578.324 241.459 578.676 240.456C579.028 239.443 579.204 238.163 579.204 236.616C579.204 235.624 579.028 234.776 578.676 234.072C578.334 233.357 577.854 232.813 577.236 232.44C576.628 232.056 575.924 231.864 575.124 231.864C574.377 231.864 573.694 232.04 573.076 232.392C572.468 232.744 571.982 233.213 571.62 233.8C571.268 234.387 571.092 235.043 571.092 235.768ZM575.108 232.824C575.641 232.824 576.132 232.957 576.58 233.224C577.038 233.491 577.401 233.848 577.668 234.296C577.934 234.744 578.068 235.235 578.068 235.768C578.068 236.301 577.934 236.792 577.668 237.24C577.401 237.688 577.044 238.045 576.596 238.312C576.148 238.579 575.652 238.712 575.108 238.712C574.574 238.712 574.078 238.579 573.62 238.312C573.172 238.045 572.809 237.688 572.532 237.24C572.265 236.792 572.132 236.301 572.132 235.768C572.132 235.224 572.265 234.733 572.532 234.296C572.809 233.848 573.172 233.491 573.62 233.224C574.068 232.957 574.564 232.824 575.108 232.824ZM588.835 237.256C588.835 236.541 588.659 235.896 588.307 235.32C587.965 234.733 587.496 234.269 586.899 233.928C586.312 233.587 585.656 233.416 584.931 233.416C584.451 233.416 583.997 233.501 583.571 233.672C583.155 233.843 582.792 234.083 582.483 234.392C582.173 234.701 581.939 235.064 581.779 235.48C581.779 234.435 581.907 233.544 582.163 232.808C582.429 232.072 582.797 231.507 583.267 231.112C583.736 230.717 584.285 230.52 584.915 230.52C585.512 230.52 586.051 230.685 586.531 231.016C587.021 231.336 587.379 231.768 587.603 232.312L588.307 231.672C587.997 231.021 587.544 230.509 586.947 230.136C586.349 229.752 585.672 229.56 584.915 229.56C584.083 229.56 583.352 229.811 582.723 230.312C582.093 230.813 581.603 231.571 581.251 232.584C580.899 233.587 580.723 234.861 580.723 236.408C580.723 237.389 580.899 238.237 581.251 238.952C581.603 239.667 582.083 240.216 582.691 240.6C583.309 240.973 584.013 241.16 584.803 241.16C585.56 241.16 586.243 240.984 586.851 240.632C587.459 240.28 587.939 239.811 588.291 239.224C588.653 238.627 588.835 237.971 588.835 237.256ZM584.835 240.2C584.291 240.2 583.795 240.067 583.347 239.8C582.899 239.533 582.536 239.176 582.259 238.728C581.992 238.28 581.859 237.789 581.859 237.256C581.859 236.712 581.992 236.221 582.259 235.784C582.525 235.336 582.883 234.979 583.331 234.712C583.789 234.445 584.291 234.312 584.835 234.312C585.368 234.312 585.859 234.445 586.307 234.712C586.755 234.979 587.112 235.336 587.379 235.784C587.656 236.232 587.795 236.723 587.795 237.256C587.795 237.789 587.656 238.28 587.379 238.728C587.112 239.176 586.755 239.533 586.307 239.8C585.859 240.067 585.368 240.2 584.835 240.2ZM590.107 235.768C590.107 236.483 590.278 237.133 590.619 237.72C590.971 238.296 591.446 238.755 592.043 239.096C592.641 239.437 593.297 239.608 594.011 239.608C594.502 239.608 594.955 239.523 595.371 239.352C595.787 239.181 596.155 238.941 596.475 238.632C596.795 238.312 597.03 237.949 597.179 237.544C597.169 238.589 597.03 239.48 596.763 240.216C596.507 240.952 596.145 241.517 595.675 241.912C595.217 242.307 594.667 242.504 594.027 242.504C593.441 242.504 592.902 242.339 592.411 242.008C591.921 241.677 591.563 241.245 591.339 240.712L590.635 241.352C590.945 242.003 591.398 242.515 591.995 242.888C592.603 243.272 593.281 243.464 594.027 243.464C594.859 243.464 595.59 243.213 596.219 242.712C596.849 242.211 597.339 241.459 597.691 240.456C598.043 239.443 598.219 238.163 598.219 236.616C598.219 235.624 598.043 234.776 597.691 234.072C597.35 233.357 596.87 232.813 596.251 232.44C595.643 232.056 594.939 231.864 594.139 231.864C593.393 231.864 592.71 232.04 592.091 232.392C591.483 232.744 590.998 233.213 590.635 233.8C590.283 234.387 590.107 235.043 590.107 235.768ZM594.123 232.824C594.657 232.824 595.147 232.957 595.595 233.224C596.054 233.491 596.417 233.848 596.683 234.296C596.95 234.744 597.083 235.235 597.083 235.768C597.083 236.301 596.95 236.792 596.683 237.24C596.417 237.688 596.059 238.045 595.611 238.312C595.163 238.579 594.667 238.712 594.123 238.712C593.59 238.712 593.094 238.579 592.635 238.312C592.187 238.045 591.825 237.688 591.547 237.24C591.281 236.792 591.147 236.301 591.147 235.768C591.147 235.224 591.281 234.733 591.547 234.296C591.825 233.848 592.187 233.491 592.635 233.224C593.083 232.957 593.579 232.824 594.123 232.824ZM607.85 237.256C607.85 236.541 607.674 235.896 607.322 235.32C606.981 234.733 606.512 234.269 605.914 233.928C605.328 233.587 604.672 233.416 603.946 233.416C603.466 233.416 603.013 233.501 602.586 233.672C602.17 233.843 601.808 234.083 601.498 234.392C601.189 234.701 600.954 235.064 600.794 235.48C600.794 234.435 600.922 233.544 601.178 232.808C601.445 232.072 601.813 231.507 602.282 231.112C602.752 230.717 603.301 230.52 603.93 230.52C604.528 230.52 605.066 230.685 605.546 231.016C606.037 231.336 606.394 231.768 606.618 232.312L607.322 231.672C607.013 231.021 606.56 230.509 605.962 230.136C605.365 229.752 604.688 229.56 603.93 229.56C603.098 229.56 602.368 229.811 601.738 230.312C601.109 230.813 600.618 231.571 600.266 232.584C599.914 233.587 599.738 234.861 599.738 236.408C599.738 237.389 599.914 238.237 600.266 238.952C600.618 239.667 601.098 240.216 601.706 240.6C602.325 240.973 603.029 241.16 603.818 241.16C604.576 241.16 605.258 240.984 605.866 240.632C606.474 240.28 606.954 239.811 607.306 239.224C607.669 238.627 607.85 237.971 607.85 237.256ZM603.85 240.2C603.306 240.2 602.81 240.067 602.362 239.8C601.914 239.533 601.552 239.176 601.274 238.728C601.008 238.28 600.874 237.789 600.874 237.256C600.874 236.712 601.008 236.221 601.274 235.784C601.541 235.336 601.898 234.979 602.346 234.712C602.805 234.445 603.306 234.312 603.85 234.312C604.384 234.312 604.874 234.445 605.322 234.712C605.77 234.979 606.128 235.336 606.394 235.784C606.672 236.232 606.81 236.723 606.81 237.256C606.81 237.789 606.672 238.28 606.394 238.728C606.128 239.176 605.77 239.533 605.322 239.8C604.874 240.067 604.384 240.2 603.85 240.2ZM609.123 235.768C609.123 236.483 609.294 237.133 609.635 237.72C609.987 238.296 610.462 238.755 611.059 239.096C611.656 239.437 612.312 239.608 613.027 239.608C613.518 239.608 613.971 239.523 614.387 239.352C614.803 239.181 615.171 238.941 615.491 238.632C615.811 238.312 616.046 237.949 616.195 237.544C616.184 238.589 616.046 239.48 615.779 240.216C615.523 240.952 615.16 241.517 614.691 241.912C614.232 242.307 613.683 242.504 613.043 242.504C612.456 242.504 611.918 242.339 611.427 242.008C610.936 241.677 610.579 241.245 610.355 240.712L609.651 241.352C609.96 242.003 610.414 242.515 611.011 242.888C611.619 243.272 612.296 243.464 613.043 243.464C613.875 243.464 614.606 243.213 615.235 242.712C615.864 242.211 616.355 241.459 616.707 240.456C617.059 239.443 617.235 238.163 617.235 236.616C617.235 235.624 617.059 234.776 616.707 234.072C616.366 233.357 615.886 232.813 615.267 232.44C614.659 232.056 613.955 231.864 613.155 231.864C612.408 231.864 611.726 232.04 611.107 232.392C610.499 232.744 610.014 233.213 609.651 233.8C609.299 234.387 609.123 235.043 609.123 235.768ZM613.139 232.824C613.672 232.824 614.163 232.957 614.611 233.224C615.07 233.491 615.432 233.848 615.699 234.296C615.966 234.744 616.099 235.235 616.099 235.768C616.099 236.301 615.966 236.792 615.699 237.24C615.432 237.688 615.075 238.045 614.627 238.312C614.179 238.579 613.683 238.712 613.139 238.712C612.606 238.712 612.11 238.579 611.651 238.312C611.203 238.045 610.84 237.688 610.563 237.24C610.296 236.792 610.163 236.301 610.163 235.768C610.163 235.224 610.296 234.733 610.563 234.296C610.84 233.848 611.203 233.491 611.651 233.224C612.099 232.957 612.595 232.824 613.139 232.824Z" fill="white"/>
<path d="M1.488 19V7.64H6.16C6.64 7.64 7.07733 7.74133 7.472 7.944C7.87733 8.14667 8.22933 8.41867 8.528 8.76C8.82667 9.09067 9.056 9.464 9.216 9.88C9.38667 10.296 9.472 10.7227 9.472 11.16C9.472 11.768 9.33333 12.344 9.056 12.888C8.78933 13.4213 8.416 13.8587 7.936 14.2C7.46667 14.5413 6.90667 14.712 6.256 14.712H2.304V19H1.488ZM2.304 13.96H6.224C6.72533 13.96 7.15733 13.8267 7.52 13.56C7.88267 13.2933 8.16 12.9467 8.352 12.52C8.544 12.0933 8.64 11.64 8.64 11.16C8.64 10.6587 8.52267 10.2 8.288 9.784C8.064 9.35733 7.76 9.016 7.376 8.76C7.00267 8.504 6.58667 8.376 6.128 8.376H2.304V13.96ZM15.1215 11.4C14.3748 11.4213 13.7188 11.6453 13.1535 12.072C12.5988 12.488 12.2095 13.064 11.9855 13.8V19H11.1855V10.68H11.9535V12.728C12.2415 12.1413 12.6255 11.6667 13.1055 11.304C13.5855 10.9307 14.0922 10.7173 14.6255 10.664C14.7322 10.6533 14.8282 10.648 14.9135 10.648C14.9988 10.648 15.0682 10.648 15.1215 10.648V11.4ZM16.6386 19V10.68H17.4386V19H16.6386ZM16.6386 8.792V7.32H17.4386V8.792H16.6386ZM32.1751 19H31.3751V14.36C31.3751 13.304 31.2098 12.5253 30.8791 12.024C30.5591 11.5227 30.0631 11.272 29.3911 11.272C28.7085 11.272 28.1005 11.5173 27.5671 12.008C27.0445 12.488 26.6765 13.1067 26.4631 13.864V19H25.6631V14.36C25.6631 13.2933 25.5031 12.5147 25.1831 12.024C24.8631 11.5227 24.3671 11.272 23.6951 11.272C23.0125 11.272 22.4045 11.512 21.8711 11.992C21.3485 12.4613 20.9751 13.08 20.7511 13.848V19H19.9511V10.68H20.7031V12.664C21.0551 11.9813 21.5085 11.4587 22.0631 11.096C22.6178 10.7227 23.2258 10.536 23.8871 10.536C24.5805 10.536 25.1458 10.744 25.5831 11.16C26.0311 11.5653 26.2978 12.1093 26.3831 12.792C26.7778 12.0453 27.2471 11.4853 27.7911 11.112C28.3351 10.728 28.9538 10.536 29.6471 10.536C30.1058 10.536 30.4898 10.6213 30.7991 10.792C31.1191 10.952 31.3805 11.192 31.5831 11.512C31.7965 11.8213 31.9458 12.2053 32.0311 12.664C32.1271 13.1227 32.1751 13.64 32.1751 14.216V19ZM33.9038 16.6C33.9038 16.0987 34.0531 15.6667 34.3518 15.304C34.6504 14.9307 35.0611 14.6427 35.5838 14.44C36.1064 14.2267 36.7091 14.12 37.3918 14.12C37.8184 14.12 38.2611 14.1573 38.7198 14.232C39.1784 14.3067 39.5891 14.408 39.9518 14.536V13.752C39.9518 12.984 39.7278 12.3707 39.2798 11.912C38.8424 11.4533 38.2344 11.224 37.4557 11.224C37.0398 11.224 36.6078 11.3093 36.1598 11.48C35.7118 11.6507 35.2531 11.896 34.7838 12.216L34.4478 11.64C34.9918 11.2773 35.5144 11.0053 36.0158 10.824C36.5278 10.632 37.0344 10.536 37.5358 10.536C38.5278 10.536 39.3118 10.8293 39.8878 11.416C40.4638 12.0027 40.7518 12.8027 40.7518 13.816V17.944C40.7518 18.072 40.7784 18.168 40.8318 18.232C40.8958 18.296 40.9864 18.3333 41.1038 18.344V19C41.0078 19.0107 40.9278 19.016 40.8638 19.016C40.7998 19.016 40.7464 19.016 40.7038 19.016C40.5011 18.984 40.3411 18.8987 40.2238 18.76C40.1171 18.6213 40.0584 18.4667 40.0478 18.296V17.64C39.6638 18.12 39.1678 18.4933 38.5598 18.76C37.9624 19.0267 37.3331 19.16 36.6718 19.16C36.1491 19.16 35.6744 19.048 35.2478 18.824C34.8318 18.6 34.5011 18.296 34.2558 17.912C34.0211 17.5173 33.9038 17.08 33.9038 16.6ZM39.6318 17.288C39.7384 17.1493 39.8184 17.016 39.8718 16.888C39.9251 16.76 39.9518 16.6427 39.9518 16.536V15.16C39.5678 15.0107 39.1678 14.8987 38.7518 14.824C38.3358 14.7493 37.9091 14.712 37.4718 14.712C36.6398 14.712 35.9624 14.8773 35.4398 15.208C34.9278 15.5387 34.6718 15.9867 34.6718 16.552C34.6718 16.904 34.7624 17.2293 34.9438 17.528C35.1251 17.8267 35.3758 18.0667 35.6957 18.248C36.0264 18.4293 36.4051 18.52 36.8318 18.52C37.4291 18.52 37.9784 18.408 38.4798 18.184C38.9918 17.9493 39.3758 17.6507 39.6318 17.288ZM47.1215 11.4C46.3748 11.4213 45.7188 11.6453 45.1535 12.072C44.5988 12.488 44.2095 13.064 43.9855 13.8V19H43.1855V10.68H43.9535V12.728C44.2415 12.1413 44.6255 11.6667 45.1055 11.304C45.5855 10.9307 46.0922 10.7173 46.6255 10.664C46.7322 10.6533 46.8282 10.648 46.9135 10.648C46.9988 10.648 47.0682 10.648 47.1215 10.648V11.4ZM48.6386 19V10.68H49.4386V19H48.6386ZM48.6386 8.792V7.32H49.4386V8.792H48.6386ZM55.4391 19.16C54.8525 19.16 54.3085 19.048 53.8071 18.824C53.3165 18.6 52.8898 18.2907 52.5271 17.896C52.1645 17.4907 51.8818 17.0267 51.6791 16.504C51.4765 15.9813 51.3751 15.432 51.3751 14.856C51.3751 14.2693 51.4765 13.72 51.6791 13.208C51.8818 12.6853 52.1645 12.2267 52.5271 11.832C52.9005 11.4267 53.3325 11.112 53.8231 10.888C54.3245 10.6533 54.8631 10.536 55.4391 10.536C56.0151 10.536 56.5485 10.6533 57.0391 10.888C57.5298 11.112 57.9618 11.4267 58.3351 11.832C58.7085 12.2267 58.9965 12.6853 59.1991 13.208C59.4018 13.72 59.5031 14.2693 59.5031 14.856C59.5031 15.432 59.4018 15.9813 59.1991 16.504C58.9965 17.0267 58.7085 17.4907 58.3351 17.896C57.9725 18.2907 57.5405 18.6 57.0391 18.824C56.5485 19.048 56.0151 19.16 55.4391 19.16ZM52.1751 14.888C52.1751 15.5387 52.3191 16.136 52.6071 16.68C52.9058 17.2133 53.3005 17.64 53.7911 17.96C54.2818 18.28 54.8258 18.44 55.4231 18.44C56.0205 18.44 56.5645 18.28 57.0551 17.96C57.5565 17.6293 57.9511 17.192 58.2391 16.648C58.5378 16.0933 58.6871 15.4907 58.6871 14.84C58.6871 14.1893 58.5378 13.592 58.2391 13.048C57.9511 12.504 57.5565 12.072 57.0551 11.752C56.5645 11.4213 56.0258 11.256 55.4391 11.256C54.8418 11.256 54.2978 11.4213 53.8071 11.752C53.3165 12.0827 52.9218 12.52 52.6231 13.064C52.3245 13.608 52.1751 14.216 52.1751 14.888Z" fill="black" fill-opacity="0.7"/>
<path d="M270.096 9.528C269.915 9.32533 269.712 9.14933 269.488 9C269.264 8.84 269.024 8.712 268.768 8.616C268.512 8.50933 268.235 8.42933 267.936 8.376C267.637 8.32267 267.317 8.296 266.976 8.296C265.867 8.296 265.056 8.50933 264.544 8.936C264.043 9.352 263.792 9.91733 263.792 10.632C263.792 11.112 263.904 11.496 264.128 11.784C264.363 12.0613 264.725 12.2853 265.216 12.456C265.707 12.6267 266.341 12.792 267.12 12.952C267.941 13.1227 268.651 13.3253 269.248 13.56C269.845 13.784 270.304 14.0933 270.624 14.488C270.955 14.8827 271.12 15.416 271.12 16.088C271.12 16.5893 271.024 17.032 270.832 17.416C270.64 17.7893 270.363 18.0987 270 18.344C269.637 18.5893 269.205 18.776 268.704 18.904C268.213 19.032 267.664 19.096 267.056 19.096C266.469 19.096 265.909 19.032 265.376 18.904C264.843 18.776 264.341 18.5893 263.872 18.344C263.403 18.0987 262.965 17.784 262.56 17.4L262.992 16.744C263.227 17 263.488 17.2293 263.776 17.432C264.075 17.624 264.395 17.7893 264.736 17.928C265.088 18.0667 265.461 18.1787 265.856 18.264C266.251 18.3387 266.661 18.376 267.088 18.376C268.08 18.376 268.853 18.1947 269.408 17.832C269.973 17.4587 270.256 16.9093 270.256 16.184C270.256 15.6827 270.128 15.2773 269.872 14.968C269.616 14.6587 269.221 14.408 268.688 14.216C268.155 14.0133 267.488 13.8267 266.688 13.656C265.888 13.4853 265.205 13.2933 264.64 13.08C264.085 12.8667 263.664 12.5787 263.376 12.216C263.099 11.8533 262.96 11.3627 262.96 10.744C262.96 10.0613 263.125 9.48533 263.456 9.016C263.797 8.536 264.272 8.17333 264.88 7.928C265.488 7.68267 266.187 7.56 266.976 7.56C267.467 7.56 267.92 7.608 268.336 7.704C268.763 7.8 269.152 7.94933 269.504 8.152C269.867 8.344 270.203 8.58933 270.512 8.888L270.096 9.528ZM276.472 19.16C275.885 19.16 275.341 19.048 274.84 18.824C274.338 18.5893 273.901 18.2747 273.528 17.88C273.165 17.4747 272.877 17.0107 272.664 16.488C272.461 15.9547 272.36 15.3947 272.36 14.808C272.36 14.0187 272.536 13.304 272.888 12.664C273.24 12.024 273.725 11.512 274.344 11.128C274.962 10.7333 275.656 10.536 276.424 10.536C277.213 10.536 277.912 10.7333 278.52 11.128C279.128 11.5227 279.608 12.0453 279.96 12.696C280.322 13.336 280.503 14.04 280.503 14.808C280.503 14.872 280.503 14.936 280.503 15C280.503 15.064 280.498 15.1173 280.488 15.16H273.192C273.234 15.7893 273.41 16.36 273.72 16.872C274.029 17.384 274.424 17.7893 274.904 18.088C275.394 18.376 275.928 18.52 276.504 18.52C277.08 18.52 277.624 18.3707 278.136 18.072C278.648 17.7733 279.005 17.3893 279.208 16.92L279.911 17.112C279.752 17.5067 279.496 17.8587 279.144 18.168C278.802 18.4773 278.397 18.7227 277.928 18.904C277.469 19.0747 276.984 19.16 276.472 19.16ZM273.16 14.536H279.736C279.693 13.8853 279.522 13.3093 279.224 12.808C278.925 12.3067 278.53 11.912 278.04 11.624C277.56 11.336 277.026 11.192 276.44 11.192C275.853 11.192 275.32 11.336 274.84 11.624C274.36 11.912 273.97 12.3067 273.672 12.808C273.373 13.3093 273.202 13.8853 273.16 14.536ZM285.8 19.16C285.224 19.16 284.685 19.048 284.184 18.824C283.682 18.5893 283.245 18.2747 282.872 17.88C282.498 17.4747 282.205 17.0107 281.992 16.488C281.789 15.9653 281.688 15.4053 281.688 14.808C281.688 14.008 281.864 13.288 282.216 12.648C282.568 12.008 283.053 11.496 283.672 11.112C284.29 10.728 284.994 10.536 285.784 10.536C286.541 10.536 287.208 10.712 287.784 11.064C288.36 11.4053 288.792 11.8747 289.08 12.472L288.296 12.728C288.05 12.2693 287.698 11.912 287.24 11.656C286.792 11.3893 286.296 11.256 285.752 11.256C285.144 11.256 284.594 11.4107 284.104 11.72C283.613 12.0293 283.218 12.456 282.92 13C282.632 13.5333 282.488 14.136 282.488 14.808C282.488 15.4693 282.637 16.0773 282.936 16.632C283.234 17.1867 283.629 17.6293 284.12 17.96C284.621 18.28 285.17 18.44 285.768 18.44C286.152 18.44 286.525 18.3707 286.888 18.232C287.261 18.0827 287.581 17.8907 287.848 17.656C288.125 17.4213 288.306 17.1707 288.392 16.904L289.176 17.128C289.037 17.5227 288.797 17.8747 288.456 18.184C288.114 18.4827 287.714 18.7227 287.256 18.904C286.808 19.0747 286.322 19.16 285.8 19.16ZM290.902 15.48V10.68H291.702V15.368C291.702 16.4027 291.873 17.176 292.214 17.688C292.566 18.1893 293.094 18.44 293.798 18.44C294.268 18.44 294.716 18.3387 295.142 18.136C295.58 17.9227 295.964 17.6293 296.294 17.256C296.625 16.872 296.87 16.4293 297.03 15.928V10.68H297.83V17.944C297.83 18.072 297.857 18.168 297.91 18.232C297.974 18.296 298.06 18.3333 298.166 18.344V19C298.06 19.0107 297.974 19.016 297.91 19.016C297.857 19.016 297.809 19.0107 297.766 19C297.585 18.9787 297.436 18.904 297.318 18.776C297.201 18.6373 297.137 18.472 297.126 18.28L297.11 17.032C296.748 17.6933 296.246 18.216 295.606 18.6C294.977 18.9733 294.294 19.16 293.558 19.16C292.684 19.16 292.022 18.8507 291.574 18.232C291.126 17.6133 290.902 16.696 290.902 15.48ZM307.173 19H306.373V14.36C306.373 13.2933 306.218 12.5147 305.909 12.024C305.61 11.5227 305.13 11.272 304.469 11.272C304 11.272 303.536 11.384 303.077 11.608C302.629 11.832 302.234 12.1413 301.893 12.536C301.562 12.92 301.322 13.3573 301.173 13.848V19H300.373V10.68H301.125V12.664C301.349 12.2373 301.648 11.8693 302.021 11.56C302.394 11.24 302.81 10.9893 303.269 10.808C303.728 10.6267 304.202 10.536 304.693 10.536C305.152 10.536 305.536 10.6213 305.845 10.792C306.165 10.952 306.421 11.1867 306.613 11.496C306.816 11.8053 306.96 12.1893 307.045 12.648C307.13 13.1067 307.173 13.6293 307.173 14.216V19ZM309.016 14.856C309.016 14.0773 309.181 13.3627 309.512 12.712C309.842 12.0613 310.296 11.5387 310.872 11.144C311.448 10.7387 312.104 10.536 312.84 10.536C313.565 10.536 314.205 10.728 314.76 11.112C315.325 11.496 315.768 11.9547 316.088 12.488V7.32H316.888V17.944C316.888 18.072 316.914 18.168 316.968 18.232C317.032 18.296 317.117 18.3333 317.224 18.344V19C317.053 19.0213 316.925 19.0267 316.84 19.016C316.648 18.984 316.488 18.8933 316.36 18.744C316.232 18.5947 316.168 18.4347 316.168 18.264V17.336C315.826 17.8907 315.368 18.3333 314.792 18.664C314.216 18.9947 313.624 19.16 313.016 19.16C312.44 19.16 311.906 19.0427 311.416 18.808C310.925 18.5627 310.498 18.2373 310.136 17.832C309.784 17.4267 309.506 16.968 309.304 16.456C309.112 15.944 309.016 15.4107 309.016 14.856ZM316.088 16.2V13.464C315.938 13.0587 315.698 12.6907 315.368 12.36C315.037 12.0187 314.664 11.752 314.248 11.56C313.832 11.3573 313.421 11.256 313.016 11.256C312.536 11.256 312.098 11.3573 311.704 11.56C311.32 11.7627 310.984 12.0347 310.696 12.376C310.418 12.7173 310.205 13.1067 310.056 13.544C309.906 13.9707 309.832 14.4133 309.832 14.872C309.832 15.3413 309.917 15.7947 310.088 16.232C310.258 16.6587 310.493 17.0427 310.792 17.384C311.101 17.7147 311.453 17.976 311.848 18.168C312.253 18.3493 312.69 18.44 313.16 18.44C313.448 18.44 313.752 18.3813 314.072 18.264C314.402 18.1467 314.712 17.9867 315 17.784C315.298 17.5707 315.544 17.3307 315.736 17.064C315.938 16.7867 316.056 16.4987 316.088 16.2ZM318.748 16.6C318.748 16.0987 318.897 15.6667 319.196 15.304C319.494 14.9307 319.905 14.6427 320.428 14.44C320.95 14.2267 321.553 14.12 322.236 14.12C322.662 14.12 323.105 14.1573 323.564 14.232C324.022 14.3067 324.433 14.408 324.796 14.536V13.752C324.796 12.984 324.572 12.3707 324.124 11.912C323.686 11.4533 323.078 11.224 322.299 11.224C321.884 11.224 321.452 11.3093 321.004 11.48C320.556 11.6507 320.097 11.896 319.628 12.216L319.292 11.64C319.836 11.2773 320.358 11.0053 320.86 10.824C321.372 10.632 321.878 10.536 322.38 10.536C323.372 10.536 324.156 10.8293 324.732 11.416C325.308 12.0027 325.596 12.8027 325.596 13.816V17.944C325.596 18.072 325.622 18.168 325.676 18.232C325.74 18.296 325.83 18.3333 325.948 18.344V19C325.852 19.0107 325.772 19.016 325.708 19.016C325.644 19.016 325.59 19.016 325.548 19.016C325.345 18.984 325.185 18.8987 325.068 18.76C324.961 18.6213 324.902 18.4667 324.892 18.296V17.64C324.508 18.12 324.012 18.4933 323.404 18.76C322.806 19.0267 322.177 19.16 321.516 19.16C320.993 19.16 320.518 19.048 320.092 18.824C319.676 18.6 319.345 18.296 319.1 17.912C318.865 17.5173 318.748 17.08 318.748 16.6ZM324.476 17.288C324.582 17.1493 324.662 17.016 324.716 16.888C324.769 16.76 324.796 16.6427 324.796 16.536V15.16C324.412 15.0107 324.012 14.8987 323.596 14.824C323.18 14.7493 322.753 14.712 322.316 14.712C321.484 14.712 320.806 14.8773 320.284 15.208C319.772 15.5387 319.516 15.9867 319.516 16.552C319.516 16.904 319.606 17.2293 319.788 17.528C319.969 17.8267 320.22 18.0667 320.539 18.248C320.87 18.4293 321.249 18.52 321.676 18.52C322.273 18.52 322.822 18.408 323.324 18.184C323.836 17.9493 324.22 17.6507 324.476 17.288ZM331.965 11.4C331.219 11.4213 330.563 11.6453 329.997 12.072C329.443 12.488 329.053 13.064 328.829 13.8V19H328.029V10.68H328.797V12.728C329.085 12.1413 329.469 11.6667 329.949 11.304C330.429 10.9307 330.936 10.7173 331.469 10.664C331.576 10.6533 331.672 10.648 331.757 10.648C331.843 10.648 331.912 10.648 331.965 10.648V11.4ZM333.482 19V10.68H334.282V19H333.482ZM333.482 8.792V7.32H334.282V8.792H333.482ZM340.283 19.16C339.696 19.16 339.152 19.048 338.651 18.824C338.16 18.6 337.734 18.2907 337.371 17.896C337.008 17.4907 336.726 17.0267 336.523 16.504C336.32 15.9813 336.219 15.432 336.219 14.856C336.219 14.2693 336.32 13.72 336.523 13.208C336.726 12.6853 337.008 12.2267 337.371 11.832C337.744 11.4267 338.176 11.112 338.667 10.888C339.168 10.6533 339.707 10.536 340.283 10.536C340.859 10.536 341.392 10.6533 341.883 10.888C342.374 11.112 342.806 11.4267 343.179 11.832C343.552 12.2267 343.84 12.6853 344.043 13.208C344.246 13.72 344.347 14.2693 344.347 14.856C344.347 15.432 344.246 15.9813 344.043 16.504C343.84 17.0267 343.552 17.4907 343.179 17.896C342.816 18.2907 342.384 18.6 341.883 18.824C341.392 19.048 340.859 19.16 340.283 19.16ZM337.019 14.888C337.019 15.5387 337.163 16.136 337.451 16.68C337.75 17.2133 338.144 17.64 338.635 17.96C339.126 18.28 339.67 18.44 340.267 18.44C340.864 18.44 341.408 18.28 341.899 17.96C342.4 17.6293 342.795 17.192 343.083 16.648C343.382 16.0933 343.531 15.4907 343.531 14.84C343.531 14.1893 343.382 13.592 343.083 13.048C342.795 12.504 342.4 12.072 341.899 11.752C341.408 11.4213 340.87 11.256 340.283 11.256C339.686 11.256 339.142 11.4213 338.651 11.752C338.16 12.0827 337.766 12.52 337.467 13.064C337.168 13.608 337.019 14.216 337.019 14.888Z" fill="black" fill-opacity="0.7"/>
<rect x="886.5" y="38.5" width="633" height="235" rx="14.5" stroke="black"/>
</svg>
