<svg width="1931" height="484" viewBox="0 0 1931 484" fill="none" xmlns="http://www.w3.org/2000/svg">
<line x1="966.5" y1="13.0011" x2="965.498" y2="473.001" stroke="#C8C8C8"/>
<line x1="6" y1="242.5" x2="1925.11" y2="242.5" stroke="#C8C8C8"/>
<path d="M962.784 468.091L965.398 472.551L968.011 468.091H969.943L966.42 473.545L969.943 479H968.011L965.398 474.767L962.784 479H960.852L964.318 473.545L960.852 468.091H962.784Z" fill="#C8C8C8"/>
<path d="M962.784 237.091L965.398 241.551L968.011 237.091H969.943L966.42 242.545L969.943 248H968.011L965.398 243.767L962.784 248H960.852L964.318 242.545L960.852 237.091H962.784Z" fill="#C8C8C8"/>
<path d="M2.78409 237.091L5.39773 241.551L8.01136 237.091H9.94318L6.42045 242.545L9.94318 248H8.01136L5.39773 243.767L2.78409 248H0.852273L4.31818 242.545L0.852273 237.091H2.78409Z" fill="#C8C8C8"/>
<path d="M963.784 8.09091L966.398 12.5511L969.011 8.09091H970.943L967.42 13.5455L970.943 19H969.011L966.398 14.767L963.784 19H961.852L965.318 13.5455L961.852 8.09091H963.784Z" fill="#C8C8C8"/>
<path d="M1922.78 237.091L1925.4 241.551L1928.01 237.091H1929.94L1926.42 242.545L1929.94 248H1928.01L1925.4 243.767L1922.78 248H1920.85L1924.32 242.545L1920.85 237.091H1922.78Z" fill="#C8C8C8"/>
</svg>
