<svg width="256" height="256" viewBox="0 0 256 256" fill="none" xmlns="http://www.w3.org/2000/svg">
<path d="M244 152C244 153.061 243.579 154.078 242.828 154.828C242.078 155.579 241.061 156 240 156H220V176C220 177.061 219.579 178.078 218.828 178.828C218.078 179.579 217.061 180 216 180C214.939 180 213.922 179.579 213.172 178.828C212.421 178.078 212 177.061 212 176V156H192C190.939 156 189.922 155.579 189.172 154.828C188.421 154.078 188 153.061 188 152C188 150.939 188.421 149.922 189.172 149.172C189.922 148.421 190.939 148 192 148H212V128C212 126.939 212.421 125.922 213.172 125.172C213.922 124.421 214.939 124 216 124C217.061 124 218.078 124.421 218.828 125.172C219.579 125.922 220 126.939 220 128V148H240C241.061 148 242.078 148.421 242.828 149.172C243.579 149.922 244 150.939 244 152ZM55.9999 68H75.9999V88C75.9999 89.0609 76.4214 90.0783 77.1715 90.8284C77.9216 91.5786 78.9391 92 79.9999 92C81.0608 92 82.0782 91.5786 82.8284 90.8284C83.5785 90.0783 83.9999 89.0609 83.9999 88V68H104C105.061 68 106.078 67.5786 106.828 66.8284C107.579 66.0783 108 65.0609 108 64C108 62.9391 107.579 61.9217 106.828 61.1716C106.078 60.4214 105.061 60 104 60H83.9999V40C83.9999 38.9391 83.5785 37.9217 82.8284 37.1716C82.0782 36.4214 81.0608 36 79.9999 36C78.9391 36 77.9216 36.4214 77.1715 37.1716C76.4214 37.9217 75.9999 38.9391 75.9999 40V60H55.9999C54.9391 60 53.9217 60.4214 53.1715 61.1716C52.4214 61.9217 51.9999 62.9391 51.9999 64C51.9999 65.0609 52.4214 66.0783 53.1715 66.8284C53.9217 67.5786 54.9391 68 55.9999 68ZM184 196H172V184C172 182.939 171.579 181.922 170.828 181.172C170.078 180.421 169.061 180 168 180C166.939 180 165.922 180.421 165.172 181.172C164.421 181.922 164 182.939 164 184V196H152C150.939 196 149.922 196.421 149.172 197.172C148.421 197.922 148 198.939 148 200C148 201.061 148.421 202.078 149.172 202.828C149.922 203.579 150.939 204 152 204H164V216C164 217.061 164.421 218.078 165.172 218.828C165.922 219.579 166.939 220 168 220C169.061 220 170.078 219.579 170.828 218.828C171.579 218.078 172 217.061 172 216V204H184C185.061 204 186.078 203.579 186.828 202.828C187.579 202.078 188 201.061 188 200C188 198.939 187.579 197.922 186.828 197.172C186.078 196.421 185.061 196 184 196ZM216.48 77.17L77.1699 216.49C76.0551 217.609 74.7304 218.496 73.2718 219.102C71.8131 219.708 70.2493 220.019 68.6699 220.019C67.0906 220.019 65.5267 219.708 64.0681 219.102C62.6095 218.496 61.2848 217.609 60.1699 216.49L39.5099 195.8C38.3912 194.685 37.5036 193.36 36.8979 191.902C36.2922 190.443 35.9805 188.879 35.9805 187.3C35.9805 185.721 36.2922 184.157 36.8979 182.698C37.5036 181.24 38.3912 179.915 39.5099 178.8L178.83 39.51C179.945 38.3913 181.269 37.5036 182.728 36.898C184.187 36.2923 185.751 35.9805 187.33 35.9805C188.909 35.9805 190.473 36.2923 191.932 36.898C193.39 37.5036 194.715 38.3913 195.83 39.51L216.48 60.2C218.73 62.4504 219.994 65.5025 219.994 68.685C219.994 71.8674 218.73 74.9196 216.48 77.17ZM170.34 112L144 85.66L45.1699 184.49C44.4219 185.24 44.0018 186.256 44.0018 187.315C44.0018 188.374 44.4219 189.39 45.1699 190.14L65.8499 210.83C66.2214 211.202 66.6626 211.497 67.1482 211.698C67.6338 211.9 68.1543 212.003 68.6799 212.003C69.2056 212.003 69.7261 211.9 70.2117 211.698C70.6973 211.497 71.1384 211.202 71.5099 210.83L170.34 112ZM210.83 65.86L190.14 45.17C189.768 44.7981 189.327 44.5031 188.842 44.3018C188.356 44.1005 187.836 43.9968 187.31 43.9968C186.784 43.9968 186.264 44.1005 185.778 44.3018C185.293 44.5031 184.851 44.7981 184.48 45.17L149.65 80L176 106.34L210.83 71.51C211.578 70.7601 211.998 69.7442 211.998 68.685C211.998 67.6258 211.578 66.6099 210.83 65.86Z" fill="#CCCCCC"/>
</svg>
