<svg width="230" height="230" viewBox="0 0 230 230" fill="none" xmlns="http://www.w3.org/2000/svg">
<path d="M115 34.5C110.425 34.5 106.037 36.3174 102.802 39.5524C99.5674 42.7874 97.75 47.175 97.75 51.75C97.75 56.325 99.5674 60.7126 102.802 63.9476C106.037 67.1826 110.425 69 115 69C119.575 69 123.963 67.1826 127.198 63.9476C130.433 60.7126 132.25 56.325 132.25 51.75C132.25 47.175 130.433 42.7874 127.198 39.5524C123.963 36.3174 119.575 34.5 115 34.5ZM86.25 51.75C86.25 44.125 89.279 36.8124 94.6707 31.4207C100.062 26.029 107.375 23 115 23C122.625 23 129.938 26.029 135.329 31.4207C140.721 36.8124 143.75 44.125 143.75 51.75C143.75 59.375 140.721 66.6876 135.329 72.0793C129.938 77.471 122.625 80.5 115 80.5C107.375 80.5 100.062 77.471 94.6707 72.0793C89.279 66.6876 86.25 59.375 86.25 51.75ZM178.25 46C175.2 46 172.275 47.2116 170.118 49.3683C167.962 51.5249 166.75 54.45 166.75 57.5C166.75 60.55 167.962 63.4751 170.118 65.6317C172.275 67.7884 175.2 69 178.25 69C181.3 69 184.225 67.7884 186.382 65.6317C188.538 63.4751 189.75 60.55 189.75 57.5C189.75 54.45 188.538 51.5249 186.382 49.3683C184.225 47.2116 181.3 46 178.25 46ZM155.25 57.5C155.25 51.4 157.673 45.5499 161.987 41.2365C166.3 36.9232 172.15 34.5 178.25 34.5C184.35 34.5 190.2 36.9232 194.513 41.2365C198.827 45.5499 201.25 51.4 201.25 57.5C201.25 63.6 198.827 69.4501 194.513 73.7635C190.2 78.0768 184.35 80.5 178.25 80.5C172.15 80.5 166.3 78.0768 161.987 73.7635C157.673 69.4501 155.25 63.6 155.25 57.5ZM40.25 57.5C40.25 54.45 41.4616 51.5249 43.6183 49.3683C45.7749 47.2116 48.7 46 51.75 46C54.8 46 57.7251 47.2116 59.8817 49.3683C62.0384 51.5249 63.25 54.45 63.25 57.5C63.25 60.55 62.0384 63.4751 59.8817 65.6317C57.7251 67.7884 54.8 69 51.75 69C48.7 69 45.7749 67.7884 43.6183 65.6317C41.4616 63.4751 40.25 60.55 40.25 57.5ZM51.75 34.5C45.65 34.5 39.7999 36.9232 35.4865 41.2365C31.1732 45.5499 28.75 51.4 28.75 57.5C28.75 63.6 31.1732 69.4501 35.4865 73.7635C39.7999 78.0768 45.65 80.5 51.75 80.5C57.85 80.5 63.7001 78.0768 68.0135 73.7635C72.3268 69.4501 74.75 63.6 74.75 57.5C74.75 51.4 72.3268 45.5499 68.0135 41.2365C63.7001 36.9232 57.85 34.5 51.75 34.5ZM58.65 172.477L57.5 172.5C51.4 172.5 45.5499 170.077 41.2365 165.763C36.9232 161.45 34.5 155.6 34.5 149.5V106.375C34.5 105.613 34.8029 104.881 35.3421 104.342C35.8812 103.803 36.6125 103.5 37.375 103.5H57.661C58.121 99.2795 59.616 95.358 61.8585 92H37.375C29.44 92 23 98.44 23 106.375V149.5C22.9995 154.423 24.0527 159.29 26.0889 163.772C28.1251 168.255 31.0972 172.25 34.8054 175.488C38.5136 178.727 42.872 181.135 47.5878 182.549C52.3036 183.964 57.2675 184.353 62.146 183.689C60.601 180.081 59.4296 176.324 58.65 172.477ZM167.854 183.689C169.372 183.896 170.921 184 172.5 184C181.65 184 190.425 180.365 196.895 173.895C203.365 167.425 207 158.65 207 149.5V106.375C207 98.44 200.56 92 192.625 92H168.142C170.396 95.358 171.879 99.2795 172.339 103.5H192.625C193.387 103.5 194.119 103.803 194.658 104.342C195.197 104.881 195.5 105.613 195.5 106.375V149.5C195.501 152.618 194.868 155.703 193.639 158.569C192.411 161.434 190.612 164.02 188.354 166.169C186.095 168.318 183.423 169.985 180.5 171.07C177.577 172.154 174.464 172.633 171.35 172.477C170.57 176.324 169.399 180.081 167.854 183.689ZM83.375 92C75.44 92 69 98.44 69 106.375V161C69 173.2 73.8464 184.9 82.4731 193.527C91.0998 202.154 102.8 207 115 207C127.2 207 138.9 202.154 147.527 193.527C156.154 184.9 161 173.2 161 161V106.375C161 98.44 154.56 92 146.625 92H83.375ZM80.5 106.375C80.5 105.613 80.8029 104.881 81.3421 104.342C81.8812 103.803 82.6125 103.5 83.375 103.5H146.625C147.387 103.5 148.119 103.803 148.658 104.342C149.197 104.881 149.5 105.613 149.5 106.375V161C149.5 170.15 145.865 178.925 139.395 185.395C132.925 191.865 124.15 195.5 115 195.5C105.85 195.5 97.0748 191.865 90.6048 185.395C84.1348 178.925 80.5 170.15 80.5 161V106.375Z" fill="#CCCCCC"/>
</svg>
