<svg width="1517" height="308" viewBox="0 0 1517 308" fill="none" xmlns="http://www.w3.org/2000/svg">
<ellipse cx="153.5" cy="154" rx="153.5" ry="154" fill="url(#paint0_linear_669_4266)"/>
<path d="M108 117.28C107.733 116.987 107.347 116.68 106.84 116.36C106.333 116.013 105.733 115.693 105.04 115.4C104.347 115.107 103.6 114.867 102.8 114.68C102 114.493 101.173 114.4 100.32 114.4C98.4533 114.4 97.0667 114.747 96.16 115.44C95.2533 116.133 94.8 117.093 94.8 118.32C94.8 119.227 95.0533 119.947 95.56 120.48C96.0667 120.987 96.84 121.413 97.88 121.76C98.92 122.107 100.227 122.48 101.8 122.88C103.72 123.333 105.387 123.88 106.8 124.52C108.213 125.133 109.293 125.96 110.04 127C110.787 128.04 111.16 129.413 111.16 131.12C111.16 132.56 110.893 133.8 110.36 134.84C109.827 135.88 109.08 136.733 108.12 137.4C107.16 138.04 106.053 138.52 104.8 138.84C103.547 139.133 102.2 139.28 100.76 139.28C99.3467 139.28 97.9333 139.133 96.52 138.84C95.1333 138.547 93.8 138.12 92.52 137.56C91.2667 136.973 90.1067 136.267 89.04 135.44L91.08 131.6C91.4267 131.947 91.92 132.333 92.56 132.76C93.2267 133.16 93.9867 133.547 94.84 133.92C95.72 134.293 96.6667 134.613 97.68 134.88C98.72 135.12 99.7733 135.24 100.84 135.24C102.627 135.24 103.987 134.933 104.92 134.32C105.88 133.68 106.36 132.773 106.36 131.6C106.36 130.64 106.053 129.88 105.44 129.32C104.827 128.733 103.933 128.24 102.76 127.84C101.587 127.44 100.187 127.04 98.56 126.64C96.6933 126.133 95.1333 125.587 93.88 125C92.6267 124.387 91.68 123.613 91.04 122.68C90.4267 121.72 90.12 120.507 90.12 119.04C90.12 117.173 90.5733 115.6 91.48 114.32C92.3867 113.013 93.6133 112.04 95.16 111.4C96.7333 110.733 98.4933 110.4 100.44 110.4C101.72 110.4 102.933 110.547 104.08 110.84C105.227 111.107 106.293 111.48 107.28 111.96C108.293 112.44 109.213 112.987 110.04 113.6L108 117.28ZM115.093 139V118.08H119.493V139H115.093ZM115.093 114.64V109.8H119.493V114.64H115.093ZM156.781 139H152.381V127.28C152.381 125.333 152.061 123.907 151.421 123C150.781 122.093 149.847 121.64 148.621 121.64C147.394 121.64 146.247 122.107 145.181 123.04C144.141 123.947 143.407 125.133 142.981 126.6V139H138.581V127.28C138.581 125.333 138.261 123.907 137.621 123C136.981 122.093 136.061 121.64 134.861 121.64C133.634 121.64 132.487 122.093 131.421 123C130.381 123.907 129.634 125.093 129.181 126.56V139H124.781V118.08H128.781V122.28C129.607 120.813 130.687 119.693 132.021 118.92C133.381 118.12 134.927 117.72 136.661 117.72C138.394 117.72 139.754 118.173 140.741 119.08C141.754 119.987 142.381 121.12 142.621 122.48C143.527 120.933 144.634 119.76 145.941 118.96C147.274 118.133 148.794 117.72 150.501 117.72C151.727 117.72 152.754 117.947 153.581 118.4C154.407 118.853 155.047 119.48 155.501 120.28C155.954 121.053 156.274 121.96 156.461 123C156.674 124.013 156.781 125.093 156.781 126.24V139ZM173.731 139.4C172.051 139.4 170.571 139 169.291 138.2C168.011 137.4 166.998 136.36 166.251 135.08V147.52H161.851V118.08H165.731V121.84C166.531 120.587 167.571 119.587 168.851 118.84C170.131 118.093 171.558 117.72 173.131 117.72C174.571 117.72 175.891 118.013 177.091 118.6C178.291 119.16 179.331 119.947 180.211 120.96C181.091 121.973 181.771 123.133 182.251 124.44C182.758 125.72 183.011 127.08 183.011 128.52C183.011 130.52 182.611 132.347 181.811 134C181.038 135.653 179.944 136.973 178.531 137.96C177.144 138.92 175.544 139.4 173.731 139.4ZM172.291 135.64C173.224 135.64 174.064 135.44 174.811 135.04C175.584 134.64 176.238 134.107 176.771 133.44C177.331 132.773 177.758 132.013 178.051 131.16C178.344 130.307 178.491 129.427 178.491 128.52C178.491 127.56 178.331 126.653 178.011 125.8C177.691 124.947 177.224 124.2 176.611 123.56C176.024 122.92 175.331 122.413 174.531 122.04C173.758 121.667 172.904 121.48 171.971 121.48C171.411 121.48 170.824 121.587 170.211 121.8C169.598 122.013 169.024 122.307 168.491 122.68C167.958 123.053 167.491 123.493 167.091 124C166.691 124.507 166.411 125.04 166.251 125.6V131.08C166.624 131.933 167.118 132.707 167.731 133.4C168.344 134.067 169.051 134.613 169.851 135.04C170.651 135.44 171.464 135.64 172.291 135.64ZM187.008 109.8H191.408V132.96C191.408 134.027 191.568 134.707 191.888 135C192.208 135.293 192.608 135.44 193.088 135.44C193.621 135.44 194.115 135.387 194.568 135.28C195.048 135.173 195.461 135.04 195.808 134.88L196.448 138.36C195.808 138.627 195.048 138.853 194.168 139.04C193.288 139.227 192.501 139.32 191.808 139.32C190.315 139.32 189.141 138.907 188.288 138.08C187.435 137.227 187.008 136.053 187.008 134.56V109.8ZM208.479 139.4C206.853 139.4 205.373 139.12 204.039 138.56C202.733 137.973 201.599 137.187 200.639 136.2C199.679 135.187 198.933 134.04 198.399 132.76C197.893 131.453 197.639 130.067 197.639 128.6C197.639 126.627 198.093 124.827 198.999 123.2C199.906 121.547 201.173 120.227 202.799 119.24C204.426 118.227 206.333 117.72 208.519 117.72C210.706 117.72 212.586 118.227 214.159 119.24C215.759 120.227 216.999 121.533 217.879 123.16C218.759 124.787 219.199 126.533 219.199 128.4C219.199 128.72 219.186 129.027 219.159 129.32C219.133 129.587 219.106 129.813 219.079 130H202.319C202.399 131.227 202.733 132.307 203.319 133.24C203.933 134.147 204.706 134.867 205.639 135.4C206.573 135.907 207.573 136.16 208.639 136.16C209.813 136.16 210.919 135.867 211.959 135.28C213.026 134.693 213.746 133.92 214.119 132.96L217.879 134.04C217.426 135.053 216.733 135.973 215.799 136.8C214.893 137.6 213.813 138.24 212.559 138.72C211.306 139.173 209.946 139.4 208.479 139.4ZM202.199 127.08H214.839C214.759 125.88 214.413 124.827 213.799 123.92C213.213 122.987 212.453 122.267 211.519 121.76C210.613 121.227 209.599 120.96 208.479 120.96C207.386 120.96 206.373 121.227 205.439 121.76C204.533 122.267 203.786 122.987 203.199 123.92C202.613 124.827 202.279 125.88 202.199 127.08Z" fill="white"/>
<path d="M129.62 187.28C128.407 187.28 127.315 186.963 126.344 186.328C125.392 185.693 124.636 184.909 124.076 183.976V192.964H122.172V172.412H123.88V175.24C124.459 174.325 125.234 173.588 126.204 173.028C127.175 172.449 128.211 172.16 129.312 172.16C130.32 172.16 131.244 172.375 132.084 172.804C132.924 173.215 133.652 173.775 134.268 174.484C134.884 175.193 135.36 176.005 135.696 176.92C136.051 177.816 136.228 178.749 136.228 179.72C136.228 181.083 135.948 182.343 135.388 183.5C134.847 184.639 134.082 185.553 133.092 186.244C132.103 186.935 130.946 187.28 129.62 187.28ZM129.088 185.6C129.891 185.6 130.61 185.441 131.244 185.124C131.879 184.788 132.42 184.34 132.868 183.78C133.335 183.22 133.69 182.595 133.932 181.904C134.175 181.195 134.296 180.467 134.296 179.72C134.296 178.936 134.156 178.189 133.876 177.48C133.615 176.771 133.232 176.145 132.728 175.604C132.224 175.063 131.646 174.633 130.992 174.316C130.339 173.999 129.63 173.84 128.864 173.84C128.379 173.84 127.875 173.933 127.352 174.12C126.83 174.307 126.326 174.577 125.84 174.932C125.374 175.268 124.982 175.651 124.664 176.08C124.347 176.509 124.151 176.967 124.076 177.452V181.932C124.375 182.623 124.776 183.248 125.28 183.808C125.784 184.349 126.363 184.788 127.016 185.124C127.688 185.441 128.379 185.6 129.088 185.6ZM145.754 187.28C144.708 187.28 143.738 187.084 142.842 186.692C141.946 186.281 141.171 185.731 140.518 185.04C139.864 184.331 139.351 183.519 138.978 182.604C138.623 181.689 138.446 180.709 138.446 179.664C138.446 178.301 138.754 177.051 139.37 175.912C140.004 174.773 140.872 173.868 141.974 173.196C143.075 172.505 144.326 172.16 145.726 172.16C147.163 172.16 148.414 172.505 149.478 173.196C150.56 173.887 151.41 174.801 152.026 175.94C152.642 177.06 152.95 178.292 152.95 179.636C152.95 179.785 152.95 179.935 152.95 180.084C152.95 180.215 152.94 180.317 152.922 180.392H140.434C140.527 181.437 140.816 182.371 141.302 183.192C141.806 183.995 142.45 184.639 143.234 185.124C144.036 185.591 144.904 185.824 145.838 185.824C146.79 185.824 147.686 185.581 148.526 185.096C149.384 184.611 149.982 183.976 150.318 183.192L151.97 183.64C151.671 184.331 151.214 184.956 150.598 185.516C149.982 186.076 149.254 186.515 148.414 186.832C147.592 187.131 146.706 187.28 145.754 187.28ZM140.378 179.02H151.158C151.083 177.956 150.794 177.023 150.29 176.22C149.804 175.417 149.16 174.792 148.358 174.344C147.574 173.877 146.706 173.644 145.754 173.644C144.802 173.644 143.934 173.877 143.15 174.344C142.366 174.792 141.722 175.427 141.218 176.248C140.732 177.051 140.452 177.975 140.378 179.02ZM163.167 174.092C161.898 174.129 160.778 174.484 159.807 175.156C158.855 175.828 158.183 176.752 157.791 177.928V187H155.887V172.412H157.679V175.912C158.183 174.885 158.846 174.055 159.667 173.42C160.507 172.785 161.394 172.431 162.327 172.356C162.514 172.337 162.672 172.328 162.803 172.328C162.952 172.328 163.074 172.337 163.167 172.356V174.092ZM171.455 187.28C170.409 187.28 169.439 187.084 168.543 186.692C167.665 186.281 166.9 185.731 166.247 185.04C165.612 184.331 165.117 183.528 164.763 182.632C164.408 181.717 164.231 180.756 164.231 179.748C164.231 178.703 164.408 177.732 164.763 176.836C165.117 175.921 165.621 175.119 166.275 174.428C166.928 173.719 167.693 173.168 168.571 172.776C169.467 172.365 170.437 172.16 171.483 172.16C172.528 172.16 173.489 172.365 174.367 172.776C175.244 173.168 176.009 173.719 176.663 174.428C177.316 175.119 177.82 175.921 178.175 176.836C178.529 177.732 178.707 178.703 178.707 179.748C178.707 180.756 178.529 181.717 178.175 182.632C177.82 183.528 177.316 184.331 176.663 185.04C176.028 185.731 175.263 186.281 174.367 186.692C173.489 187.084 172.519 187.28 171.455 187.28ZM166.163 179.776C166.163 180.859 166.396 181.848 166.863 182.744C167.348 183.621 167.992 184.321 168.795 184.844C169.597 185.348 170.484 185.6 171.455 185.6C172.425 185.6 173.312 185.339 174.115 184.816C174.917 184.293 175.561 183.584 176.047 182.688C176.532 181.773 176.775 180.784 176.775 179.72C176.775 178.637 176.532 177.648 176.047 176.752C175.561 175.856 174.917 175.147 174.115 174.624C173.312 174.101 172.425 173.84 171.455 173.84C170.484 173.84 169.597 174.111 168.795 174.652C168.011 175.193 167.376 175.912 166.891 176.808C166.405 177.685 166.163 178.675 166.163 179.776ZM106.409 220H104.505V211.852C104.505 210.135 104.253 208.884 103.749 208.1C103.245 207.297 102.452 206.896 101.369 206.896C100.622 206.896 99.8849 207.083 99.1569 207.456C98.4289 207.811 97.7849 208.305 97.2249 208.94C96.6836 209.556 96.2916 210.265 96.0489 211.068V220H94.1449V205.412H95.8809V208.716C96.2729 208.007 96.7863 207.391 97.4209 206.868C98.0556 206.327 98.7743 205.907 99.5769 205.608C100.38 205.309 101.21 205.16 102.069 205.16C102.872 205.16 103.553 205.309 104.113 205.608C104.673 205.907 105.121 206.336 105.457 206.896C105.793 207.437 106.036 208.1 106.185 208.884C106.334 209.649 106.409 210.508 106.409 211.46V220ZM116.685 220.28C115.64 220.28 114.669 220.084 113.773 219.692C112.896 219.281 112.13 218.731 111.477 218.04C110.842 217.331 110.348 216.528 109.993 215.632C109.638 214.717 109.461 213.756 109.461 212.748C109.461 211.703 109.638 210.732 109.993 209.836C110.348 208.921 110.852 208.119 111.505 207.428C112.158 206.719 112.924 206.168 113.801 205.776C114.697 205.365 115.668 205.16 116.713 205.16C117.758 205.16 118.72 205.365 119.597 205.776C120.474 206.168 121.24 206.719 121.893 207.428C122.546 208.119 123.05 208.921 123.405 209.836C123.76 210.732 123.937 211.703 123.937 212.748C123.937 213.756 123.76 214.717 123.405 215.632C123.05 216.528 122.546 217.331 121.893 218.04C121.258 218.731 120.493 219.281 119.597 219.692C118.72 220.084 117.749 220.28 116.685 220.28ZM111.393 212.776C111.393 213.859 111.626 214.848 112.093 215.744C112.578 216.621 113.222 217.321 114.025 217.844C114.828 218.348 115.714 218.6 116.685 218.6C117.656 218.6 118.542 218.339 119.345 217.816C120.148 217.293 120.792 216.584 121.277 215.688C121.762 214.773 122.005 213.784 122.005 212.72C122.005 211.637 121.762 210.648 121.277 209.752C120.792 208.856 120.148 208.147 119.345 207.624C118.542 207.101 117.656 206.84 116.685 206.84C115.714 206.84 114.828 207.111 114.025 207.652C113.241 208.193 112.606 208.912 112.121 209.808C111.636 210.685 111.393 211.675 111.393 212.776ZM141.398 220.28C140.26 220.28 139.205 219.991 138.234 219.412C137.264 218.815 136.508 218.068 135.966 217.172V220H134.258V199.56H136.162V208.464C136.816 207.475 137.6 206.681 138.514 206.084C139.429 205.468 140.493 205.16 141.706 205.16C142.733 205.16 143.648 205.375 144.45 205.804C145.272 206.233 145.972 206.812 146.55 207.54C147.129 208.249 147.568 209.061 147.866 209.976C148.165 210.872 148.314 211.796 148.314 212.748C148.314 213.775 148.137 214.736 147.782 215.632C147.446 216.528 146.961 217.331 146.326 218.04C145.692 218.731 144.954 219.281 144.114 219.692C143.293 220.084 142.388 220.28 141.398 220.28ZM140.95 218.6C141.734 218.6 142.462 218.441 143.134 218.124C143.806 217.807 144.385 217.368 144.87 216.808C145.356 216.248 145.729 215.623 145.99 214.932C146.252 214.223 146.382 213.495 146.382 212.748C146.382 211.721 146.158 210.76 145.71 209.864C145.281 208.949 144.674 208.221 143.89 207.68C143.125 207.12 142.22 206.84 141.174 206.84C140.428 206.84 139.728 207.008 139.074 207.344C138.44 207.68 137.87 208.128 137.366 208.688C136.881 209.229 136.48 209.827 136.162 210.48V215.016C136.237 215.52 136.433 215.996 136.75 216.444C137.068 216.873 137.46 217.247 137.926 217.564C138.412 217.881 138.916 218.133 139.438 218.32C139.961 218.507 140.465 218.6 140.95 218.6ZM150.363 215.8C150.363 214.885 150.625 214.101 151.147 213.448C151.67 212.776 152.389 212.263 153.303 211.908C154.237 211.535 155.31 211.348 156.523 211.348C157.233 211.348 157.97 211.404 158.735 211.516C159.501 211.628 160.182 211.796 160.779 212.02V210.788C160.779 209.556 160.415 208.576 159.687 207.848C158.959 207.12 157.951 206.756 156.663 206.756C155.879 206.756 155.105 206.905 154.339 207.204C153.593 207.484 152.809 207.904 151.987 208.464L151.259 207.12C152.211 206.467 153.145 205.981 154.059 205.664C154.974 205.328 155.907 205.16 156.859 205.16C158.651 205.16 160.07 205.673 161.115 206.7C162.161 207.727 162.683 209.145 162.683 210.956V217.704C162.683 217.965 162.739 218.161 162.851 218.292C162.963 218.404 163.141 218.469 163.383 218.488V220C163.178 220.019 163.001 220.037 162.851 220.056C162.702 220.075 162.59 220.075 162.515 220.056C162.049 220.037 161.694 219.888 161.451 219.608C161.209 219.328 161.078 219.029 161.059 218.712L161.031 217.648C160.378 218.488 159.529 219.141 158.483 219.608C157.438 220.056 156.374 220.28 155.291 220.28C154.358 220.28 153.509 220.084 152.743 219.692C151.997 219.281 151.409 218.74 150.979 218.068C150.569 217.377 150.363 216.621 150.363 215.8ZM160.135 216.92C160.341 216.659 160.499 216.407 160.611 216.164C160.723 215.921 160.779 215.707 160.779 215.52V213.392C160.145 213.149 159.482 212.963 158.791 212.832C158.119 212.701 157.438 212.636 156.747 212.636C155.385 212.636 154.283 212.907 153.443 213.448C152.603 213.989 152.183 214.727 152.183 215.66C152.183 216.201 152.323 216.715 152.603 217.2C152.883 217.667 153.294 218.059 153.835 218.376C154.377 218.675 155.011 218.824 155.739 218.824C156.654 218.824 157.503 218.647 158.287 218.292C159.09 217.937 159.706 217.48 160.135 216.92ZM157.475 202.64L156.215 202.164L157.867 199.56H159.883L157.475 202.64ZM171.585 220.28C170.391 220.28 169.28 220.084 168.253 219.692C167.227 219.3 166.34 218.703 165.593 217.9L166.377 216.556C167.199 217.321 168.02 217.881 168.841 218.236C169.681 218.572 170.568 218.74 171.501 218.74C172.64 218.74 173.564 218.516 174.273 218.068C174.983 217.601 175.337 216.939 175.337 216.08C175.337 215.501 175.16 215.063 174.805 214.764C174.469 214.447 173.975 214.195 173.321 214.008C172.687 213.803 171.921 213.588 171.025 213.364C170.017 213.084 169.168 212.795 168.477 212.496C167.805 212.179 167.292 211.787 166.937 211.32C166.601 210.835 166.433 210.209 166.433 209.444C166.433 208.492 166.667 207.708 167.133 207.092C167.619 206.457 168.272 205.981 169.093 205.664C169.933 205.328 170.867 205.16 171.893 205.16C173.013 205.16 174.003 205.337 174.861 205.692C175.72 206.047 176.42 206.541 176.961 207.176L176.037 208.464C175.515 207.867 174.889 207.428 174.161 207.148C173.452 206.849 172.659 206.7 171.781 206.7C171.184 206.7 170.615 206.784 170.073 206.952C169.532 207.101 169.084 207.363 168.729 207.736C168.393 208.091 168.225 208.585 168.225 209.22C168.225 209.743 168.356 210.153 168.617 210.452C168.879 210.732 169.271 210.975 169.793 211.18C170.316 211.367 170.96 211.572 171.725 211.796C172.827 212.095 173.788 212.403 174.609 212.72C175.431 213.019 176.065 213.411 176.513 213.896C176.961 214.381 177.185 215.063 177.185 215.94C177.185 217.303 176.672 218.367 175.645 219.132C174.619 219.897 173.265 220.28 171.585 220.28ZM180.332 220V205.412H182.236V220H180.332ZM180.332 202.36V199.56H182.236V202.36H180.332ZM192.758 220.28C191.694 220.28 190.714 220.084 189.818 219.692C188.941 219.281 188.166 218.721 187.494 218.012C186.841 217.303 186.327 216.491 185.954 215.576C185.599 214.661 185.422 213.691 185.422 212.664C185.422 211.283 185.73 210.023 186.346 208.884C186.962 207.745 187.821 206.84 188.922 206.168C190.023 205.496 191.293 205.16 192.73 205.16C194.093 205.16 195.297 205.477 196.342 206.112C197.387 206.728 198.162 207.568 198.666 208.632L196.818 209.22C196.407 208.473 195.829 207.895 195.082 207.484C194.354 207.055 193.542 206.84 192.646 206.84C191.675 206.84 190.789 207.092 189.986 207.596C189.183 208.1 188.539 208.791 188.054 209.668C187.587 210.545 187.354 211.544 187.354 212.664C187.354 213.765 187.597 214.764 188.082 215.66C188.567 216.556 189.211 217.275 190.014 217.816C190.817 218.339 191.703 218.6 192.674 218.6C193.309 218.6 193.915 218.488 194.494 218.264C195.091 218.04 195.605 217.741 196.034 217.368C196.482 216.976 196.781 216.556 196.93 216.108L198.806 216.668C198.545 217.359 198.106 217.984 197.49 218.544C196.893 219.085 196.183 219.515 195.362 219.832C194.559 220.131 193.691 220.28 192.758 220.28ZM200.621 215.8C200.621 214.885 200.883 214.101 201.405 213.448C201.928 212.776 202.647 212.263 203.561 211.908C204.495 211.535 205.568 211.348 206.781 211.348C207.491 211.348 208.228 211.404 208.993 211.516C209.759 211.628 210.44 211.796 211.037 212.02V210.788C211.037 209.556 210.673 208.576 209.945 207.848C209.217 207.12 208.209 206.756 206.921 206.756C206.137 206.756 205.363 206.905 204.597 207.204C203.851 207.484 203.067 207.904 202.245 208.464L201.517 207.12C202.469 206.467 203.403 205.981 204.317 205.664C205.232 205.328 206.165 205.16 207.117 205.16C208.909 205.16 210.328 205.673 211.373 206.7C212.419 207.727 212.941 209.145 212.941 210.956V217.704C212.941 217.965 212.997 218.161 213.109 218.292C213.221 218.404 213.399 218.469 213.641 218.488V220C213.436 220.019 213.259 220.037 213.109 220.056C212.96 220.075 212.848 220.075 212.773 220.056C212.307 220.037 211.952 219.888 211.709 219.608C211.467 219.328 211.336 219.029 211.317 218.712L211.289 217.648C210.636 218.488 209.787 219.141 208.741 219.608C207.696 220.056 206.632 220.28 205.549 220.28C204.616 220.28 203.767 220.084 203.001 219.692C202.255 219.281 201.667 218.74 201.237 218.068C200.827 217.377 200.621 216.621 200.621 215.8ZM210.393 216.92C210.599 216.659 210.757 216.407 210.869 216.164C210.981 215.921 211.037 215.707 211.037 215.52V213.392C210.403 213.149 209.74 212.963 209.049 212.832C208.377 212.701 207.696 212.636 207.005 212.636C205.643 212.636 204.541 212.907 203.701 213.448C202.861 213.989 202.441 214.727 202.441 215.66C202.441 216.201 202.581 216.715 202.861 217.2C203.141 217.667 203.552 218.059 204.093 218.376C204.635 218.675 205.269 218.824 205.997 218.824C206.912 218.824 207.761 218.647 208.545 218.292C209.348 217.937 209.964 217.48 210.393 216.92Z" fill="white"/>
<ellipse cx="556.5" cy="154" rx="153.5" ry="154" fill="url(#paint1_linear_669_4266)"/>
<path d="M532.12 187.28C530.907 187.28 529.815 186.963 528.844 186.328C527.892 185.693 527.136 184.909 526.576 183.976V192.964H524.672V172.412H526.38V175.24C526.959 174.325 527.734 173.588 528.704 173.028C529.675 172.449 530.711 172.16 531.812 172.16C532.82 172.16 533.744 172.375 534.584 172.804C535.424 173.215 536.152 173.775 536.768 174.484C537.384 175.193 537.86 176.005 538.196 176.92C538.551 177.816 538.728 178.749 538.728 179.72C538.728 181.083 538.448 182.343 537.888 183.5C537.347 184.639 536.582 185.553 535.592 186.244C534.603 186.935 533.446 187.28 532.12 187.28ZM531.588 185.6C532.391 185.6 533.11 185.441 533.744 185.124C534.379 184.788 534.92 184.34 535.368 183.78C535.835 183.22 536.19 182.595 536.432 181.904C536.675 181.195 536.796 180.467 536.796 179.72C536.796 178.936 536.656 178.189 536.376 177.48C536.115 176.771 535.732 176.145 535.228 175.604C534.724 175.063 534.146 174.633 533.492 174.316C532.839 173.999 532.13 173.84 531.364 173.84C530.879 173.84 530.375 173.933 529.852 174.12C529.33 174.307 528.826 174.577 528.34 174.932C527.874 175.268 527.482 175.651 527.164 176.08C526.847 176.509 526.651 176.967 526.576 177.452V181.932C526.875 182.623 527.276 183.248 527.78 183.808C528.284 184.349 528.863 184.788 529.516 185.124C530.188 185.441 530.879 185.6 531.588 185.6ZM548.254 187.28C547.208 187.28 546.238 187.084 545.342 186.692C544.446 186.281 543.671 185.731 543.018 185.04C542.364 184.331 541.851 183.519 541.478 182.604C541.123 181.689 540.946 180.709 540.946 179.664C540.946 178.301 541.254 177.051 541.87 175.912C542.504 174.773 543.372 173.868 544.474 173.196C545.575 172.505 546.826 172.16 548.226 172.16C549.663 172.16 550.914 172.505 551.978 173.196C553.06 173.887 553.91 174.801 554.526 175.94C555.142 177.06 555.45 178.292 555.45 179.636C555.45 179.785 555.45 179.935 555.45 180.084C555.45 180.215 555.44 180.317 555.422 180.392H542.934C543.027 181.437 543.316 182.371 543.802 183.192C544.306 183.995 544.95 184.639 545.734 185.124C546.536 185.591 547.404 185.824 548.338 185.824C549.29 185.824 550.186 185.581 551.026 185.096C551.884 184.611 552.482 183.976 552.818 183.192L554.47 183.64C554.171 184.331 553.714 184.956 553.098 185.516C552.482 186.076 551.754 186.515 550.914 186.832C550.092 187.131 549.206 187.28 548.254 187.28ZM542.878 179.02H553.658C553.583 177.956 553.294 177.023 552.79 176.22C552.304 175.417 551.66 174.792 550.858 174.344C550.074 173.877 549.206 173.644 548.254 173.644C547.302 173.644 546.434 173.877 545.65 174.344C544.866 174.792 544.222 175.427 543.718 176.248C543.232 177.051 542.952 177.975 542.878 179.02ZM565.667 174.092C564.398 174.129 563.278 174.484 562.307 175.156C561.355 175.828 560.683 176.752 560.291 177.928V187H558.387V172.412H560.179V175.912C560.683 174.885 561.346 174.055 562.167 173.42C563.007 172.785 563.894 172.431 564.827 172.356C565.014 172.337 565.172 172.328 565.303 172.328C565.452 172.328 565.574 172.337 565.667 172.356V174.092ZM573.955 187.28C572.909 187.28 571.939 187.084 571.043 186.692C570.165 186.281 569.4 185.731 568.747 185.04C568.112 184.331 567.617 183.528 567.263 182.632C566.908 181.717 566.731 180.756 566.731 179.748C566.731 178.703 566.908 177.732 567.263 176.836C567.617 175.921 568.121 175.119 568.775 174.428C569.428 173.719 570.193 173.168 571.071 172.776C571.967 172.365 572.937 172.16 573.983 172.16C575.028 172.16 575.989 172.365 576.867 172.776C577.744 173.168 578.509 173.719 579.163 174.428C579.816 175.119 580.32 175.921 580.675 176.836C581.029 177.732 581.207 178.703 581.207 179.748C581.207 180.756 581.029 181.717 580.675 182.632C580.32 183.528 579.816 184.331 579.163 185.04C578.528 185.731 577.763 186.281 576.867 186.692C575.989 187.084 575.019 187.28 573.955 187.28ZM568.663 179.776C568.663 180.859 568.896 181.848 569.363 182.744C569.848 183.621 570.492 184.321 571.295 184.844C572.097 185.348 572.984 185.6 573.955 185.6C574.925 185.6 575.812 185.339 576.615 184.816C577.417 184.293 578.061 183.584 578.547 182.688C579.032 181.773 579.275 180.784 579.275 179.72C579.275 178.637 579.032 177.648 578.547 176.752C578.061 175.856 577.417 175.147 576.615 174.624C575.812 174.101 574.925 173.84 573.955 173.84C572.984 173.84 572.097 174.111 571.295 174.652C570.511 175.193 569.876 175.912 569.391 176.808C568.905 177.685 568.663 178.675 568.663 179.776ZM462.493 220H460.589V211.852C460.589 210.135 460.337 208.884 459.833 208.1C459.329 207.297 458.536 206.896 457.453 206.896C456.706 206.896 455.969 207.083 455.241 207.456C454.513 207.811 453.869 208.305 453.309 208.94C452.768 209.556 452.376 210.265 452.133 211.068V220H450.229V205.412H451.965V208.716C452.357 208.007 452.87 207.391 453.505 206.868C454.14 206.327 454.858 205.907 455.661 205.608C456.464 205.309 457.294 205.16 458.153 205.16C458.956 205.16 459.637 205.309 460.197 205.608C460.757 205.907 461.205 206.336 461.541 206.896C461.877 207.437 462.12 208.1 462.269 208.884C462.418 209.649 462.493 210.508 462.493 211.46V220ZM472.769 220.28C471.724 220.28 470.753 220.084 469.857 219.692C468.98 219.281 468.214 218.731 467.561 218.04C466.926 217.331 466.432 216.528 466.077 215.632C465.722 214.717 465.545 213.756 465.545 212.748C465.545 211.703 465.722 210.732 466.077 209.836C466.432 208.921 466.936 208.119 467.589 207.428C468.242 206.719 469.008 206.168 469.885 205.776C470.781 205.365 471.752 205.16 472.797 205.16C473.842 205.16 474.804 205.365 475.681 205.776C476.558 206.168 477.324 206.719 477.977 207.428C478.63 208.119 479.134 208.921 479.489 209.836C479.844 210.732 480.021 211.703 480.021 212.748C480.021 213.756 479.844 214.717 479.489 215.632C479.134 216.528 478.63 217.331 477.977 218.04C477.342 218.731 476.577 219.281 475.681 219.692C474.804 220.084 473.833 220.28 472.769 220.28ZM467.477 212.776C467.477 213.859 467.71 214.848 468.177 215.744C468.662 216.621 469.306 217.321 470.109 217.844C470.912 218.348 471.798 218.6 472.769 218.6C473.74 218.6 474.626 218.339 475.429 217.816C476.232 217.293 476.876 216.584 477.361 215.688C477.846 214.773 478.089 213.784 478.089 212.72C478.089 211.637 477.846 210.648 477.361 209.752C476.876 208.856 476.232 208.147 475.429 207.624C474.626 207.101 473.74 206.84 472.769 206.84C471.798 206.84 470.912 207.111 470.109 207.652C469.325 208.193 468.69 208.912 468.205 209.808C467.72 210.685 467.477 211.675 467.477 212.776ZM490.342 220V205.412H492.246V220H490.342ZM490.342 202.36V199.56H492.246V202.36H490.342ZM503.72 207.092C502.451 207.129 501.331 207.484 500.36 208.156C499.408 208.828 498.736 209.752 498.344 210.928V220H496.44V205.412H498.232V208.912C498.736 207.885 499.399 207.055 500.22 206.42C501.06 205.785 501.947 205.431 502.88 205.356C503.067 205.337 503.225 205.328 503.356 205.328C503.505 205.328 503.627 205.337 503.72 205.356V207.092ZM513.536 207.092C512.267 207.129 511.147 207.484 510.176 208.156C509.224 208.828 508.552 209.752 508.16 210.928V220H506.256V205.412H508.048V208.912C508.552 207.885 509.215 207.055 510.036 206.42C510.876 205.785 511.763 205.431 512.696 205.356C512.883 205.337 513.042 205.328 513.172 205.328C513.322 205.328 513.443 205.337 513.536 205.356V207.092ZM521.908 220.28C520.862 220.28 519.892 220.084 518.996 219.692C518.1 219.281 517.325 218.731 516.672 218.04C516.018 217.331 515.505 216.519 515.132 215.604C514.777 214.689 514.6 213.709 514.6 212.664C514.6 211.301 514.908 210.051 515.524 208.912C516.158 207.773 517.026 206.868 518.128 206.196C519.229 205.505 520.48 205.16 521.88 205.16C523.317 205.16 524.568 205.505 525.632 206.196C526.714 206.887 527.564 207.801 528.18 208.94C528.796 210.06 529.104 211.292 529.104 212.636C529.104 212.785 529.104 212.935 529.104 213.084C529.104 213.215 529.094 213.317 529.076 213.392H516.588C516.681 214.437 516.97 215.371 517.456 216.192C517.96 216.995 518.604 217.639 519.388 218.124C520.19 218.591 521.058 218.824 521.992 218.824C522.944 218.824 523.84 218.581 524.68 218.096C525.538 217.611 526.136 216.976 526.472 216.192L528.124 216.64C527.825 217.331 527.368 217.956 526.752 218.516C526.136 219.076 525.408 219.515 524.568 219.832C523.746 220.131 522.86 220.28 521.908 220.28ZM516.532 212.02H527.312C527.237 210.956 526.948 210.023 526.444 209.22C525.958 208.417 525.314 207.792 524.512 207.344C523.728 206.877 522.86 206.644 521.908 206.644C520.956 206.644 520.088 206.877 519.304 207.344C518.52 207.792 517.876 208.427 517.372 209.248C516.886 210.051 516.606 210.975 516.532 212.02ZM536.829 220.28C535.635 220.28 534.524 220.084 533.497 219.692C532.471 219.3 531.584 218.703 530.837 217.9L531.621 216.556C532.443 217.321 533.264 217.881 534.085 218.236C534.925 218.572 535.812 218.74 536.745 218.74C537.884 218.74 538.808 218.516 539.517 218.068C540.227 217.601 540.581 216.939 540.581 216.08C540.581 215.501 540.404 215.063 540.049 214.764C539.713 214.447 539.219 214.195 538.565 214.008C537.931 213.803 537.165 213.588 536.269 213.364C535.261 213.084 534.412 212.795 533.721 212.496C533.049 212.179 532.536 211.787 532.181 211.32C531.845 210.835 531.677 210.209 531.677 209.444C531.677 208.492 531.911 207.708 532.377 207.092C532.863 206.457 533.516 205.981 534.337 205.664C535.177 205.328 536.111 205.16 537.137 205.16C538.257 205.16 539.247 205.337 540.105 205.692C540.964 206.047 541.664 206.541 542.205 207.176L541.281 208.464C540.759 207.867 540.133 207.428 539.405 207.148C538.696 206.849 537.903 206.7 537.025 206.7C536.428 206.7 535.859 206.784 535.317 206.952C534.776 207.101 534.328 207.363 533.973 207.736C533.637 208.091 533.469 208.585 533.469 209.22C533.469 209.743 533.6 210.153 533.861 210.452C534.123 210.732 534.515 210.975 535.037 211.18C535.56 211.367 536.204 211.572 536.969 211.796C538.071 212.095 539.032 212.403 539.853 212.72C540.675 213.019 541.309 213.411 541.757 213.896C542.205 214.381 542.429 215.063 542.429 215.94C542.429 217.303 541.916 218.367 540.889 219.132C539.863 219.897 538.509 220.28 536.829 220.28ZM553.025 220.28C551.811 220.28 550.719 219.963 549.749 219.328C548.797 218.693 548.041 217.909 547.481 216.976V225.964H545.577V205.412H547.285V208.24C547.863 207.325 548.638 206.588 549.609 206.028C550.579 205.449 551.615 205.16 552.717 205.16C553.725 205.16 554.649 205.375 555.489 205.804C556.329 206.215 557.057 206.775 557.673 207.484C558.289 208.193 558.765 209.005 559.101 209.92C559.455 210.816 559.633 211.749 559.633 212.72C559.633 214.083 559.353 215.343 558.793 216.5C558.251 217.639 557.486 218.553 556.497 219.244C555.507 219.935 554.35 220.28 553.025 220.28ZM552.493 218.6C553.295 218.6 554.014 218.441 554.649 218.124C555.283 217.788 555.825 217.34 556.273 216.78C556.739 216.22 557.094 215.595 557.337 214.904C557.579 214.195 557.701 213.467 557.701 212.72C557.701 211.936 557.561 211.189 557.281 210.48C557.019 209.771 556.637 209.145 556.133 208.604C555.629 208.063 555.05 207.633 554.397 207.316C553.743 206.999 553.034 206.84 552.269 206.84C551.783 206.84 551.279 206.933 550.757 207.12C550.234 207.307 549.73 207.577 549.245 207.932C548.778 208.268 548.386 208.651 548.069 209.08C547.751 209.509 547.555 209.967 547.481 210.452V214.932C547.779 215.623 548.181 216.248 548.685 216.808C549.189 217.349 549.767 217.788 550.421 218.124C551.093 218.441 551.783 218.6 552.493 218.6ZM569.074 220.28C568.028 220.28 567.058 220.084 566.162 219.692C565.284 219.281 564.519 218.731 563.866 218.04C563.231 217.331 562.736 216.528 562.382 215.632C562.027 214.717 561.85 213.756 561.85 212.748C561.85 211.703 562.027 210.732 562.382 209.836C562.736 208.921 563.24 208.119 563.894 207.428C564.547 206.719 565.312 206.168 566.19 205.776C567.086 205.365 568.056 205.16 569.102 205.16C570.147 205.16 571.108 205.365 571.986 205.776C572.863 206.168 573.628 206.719 574.282 207.428C574.935 208.119 575.439 208.921 575.794 209.836C576.148 210.732 576.326 211.703 576.326 212.748C576.326 213.756 576.148 214.717 575.794 215.632C575.439 216.528 574.935 217.331 574.282 218.04C573.647 218.731 572.882 219.281 571.986 219.692C571.108 220.084 570.138 220.28 569.074 220.28ZM563.782 212.776C563.782 213.859 564.015 214.848 564.482 215.744C564.967 216.621 565.611 217.321 566.414 217.844C567.216 218.348 568.103 218.6 569.074 218.6C570.044 218.6 570.931 218.339 571.734 217.816C572.536 217.293 573.18 216.584 573.666 215.688C574.151 214.773 574.394 213.784 574.394 212.72C574.394 211.637 574.151 210.648 573.666 209.752C573.18 208.856 572.536 208.147 571.734 207.624C570.931 207.101 570.044 206.84 569.074 206.84C568.103 206.84 567.216 207.111 566.414 207.652C565.63 208.193 564.995 208.912 564.51 209.808C564.024 210.685 563.782 211.675 563.782 212.776ZM591.774 220H589.87V211.852C589.87 210.135 589.618 208.884 589.114 208.1C588.61 207.297 587.817 206.896 586.734 206.896C585.987 206.896 585.25 207.083 584.522 207.456C583.794 207.811 583.15 208.305 582.59 208.94C582.049 209.556 581.657 210.265 581.414 211.068V220H579.51V205.412H581.246V208.716C581.638 208.007 582.151 207.391 582.786 206.868C583.421 206.327 584.139 205.907 584.942 205.608C585.745 205.309 586.575 205.16 587.434 205.16C588.237 205.16 588.918 205.309 589.478 205.608C590.038 205.907 590.486 206.336 590.822 206.896C591.158 207.437 591.401 208.1 591.55 208.884C591.699 209.649 591.774 210.508 591.774 211.46V220ZM600.622 220.28C599.428 220.28 598.317 220.084 597.29 219.692C596.264 219.3 595.377 218.703 594.63 217.9L595.414 216.556C596.236 217.321 597.057 217.881 597.878 218.236C598.718 218.572 599.605 218.74 600.538 218.74C601.677 218.74 602.601 218.516 603.31 218.068C604.02 217.601 604.374 216.939 604.374 216.08C604.374 215.501 604.197 215.063 603.842 214.764C603.506 214.447 603.012 214.195 602.358 214.008C601.724 213.803 600.958 213.588 600.062 213.364C599.054 213.084 598.205 212.795 597.514 212.496C596.842 212.179 596.329 211.787 595.974 211.32C595.638 210.835 595.47 210.209 595.47 209.444C595.47 208.492 595.704 207.708 596.17 207.092C596.656 206.457 597.309 205.981 598.13 205.664C598.97 205.328 599.904 205.16 600.93 205.16C602.05 205.16 603.04 205.337 603.898 205.692C604.757 206.047 605.457 206.541 605.998 207.176L605.074 208.464C604.552 207.867 603.926 207.428 603.198 207.148C602.489 206.849 601.696 206.7 600.818 206.7C600.221 206.7 599.652 206.784 599.11 206.952C598.569 207.101 598.121 207.363 597.766 207.736C597.43 208.091 597.262 208.585 597.262 209.22C597.262 209.743 597.393 210.153 597.654 210.452C597.916 210.732 598.308 210.975 598.83 211.18C599.353 211.367 599.997 211.572 600.762 211.796C601.864 212.095 602.825 212.403 603.646 212.72C604.468 213.019 605.102 213.411 605.55 213.896C605.998 214.381 606.222 215.063 606.222 215.94C606.222 217.303 605.709 218.367 604.682 219.132C603.656 219.897 602.302 220.28 600.622 220.28ZM608.194 215.8C608.194 214.885 608.455 214.101 608.978 213.448C609.5 212.776 610.219 212.263 611.134 211.908C612.067 211.535 613.14 211.348 614.354 211.348C615.063 211.348 615.8 211.404 616.566 211.516C617.331 211.628 618.012 211.796 618.61 212.02V210.788C618.61 209.556 618.246 208.576 617.518 207.848C616.79 207.12 615.782 206.756 614.494 206.756C613.71 206.756 612.935 206.905 612.17 207.204C611.423 207.484 610.639 207.904 609.818 208.464L609.09 207.12C610.042 206.467 610.975 205.981 611.89 205.664C612.804 205.328 613.738 205.16 614.69 205.16C616.482 205.16 617.9 205.673 618.946 206.7C619.991 207.727 620.514 209.145 620.514 210.956V217.704C620.514 217.965 620.57 218.161 620.682 218.292C620.794 218.404 620.971 218.469 621.214 218.488V220C621.008 220.019 620.831 220.037 620.682 220.056C620.532 220.075 620.42 220.075 620.346 220.056C619.879 220.037 619.524 219.888 619.282 219.608C619.039 219.328 618.908 219.029 618.89 218.712L618.862 217.648C618.208 218.488 617.359 219.141 616.314 219.608C615.268 220.056 614.204 220.28 613.122 220.28C612.188 220.28 611.339 220.084 610.574 219.692C609.827 219.281 609.239 218.74 608.81 218.068C608.399 217.377 608.194 216.621 608.194 215.8ZM617.966 216.92C618.171 216.659 618.33 216.407 618.442 216.164C618.554 215.921 618.61 215.707 618.61 215.52V213.392C617.975 213.149 617.312 212.963 616.622 212.832C615.95 212.701 615.268 212.636 614.578 212.636C613.215 212.636 612.114 212.907 611.274 213.448C610.434 213.989 610.014 214.727 610.014 215.66C610.014 216.201 610.154 216.715 610.434 217.2C610.714 217.667 611.124 218.059 611.666 218.376C612.207 218.675 612.842 218.824 613.57 218.824C614.484 218.824 615.334 218.647 616.118 218.292C616.92 217.937 617.536 217.48 617.966 216.92ZM631.767 220.28C630.629 220.28 629.574 219.991 628.603 219.412C627.633 218.815 626.877 218.068 626.335 217.172V220H624.627V199.56H626.531V208.464C627.185 207.475 627.969 206.681 628.883 206.084C629.798 205.468 630.862 205.16 632.075 205.16C633.102 205.16 634.017 205.375 634.819 205.804C635.641 206.233 636.341 206.812 636.919 207.54C637.498 208.249 637.937 209.061 638.235 209.976C638.534 210.872 638.683 211.796 638.683 212.748C638.683 213.775 638.506 214.736 638.151 215.632C637.815 216.528 637.33 217.331 636.695 218.04C636.061 218.731 635.323 219.281 634.483 219.692C633.662 220.084 632.757 220.28 631.767 220.28ZM631.319 218.6C632.103 218.6 632.831 218.441 633.503 218.124C634.175 217.807 634.754 217.368 635.239 216.808C635.725 216.248 636.098 215.623 636.359 214.932C636.621 214.223 636.751 213.495 636.751 212.748C636.751 211.721 636.527 210.76 636.079 209.864C635.65 208.949 635.043 208.221 634.259 207.68C633.494 207.12 632.589 206.84 631.543 206.84C630.797 206.84 630.097 207.008 629.443 207.344C628.809 207.68 628.239 208.128 627.735 208.688C627.25 209.229 626.849 209.827 626.531 210.48V215.016C626.606 215.52 626.802 215.996 627.119 216.444C627.437 216.873 627.829 217.247 628.295 217.564C628.781 217.881 629.285 218.133 629.807 218.32C630.33 218.507 630.834 218.6 631.319 218.6ZM641.993 199.56H643.897V216.696C643.897 217.424 644.027 217.9 644.289 218.124C644.55 218.348 644.867 218.46 645.241 218.46C645.577 218.46 645.913 218.423 646.249 218.348C646.585 218.273 646.874 218.199 647.117 218.124L647.453 219.664C647.098 219.813 646.659 219.935 646.137 220.028C645.633 220.121 645.194 220.168 644.821 220.168C643.962 220.168 643.271 219.916 642.749 219.412C642.245 218.908 641.993 218.217 641.993 217.34V199.56ZM655.838 220.28C654.792 220.28 653.822 220.084 652.926 219.692C652.03 219.281 651.255 218.731 650.602 218.04C649.948 217.331 649.435 216.519 649.062 215.604C648.707 214.689 648.53 213.709 648.53 212.664C648.53 211.301 648.838 210.051 649.454 208.912C650.088 207.773 650.956 206.868 652.058 206.196C653.159 205.505 654.41 205.16 655.81 205.16C657.247 205.16 658.498 205.505 659.562 206.196C660.644 206.887 661.494 207.801 662.11 208.94C662.726 210.06 663.034 211.292 663.034 212.636C663.034 212.785 663.034 212.935 663.034 213.084C663.034 213.215 663.024 213.317 663.006 213.392H650.518C650.611 214.437 650.9 215.371 651.386 216.192C651.89 216.995 652.534 217.639 653.318 218.124C654.12 218.591 654.988 218.824 655.922 218.824C656.874 218.824 657.77 218.581 658.61 218.096C659.468 217.611 660.066 216.976 660.402 216.192L662.054 216.64C661.755 217.331 661.298 217.956 660.682 218.516C660.066 219.076 659.338 219.515 658.498 219.832C657.676 220.131 656.79 220.28 655.838 220.28ZM650.462 212.02H661.242C661.167 210.956 660.878 210.023 660.374 209.22C659.888 208.417 659.244 207.792 658.442 207.344C657.658 206.877 656.79 206.644 655.838 206.644C654.886 206.644 654.018 206.877 653.234 207.344C652.45 207.792 651.806 208.427 651.302 209.248C650.816 210.051 650.536 210.975 650.462 212.02Z" fill="white"/>
<path d="M494.4 124.6C494.4 122.867 494.707 121.173 495.32 119.52C495.933 117.84 496.827 116.32 498 114.96C499.2 113.573 500.653 112.48 502.36 111.68C504.067 110.853 506 110.44 508.16 110.44C510.72 110.44 512.933 111.027 514.8 112.2C516.667 113.347 518.053 114.827 518.96 116.64L515.44 119C514.907 117.853 514.227 116.947 513.4 116.28C512.6 115.613 511.72 115.147 510.76 114.88C509.827 114.613 508.907 114.48 508 114.48C506.507 114.48 505.2 114.787 504.08 115.4C502.96 115.987 502.013 116.773 501.24 117.76C500.493 118.747 499.92 119.853 499.52 121.08C499.147 122.307 498.96 123.533 498.96 124.76C498.96 126.12 499.187 127.44 499.64 128.72C500.093 129.973 500.72 131.093 501.52 132.08C502.347 133.04 503.32 133.8 504.44 134.36C505.56 134.92 506.787 135.2 508.12 135.2C509.027 135.2 509.973 135.04 510.96 134.72C511.947 134.4 512.853 133.907 513.68 133.24C514.533 132.547 515.2 131.64 515.68 130.52L519.4 132.64C518.813 134.053 517.893 135.253 516.64 136.24C515.413 137.227 514.027 137.973 512.48 138.48C510.96 138.987 509.453 139.24 507.96 139.24C505.96 139.24 504.133 138.827 502.48 138C500.827 137.147 499.4 136.027 498.2 134.64C497 133.227 496.067 131.653 495.4 129.92C494.733 128.16 494.4 126.387 494.4 124.6ZM521.464 132.88C521.464 131.547 521.837 130.387 522.584 129.4C523.357 128.387 524.41 127.613 525.744 127.08C527.077 126.52 528.624 126.24 530.384 126.24C531.317 126.24 532.264 126.307 533.224 126.44C534.21 126.573 535.077 126.787 535.824 127.08V125.76C535.824 124.293 535.384 123.147 534.504 122.32C533.624 121.493 532.357 121.08 530.704 121.08C529.53 121.08 528.424 121.293 527.384 121.72C526.344 122.12 525.237 122.693 524.064 123.44L522.584 120.48C523.97 119.547 525.357 118.853 526.744 118.4C528.157 117.947 529.637 117.72 531.184 117.72C533.984 117.72 536.184 118.467 537.784 119.96C539.41 121.427 540.224 123.52 540.224 126.24V134.04C540.224 134.547 540.304 134.907 540.464 135.12C540.65 135.333 540.957 135.453 541.384 135.48V139C540.984 139.08 540.624 139.133 540.304 139.16C539.984 139.187 539.717 139.2 539.504 139.2C538.57 139.2 537.864 138.973 537.384 138.52C536.904 138.067 536.624 137.533 536.544 136.92L536.424 135.72C535.517 136.893 534.357 137.8 532.944 138.44C531.53 139.08 530.104 139.4 528.664 139.4C527.277 139.4 526.037 139.12 524.944 138.56C523.85 137.973 522.997 137.187 522.384 136.2C521.77 135.213 521.464 134.107 521.464 132.88ZM534.784 134.16C535.104 133.813 535.357 133.467 535.544 133.12C535.73 132.773 535.824 132.467 535.824 132.2V129.8C535.077 129.507 534.29 129.293 533.464 129.16C532.637 129 531.824 128.92 531.024 128.92C529.424 128.92 528.117 129.24 527.104 129.88C526.117 130.52 525.624 131.4 525.624 132.52C525.624 133.133 525.784 133.72 526.104 134.28C526.45 134.84 526.93 135.293 527.544 135.64C528.184 135.987 528.97 136.16 529.904 136.16C530.864 136.16 531.784 135.973 532.664 135.6C533.544 135.227 534.25 134.747 534.784 134.16ZM553.002 139.4C551.242 139.4 549.575 139.12 548.002 138.56C546.429 137.973 545.082 137.107 543.962 135.96L545.602 133C546.802 134.067 548.002 134.84 549.202 135.32C550.429 135.8 551.642 136.04 552.842 136.04C554.069 136.04 555.069 135.813 555.842 135.36C556.615 134.88 557.002 134.187 557.002 133.28C557.002 132.613 556.802 132.12 556.402 131.8C556.002 131.48 555.415 131.2 554.642 130.96C553.895 130.72 552.989 130.453 551.922 130.16C550.429 129.707 549.175 129.24 548.162 128.76C547.149 128.253 546.389 127.64 545.882 126.92C545.375 126.2 545.122 125.28 545.122 124.16C545.122 122.8 545.469 121.64 546.162 120.68C546.855 119.72 547.815 118.987 549.042 118.48C550.295 117.973 551.735 117.72 553.362 117.72C554.882 117.72 556.282 117.96 557.562 118.44C558.869 118.893 560.015 119.613 561.002 120.6L559.122 123.52C558.189 122.667 557.229 122.04 556.242 121.64C555.282 121.24 554.242 121.04 553.122 121.04C552.482 121.04 551.869 121.12 551.282 121.28C550.695 121.413 550.202 121.68 549.802 122.08C549.429 122.453 549.242 122.987 549.242 123.68C549.242 124.24 549.402 124.693 549.722 125.04C550.042 125.387 550.522 125.68 551.162 125.92C551.802 126.16 552.589 126.427 553.522 126.72C555.149 127.2 556.535 127.68 557.682 128.16C558.829 128.613 559.709 129.213 560.322 129.96C560.962 130.68 561.282 131.68 561.282 132.96C561.282 134.987 560.522 136.573 559.002 137.72C557.509 138.84 555.509 139.4 553.002 139.4ZM565.01 130.88V118.08H569.41V130C569.41 131.867 569.744 133.28 570.41 134.24C571.104 135.173 572.104 135.64 573.41 135.64C574.237 135.64 575.037 135.467 575.81 135.12C576.61 134.773 577.33 134.267 577.97 133.6C578.637 132.907 579.17 132.08 579.57 131.12V118.08H583.97V134.04C583.97 134.547 584.064 134.907 584.25 135.12C584.437 135.333 584.744 135.453 585.17 135.48V139C584.717 139.08 584.344 139.133 584.05 139.16C583.757 139.187 583.477 139.2 583.21 139.2C582.41 139.2 581.744 138.987 581.21 138.56C580.677 138.107 580.37 137.533 580.29 136.84L580.21 134.76C579.277 136.28 578.064 137.44 576.57 138.24C575.077 139.013 573.437 139.4 571.65 139.4C569.464 139.4 567.81 138.68 566.69 137.24C565.57 135.8 565.01 133.68 565.01 130.88ZM588.065 132.88C588.065 131.547 588.439 130.387 589.185 129.4C589.959 128.387 591.012 127.613 592.345 127.08C593.679 126.52 595.225 126.24 596.985 126.24C597.919 126.24 598.865 126.307 599.825 126.44C600.812 126.573 601.679 126.787 602.425 127.08V125.76C602.425 124.293 601.985 123.147 601.105 122.32C600.225 121.493 598.959 121.08 597.305 121.08C596.132 121.08 595.025 121.293 593.985 121.72C592.945 122.12 591.839 122.693 590.665 123.44L589.185 120.48C590.572 119.547 591.959 118.853 593.345 118.4C594.759 117.947 596.239 117.72 597.785 117.72C600.585 117.72 602.785 118.467 604.385 119.96C606.012 121.427 606.825 123.52 606.825 126.24V134.04C606.825 134.547 606.905 134.907 607.065 135.12C607.252 135.333 607.559 135.453 607.985 135.48V139C607.585 139.08 607.225 139.133 606.905 139.16C606.585 139.187 606.319 139.2 606.105 139.2C605.172 139.2 604.465 138.973 603.985 138.52C603.505 138.067 603.225 137.533 603.145 136.92L603.025 135.72C602.119 136.893 600.959 137.8 599.545 138.44C598.132 139.08 596.705 139.4 595.265 139.4C593.879 139.4 592.639 139.12 591.545 138.56C590.452 137.973 589.599 137.187 588.985 136.2C588.372 135.213 588.065 134.107 588.065 132.88ZM601.385 134.16C601.705 133.813 601.959 133.467 602.145 133.12C602.332 132.773 602.425 132.467 602.425 132.2V129.8C601.679 129.507 600.892 129.293 600.065 129.16C599.239 129 598.425 128.92 597.625 128.92C596.025 128.92 594.719 129.24 593.705 129.88C592.719 130.52 592.225 131.4 592.225 132.52C592.225 133.133 592.385 133.72 592.705 134.28C593.052 134.84 593.532 135.293 594.145 135.64C594.785 135.987 595.572 136.16 596.505 136.16C597.465 136.16 598.385 135.973 599.265 135.6C600.145 135.227 600.852 134.747 601.385 134.16ZM612.203 109.8H616.603V132.96C616.603 134.027 616.763 134.707 617.083 135C617.403 135.293 617.803 135.44 618.283 135.44C618.817 135.44 619.31 135.387 619.763 135.28C620.243 135.173 620.657 135.04 621.003 134.88L621.643 138.36C621.003 138.627 620.243 138.853 619.363 139.04C618.483 139.227 617.697 139.32 617.003 139.32C615.51 139.32 614.337 138.907 613.483 138.08C612.63 137.227 612.203 136.053 612.203 134.56V109.8Z" fill="white"/>
<ellipse cx="1363.5" cy="154" rx="153.5" ry="154" fill="url(#paint2_linear_669_4266)"/>
<path d="M1339.12 188.28C1337.91 188.28 1336.81 187.963 1335.84 187.328C1334.89 186.693 1334.14 185.909 1333.58 184.976V193.964H1331.67V173.412H1333.38V176.24C1333.96 175.325 1334.73 174.588 1335.7 174.028C1336.67 173.449 1337.71 173.16 1338.81 173.16C1339.82 173.16 1340.74 173.375 1341.58 173.804C1342.42 174.215 1343.15 174.775 1343.77 175.484C1344.38 176.193 1344.86 177.005 1345.2 177.92C1345.55 178.816 1345.73 179.749 1345.73 180.72C1345.73 182.083 1345.45 183.343 1344.89 184.5C1344.35 185.639 1343.58 186.553 1342.59 187.244C1341.6 187.935 1340.45 188.28 1339.12 188.28ZM1338.59 186.6C1339.39 186.6 1340.11 186.441 1340.74 186.124C1341.38 185.788 1341.92 185.34 1342.37 184.78C1342.83 184.22 1343.19 183.595 1343.43 182.904C1343.67 182.195 1343.8 181.467 1343.8 180.72C1343.8 179.936 1343.66 179.189 1343.38 178.48C1343.11 177.771 1342.73 177.145 1342.23 176.604C1341.72 176.063 1341.15 175.633 1340.49 175.316C1339.84 174.999 1339.13 174.84 1338.36 174.84C1337.88 174.84 1337.37 174.933 1336.85 175.12C1336.33 175.307 1335.83 175.577 1335.34 175.932C1334.87 176.268 1334.48 176.651 1334.16 177.08C1333.85 177.509 1333.65 177.967 1333.58 178.452V182.932C1333.87 183.623 1334.28 184.248 1334.78 184.808C1335.28 185.349 1335.86 185.788 1336.52 186.124C1337.19 186.441 1337.88 186.6 1338.59 186.6ZM1355.25 188.28C1354.21 188.28 1353.24 188.084 1352.34 187.692C1351.45 187.281 1350.67 186.731 1350.02 186.04C1349.36 185.331 1348.85 184.519 1348.48 183.604C1348.12 182.689 1347.95 181.709 1347.95 180.664C1347.95 179.301 1348.25 178.051 1348.87 176.912C1349.5 175.773 1350.37 174.868 1351.47 174.196C1352.57 173.505 1353.83 173.16 1355.23 173.16C1356.66 173.16 1357.91 173.505 1358.98 174.196C1360.06 174.887 1360.91 175.801 1361.53 176.94C1362.14 178.06 1362.45 179.292 1362.45 180.636C1362.45 180.785 1362.45 180.935 1362.45 181.084C1362.45 181.215 1362.44 181.317 1362.42 181.392H1349.93C1350.03 182.437 1350.32 183.371 1350.8 184.192C1351.31 184.995 1351.95 185.639 1352.73 186.124C1353.54 186.591 1354.4 186.824 1355.34 186.824C1356.29 186.824 1357.19 186.581 1358.03 186.096C1358.88 185.611 1359.48 184.976 1359.82 184.192L1361.47 184.64C1361.17 185.331 1360.71 185.956 1360.1 186.516C1359.48 187.076 1358.75 187.515 1357.91 187.832C1357.09 188.131 1356.21 188.28 1355.25 188.28ZM1349.88 180.02H1360.66C1360.58 178.956 1360.29 178.023 1359.79 177.22C1359.3 176.417 1358.66 175.792 1357.86 175.344C1357.07 174.877 1356.21 174.644 1355.25 174.644C1354.3 174.644 1353.43 174.877 1352.65 175.344C1351.87 175.792 1351.22 176.427 1350.72 177.248C1350.23 178.051 1349.95 178.975 1349.88 180.02ZM1372.67 175.092C1371.4 175.129 1370.28 175.484 1369.31 176.156C1368.36 176.828 1367.68 177.752 1367.29 178.928V188H1365.39V173.412H1367.18V176.912C1367.68 175.885 1368.35 175.055 1369.17 174.42C1370.01 173.785 1370.89 173.431 1371.83 173.356C1372.01 173.337 1372.17 173.328 1372.3 173.328C1372.45 173.328 1372.57 173.337 1372.67 173.356V175.092ZM1380.95 188.28C1379.91 188.28 1378.94 188.084 1378.04 187.692C1377.17 187.281 1376.4 186.731 1375.75 186.04C1375.11 185.331 1374.62 184.528 1374.26 183.632C1373.91 182.717 1373.73 181.756 1373.73 180.748C1373.73 179.703 1373.91 178.732 1374.26 177.836C1374.62 176.921 1375.12 176.119 1375.77 175.428C1376.43 174.719 1377.19 174.168 1378.07 173.776C1378.97 173.365 1379.94 173.16 1380.98 173.16C1382.03 173.16 1382.99 173.365 1383.87 173.776C1384.74 174.168 1385.51 174.719 1386.16 175.428C1386.82 176.119 1387.32 176.921 1387.67 177.836C1388.03 178.732 1388.21 179.703 1388.21 180.748C1388.21 181.756 1388.03 182.717 1387.67 183.632C1387.32 184.528 1386.82 185.331 1386.16 186.04C1385.53 186.731 1384.76 187.281 1383.87 187.692C1382.99 188.084 1382.02 188.28 1380.95 188.28ZM1375.66 180.776C1375.66 181.859 1375.9 182.848 1376.36 183.744C1376.85 184.621 1377.49 185.321 1378.29 185.844C1379.1 186.348 1379.98 186.6 1380.95 186.6C1381.93 186.6 1382.81 186.339 1383.61 185.816C1384.42 185.293 1385.06 184.584 1385.55 183.688C1386.03 182.773 1386.27 181.784 1386.27 180.72C1386.27 179.637 1386.03 178.648 1385.55 177.752C1385.06 176.856 1384.42 176.147 1383.61 175.624C1382.81 175.101 1381.93 174.84 1380.95 174.84C1379.98 174.84 1379.1 175.111 1378.29 175.652C1377.51 176.193 1376.88 176.912 1376.39 177.808C1375.91 178.685 1375.66 179.675 1375.66 180.776ZM1277.78 221H1275.87V212.852C1275.87 211.135 1275.62 209.884 1275.12 209.1C1274.61 208.297 1273.82 207.896 1272.74 207.896C1271.99 207.896 1271.25 208.083 1270.53 208.456C1269.8 208.811 1269.15 209.305 1268.59 209.94C1268.05 210.556 1267.66 211.265 1267.42 212.068V221H1265.51V206.412H1267.25V209.716C1267.64 209.007 1268.16 208.391 1268.79 207.868C1269.42 207.327 1270.14 206.907 1270.95 206.608C1271.75 206.309 1272.58 206.16 1273.44 206.16C1274.24 206.16 1274.92 206.309 1275.48 206.608C1276.04 206.907 1276.49 207.336 1276.83 207.896C1277.16 208.437 1277.4 209.1 1277.55 209.884C1277.7 210.649 1277.78 211.508 1277.78 212.46V221ZM1288.05 221.28C1287.01 221.28 1286.04 221.084 1285.14 220.692C1284.26 220.281 1283.5 219.731 1282.85 219.04C1282.21 218.331 1281.72 217.528 1281.36 216.632C1281.01 215.717 1280.83 214.756 1280.83 213.748C1280.83 212.703 1281.01 211.732 1281.36 210.836C1281.72 209.921 1282.22 209.119 1282.87 208.428C1283.53 207.719 1284.29 207.168 1285.17 206.776C1286.07 206.365 1287.04 206.16 1288.08 206.16C1289.13 206.16 1290.09 206.365 1290.97 206.776C1291.84 207.168 1292.61 207.719 1293.26 208.428C1293.92 209.119 1294.42 209.921 1294.77 210.836C1295.13 211.732 1295.31 212.703 1295.31 213.748C1295.31 214.756 1295.13 215.717 1294.77 216.632C1294.42 217.528 1293.92 218.331 1293.26 219.04C1292.63 219.731 1291.86 220.281 1290.97 220.692C1290.09 221.084 1289.12 221.28 1288.05 221.28ZM1282.76 213.776C1282.76 214.859 1283 215.848 1283.46 216.744C1283.95 217.621 1284.59 218.321 1285.39 218.844C1286.2 219.348 1287.08 219.6 1288.05 219.6C1289.02 219.6 1289.91 219.339 1290.71 218.816C1291.52 218.293 1292.16 217.584 1292.65 216.688C1293.13 215.773 1293.37 214.784 1293.37 213.72C1293.37 212.637 1293.13 211.648 1292.65 210.752C1292.16 209.856 1291.52 209.147 1290.71 208.624C1289.91 208.101 1289.02 207.84 1288.05 207.84C1287.08 207.84 1286.2 208.111 1285.39 208.652C1284.61 209.193 1283.98 209.912 1283.49 210.808C1283 211.685 1282.76 212.675 1282.76 213.776ZM1304.45 216.8C1304.45 215.885 1304.71 215.101 1305.24 214.448C1305.76 213.776 1306.48 213.263 1307.39 212.908C1308.32 212.535 1309.4 212.348 1310.61 212.348C1311.32 212.348 1312.06 212.404 1312.82 212.516C1313.59 212.628 1314.27 212.796 1314.87 213.02V211.788C1314.87 210.556 1314.5 209.576 1313.78 208.848C1313.05 208.12 1312.04 207.756 1310.75 207.756C1309.97 207.756 1309.19 207.905 1308.43 208.204C1307.68 208.484 1306.9 208.904 1306.08 209.464L1305.35 208.12C1306.3 207.467 1307.23 206.981 1308.15 206.664C1309.06 206.328 1310 206.16 1310.95 206.16C1312.74 206.16 1314.16 206.673 1315.2 207.7C1316.25 208.727 1316.77 210.145 1316.77 211.956V218.704C1316.77 218.965 1316.83 219.161 1316.94 219.292C1317.05 219.404 1317.23 219.469 1317.47 219.488V221C1317.27 221.019 1317.09 221.037 1316.94 221.056C1316.79 221.075 1316.68 221.075 1316.6 221.056C1316.14 221.037 1315.78 220.888 1315.54 220.608C1315.3 220.328 1315.17 220.029 1315.15 219.712L1315.12 218.648C1314.47 219.488 1313.62 220.141 1312.57 220.608C1311.53 221.056 1310.46 221.28 1309.38 221.28C1308.45 221.28 1307.6 221.084 1306.83 220.692C1306.08 220.281 1305.5 219.74 1305.07 219.068C1304.66 218.377 1304.45 217.621 1304.45 216.8ZM1314.22 217.92C1314.43 217.659 1314.59 217.407 1314.7 217.164C1314.81 216.921 1314.87 216.707 1314.87 216.52V214.392C1314.23 214.149 1313.57 213.963 1312.88 213.832C1312.21 213.701 1311.53 213.636 1310.84 213.636C1309.47 213.636 1308.37 213.907 1307.53 214.448C1306.69 214.989 1306.27 215.727 1306.27 216.66C1306.27 217.201 1306.41 217.715 1306.69 218.2C1306.97 218.667 1307.38 219.059 1307.92 219.376C1308.46 219.675 1309.1 219.824 1309.83 219.824C1310.74 219.824 1311.59 219.647 1312.38 219.292C1313.18 218.937 1313.79 218.48 1314.22 217.92ZM1328.03 221.28C1326.89 221.28 1325.83 220.991 1324.86 220.412C1323.89 219.815 1323.13 219.068 1322.59 218.172V221H1320.89V200.56H1322.79V209.464C1323.44 208.475 1324.23 207.681 1325.14 207.084C1326.06 206.468 1327.12 206.16 1328.33 206.16C1329.36 206.16 1330.27 206.375 1331.08 206.804C1331.9 207.233 1332.6 207.812 1333.18 208.54C1333.76 209.249 1334.19 210.061 1334.49 210.976C1334.79 211.872 1334.94 212.796 1334.94 213.748C1334.94 214.775 1334.76 215.736 1334.41 216.632C1334.07 217.528 1333.59 218.331 1332.95 219.04C1332.32 219.731 1331.58 220.281 1330.74 220.692C1329.92 221.084 1329.01 221.28 1328.03 221.28ZM1327.58 219.6C1328.36 219.6 1329.09 219.441 1329.76 219.124C1330.43 218.807 1331.01 218.368 1331.5 217.808C1331.98 217.248 1332.36 216.623 1332.62 215.932C1332.88 215.223 1333.01 214.495 1333.01 213.748C1333.01 212.721 1332.79 211.76 1332.34 210.864C1331.91 209.949 1331.3 209.221 1330.52 208.68C1329.75 208.12 1328.85 207.84 1327.8 207.84C1327.05 207.84 1326.35 208.008 1325.7 208.344C1325.07 208.68 1324.5 209.128 1323.99 209.688C1323.51 210.229 1323.11 210.827 1322.79 211.48V216.016C1322.86 216.52 1323.06 216.996 1323.38 217.444C1323.69 217.873 1324.09 218.247 1324.55 218.564C1325.04 218.881 1325.54 219.133 1326.07 219.32C1326.59 219.507 1327.09 219.6 1327.58 219.6ZM1345.45 208.092C1344.18 208.129 1343.06 208.484 1342.09 209.156C1341.13 209.828 1340.46 210.752 1340.07 211.928V221H1338.17V206.412H1339.96V209.912C1340.46 208.885 1341.13 208.055 1341.95 207.42C1342.79 206.785 1343.67 206.431 1344.61 206.356C1344.79 206.337 1344.95 206.328 1345.08 206.328C1345.23 206.328 1345.35 206.337 1345.45 206.356V208.092ZM1347.84 214.98V206.412H1349.75V214.644C1349.75 216.305 1350.03 217.547 1350.59 218.368C1351.17 219.189 1352.01 219.6 1353.13 219.6C1353.88 219.6 1354.6 219.441 1355.29 219.124C1356 218.788 1356.63 218.321 1357.17 217.724C1357.71 217.108 1358.12 216.399 1358.4 215.596V206.412H1360.3V218.704C1360.3 218.965 1360.36 219.161 1360.47 219.292C1360.58 219.404 1360.75 219.469 1360.97 219.488V221C1360.75 221.019 1360.57 221.028 1360.44 221.028C1360.31 221.047 1360.19 221.056 1360.08 221.056C1359.71 221.019 1359.38 220.869 1359.1 220.608C1358.84 220.347 1358.7 220.029 1358.68 219.656L1358.62 217.696C1357.99 218.816 1357.12 219.693 1356.02 220.328C1354.94 220.963 1353.76 221.28 1352.49 221.28C1350.96 221.28 1349.8 220.748 1349.02 219.684C1348.23 218.62 1347.84 217.052 1347.84 214.98ZM1386.31 221H1384.4V212.852C1384.4 211.153 1384.13 209.903 1383.59 209.1C1383.05 208.297 1382.25 207.896 1381.18 207.896C1380.08 207.896 1379.09 208.288 1378.22 209.072C1377.36 209.856 1376.75 210.864 1376.4 212.096V221H1374.49V212.852C1374.49 211.135 1374.23 209.884 1373.71 209.1C1373.19 208.297 1372.38 207.896 1371.3 207.896C1370.22 207.896 1369.24 208.279 1368.36 209.044C1367.48 209.809 1366.87 210.817 1366.51 212.068V221H1364.61V206.412H1366.34V209.716C1366.96 208.577 1367.74 207.7 1368.7 207.084C1369.67 206.468 1370.74 206.16 1371.92 206.16C1373.13 206.16 1374.11 206.505 1374.86 207.196C1375.6 207.887 1376.06 208.792 1376.23 209.912C1376.9 208.68 1377.7 207.747 1378.64 207.112C1379.59 206.477 1380.66 206.16 1381.86 206.16C1382.68 206.16 1383.37 206.309 1383.93 206.608C1384.51 206.907 1384.96 207.336 1385.3 207.896C1385.65 208.437 1385.91 209.1 1386.06 209.884C1386.22 210.649 1386.31 211.508 1386.31 212.46V221ZM1389.16 216.8C1389.16 215.885 1389.42 215.101 1389.95 214.448C1390.47 213.776 1391.19 213.263 1392.1 212.908C1393.04 212.535 1394.11 212.348 1395.32 212.348C1396.03 212.348 1396.77 212.404 1397.53 212.516C1398.3 212.628 1398.98 212.796 1399.58 213.02V211.788C1399.58 210.556 1399.21 209.576 1398.49 208.848C1397.76 208.12 1396.75 207.756 1395.46 207.756C1394.68 207.756 1393.9 207.905 1393.14 208.204C1392.39 208.484 1391.61 208.904 1390.79 209.464L1390.06 208.12C1391.01 207.467 1391.94 206.981 1392.86 206.664C1393.77 206.328 1394.71 206.16 1395.66 206.16C1397.45 206.16 1398.87 206.673 1399.91 207.7C1400.96 208.727 1401.48 210.145 1401.48 211.956V218.704C1401.48 218.965 1401.54 219.161 1401.65 219.292C1401.76 219.404 1401.94 219.469 1402.18 219.488V221C1401.98 221.019 1401.8 221.037 1401.65 221.056C1401.5 221.075 1401.39 221.075 1401.31 221.056C1400.85 221.037 1400.49 220.888 1400.25 220.608C1400.01 220.328 1399.88 220.029 1399.86 219.712L1399.83 218.648C1399.18 219.488 1398.33 220.141 1397.28 220.608C1396.24 221.056 1395.17 221.28 1394.09 221.28C1393.16 221.28 1392.31 221.084 1391.54 220.692C1390.8 220.281 1390.21 219.74 1389.78 219.068C1389.37 218.377 1389.16 217.621 1389.16 216.8ZM1398.93 217.92C1399.14 217.659 1399.3 217.407 1399.41 217.164C1399.52 216.921 1399.58 216.707 1399.58 216.52V214.392C1398.94 214.149 1398.28 213.963 1397.59 213.832C1396.92 213.701 1396.24 213.636 1395.55 213.636C1394.18 213.636 1393.08 213.907 1392.24 214.448C1391.4 214.989 1390.98 215.727 1390.98 216.66C1390.98 217.201 1391.12 217.715 1391.4 218.2C1391.68 218.667 1392.09 219.059 1392.63 219.376C1393.18 219.675 1393.81 219.824 1394.54 219.824C1395.45 219.824 1396.3 219.647 1397.09 219.292C1397.89 218.937 1398.5 218.48 1398.93 217.92ZM1404.62 213.748C1404.62 212.367 1404.9 211.107 1405.46 209.968C1406.03 208.811 1406.83 207.887 1407.84 207.196C1408.84 206.505 1409.99 206.16 1411.28 206.16C1412.49 206.16 1413.58 206.487 1414.53 207.14C1415.5 207.775 1416.25 208.549 1416.8 209.464V200.56H1418.7V218.704C1418.7 218.965 1418.76 219.161 1418.87 219.292C1418.98 219.404 1419.15 219.469 1419.37 219.488V221C1419 221.056 1418.71 221.075 1418.5 221.056C1418.11 221.037 1417.77 220.879 1417.47 220.58C1417.17 220.281 1417.02 219.955 1417.02 219.6V218.172C1416.44 219.124 1415.66 219.88 1414.67 220.44C1413.68 221 1412.65 221.28 1411.59 221.28C1410.58 221.28 1409.65 221.075 1408.79 220.664C1407.95 220.253 1407.21 219.693 1406.58 218.984C1405.96 218.275 1405.47 217.472 1405.12 216.576C1404.78 215.661 1404.62 214.719 1404.62 213.748ZM1416.8 215.988V211.48C1416.55 210.808 1416.16 210.201 1415.62 209.66C1415.08 209.1 1414.46 208.661 1413.77 208.344C1413.1 208.008 1412.43 207.84 1411.76 207.84C1410.97 207.84 1410.26 208.008 1409.63 208.344C1408.99 208.661 1408.44 209.1 1407.98 209.66C1407.53 210.22 1407.18 210.855 1406.94 211.564C1406.7 212.273 1406.58 213.001 1406.58 213.748C1406.58 214.532 1406.71 215.279 1406.97 215.988C1407.25 216.697 1407.64 217.332 1408.14 217.892C1408.65 218.433 1409.23 218.853 1409.88 219.152C1410.53 219.451 1411.24 219.6 1412.01 219.6C1412.49 219.6 1413 219.507 1413.52 219.32C1414.04 219.133 1414.54 218.881 1415 218.564C1415.49 218.228 1415.89 217.836 1416.21 217.388C1416.53 216.94 1416.72 216.473 1416.8 215.988ZM1429.23 221.28C1428.18 221.28 1427.21 221.084 1426.32 220.692C1425.44 220.281 1424.68 219.731 1424.02 219.04C1423.39 218.331 1422.89 217.528 1422.54 216.632C1422.18 215.717 1422.01 214.756 1422.01 213.748C1422.01 212.703 1422.18 211.732 1422.54 210.836C1422.89 209.921 1423.4 209.119 1424.05 208.428C1424.7 207.719 1425.47 207.168 1426.35 206.776C1427.24 206.365 1428.21 206.16 1429.26 206.16C1430.3 206.16 1431.26 206.365 1432.14 206.776C1433.02 207.168 1433.78 207.719 1434.44 208.428C1435.09 209.119 1435.6 209.921 1435.95 210.836C1436.3 211.732 1436.48 212.703 1436.48 213.748C1436.48 214.756 1436.3 215.717 1435.95 216.632C1435.6 217.528 1435.09 218.331 1434.44 219.04C1433.8 219.731 1433.04 220.281 1432.14 220.692C1431.26 221.084 1430.29 221.28 1429.23 221.28ZM1423.94 213.776C1423.94 214.859 1424.17 215.848 1424.64 216.744C1425.12 217.621 1425.77 218.321 1426.57 218.844C1427.37 219.348 1428.26 219.6 1429.23 219.6C1430.2 219.6 1431.09 219.339 1431.89 218.816C1432.69 218.293 1433.34 217.584 1433.82 216.688C1434.31 215.773 1434.55 214.784 1434.55 213.72C1434.55 212.637 1434.31 211.648 1433.82 210.752C1433.34 209.856 1432.69 209.147 1431.89 208.624C1431.09 208.101 1430.2 207.84 1429.23 207.84C1428.26 207.84 1427.37 208.111 1426.57 208.652C1425.79 209.193 1425.15 209.912 1424.67 210.808C1424.18 211.685 1423.94 212.675 1423.94 213.776ZM1446.95 208.092C1445.68 208.129 1444.56 208.484 1443.59 209.156C1442.63 209.828 1441.96 210.752 1441.57 211.928V221H1439.67V206.412H1441.46V209.912C1441.96 208.885 1442.63 208.055 1443.45 207.42C1444.29 206.785 1445.17 206.431 1446.11 206.356C1446.29 206.337 1446.45 206.328 1446.58 206.328C1446.73 206.328 1446.85 206.337 1446.95 206.356V208.092ZM1448.25 216.8C1448.25 215.885 1448.51 215.101 1449.04 214.448C1449.56 213.776 1450.28 213.263 1451.19 212.908C1452.13 212.535 1453.2 212.348 1454.41 212.348C1455.12 212.348 1455.86 212.404 1456.62 212.516C1457.39 212.628 1458.07 212.796 1458.67 213.02V211.788C1458.67 210.556 1458.3 209.576 1457.58 208.848C1456.85 208.12 1455.84 207.756 1454.55 207.756C1453.77 207.756 1452.99 207.905 1452.23 208.204C1451.48 208.484 1450.7 208.904 1449.88 209.464L1449.15 208.12C1450.1 207.467 1451.03 206.981 1451.95 206.664C1452.86 206.328 1453.8 206.16 1454.75 206.16C1456.54 206.16 1457.96 206.673 1459 207.7C1460.05 208.727 1460.57 210.145 1460.57 211.956V218.704C1460.57 218.965 1460.63 219.161 1460.74 219.292C1460.85 219.404 1461.03 219.469 1461.27 219.488V221C1461.07 221.019 1460.89 221.037 1460.74 221.056C1460.59 221.075 1460.48 221.075 1460.4 221.056C1459.94 221.037 1459.58 220.888 1459.34 220.608C1459.1 220.328 1458.97 220.029 1458.95 219.712L1458.92 218.648C1458.27 219.488 1457.42 220.141 1456.37 220.608C1455.33 221.056 1454.26 221.28 1453.18 221.28C1452.25 221.28 1451.4 221.084 1450.63 220.692C1449.89 220.281 1449.3 219.74 1448.87 219.068C1448.46 218.377 1448.25 217.621 1448.25 216.8ZM1458.02 217.92C1458.23 217.659 1458.39 217.407 1458.5 217.164C1458.61 216.921 1458.67 216.707 1458.67 216.52V214.392C1458.03 214.149 1457.37 213.963 1456.68 213.832C1456.01 213.701 1455.33 213.636 1454.64 213.636C1453.27 213.636 1452.17 213.907 1451.33 214.448C1450.49 214.989 1450.07 215.727 1450.07 216.66C1450.07 217.201 1450.21 217.715 1450.49 218.2C1450.77 218.667 1451.18 219.059 1451.72 219.376C1452.27 219.675 1452.9 219.824 1453.63 219.824C1454.54 219.824 1455.39 219.647 1456.18 219.292C1456.98 218.937 1457.59 218.48 1458.02 217.92Z" fill="white"/>
<path d="M1261.2 138V109.6H1265.68V138H1261.2ZM1290.3 138H1285.9V126.28C1285.9 124.333 1285.58 122.907 1284.94 122C1284.33 121.093 1283.41 120.64 1282.18 120.64C1281.33 120.64 1280.47 120.853 1279.62 121.28C1278.79 121.707 1278.05 122.293 1277.38 123.04C1276.71 123.76 1276.23 124.6 1275.94 125.56V138H1271.54V117.08H1275.54V121.28C1276.07 120.347 1276.77 119.547 1277.62 118.88C1278.5 118.187 1279.49 117.653 1280.58 117.28C1281.67 116.907 1282.83 116.72 1284.06 116.72C1285.31 116.72 1286.34 116.947 1287.14 117.4C1287.97 117.853 1288.61 118.48 1289.06 119.28C1289.54 120.053 1289.86 120.96 1290.02 122C1290.21 123.013 1290.3 124.093 1290.3 125.24V138ZM1296.45 138V121H1293.65V117.6H1296.45V116.76C1296.45 115.053 1296.72 113.573 1297.25 112.32C1297.81 111.067 1298.58 110.107 1299.57 109.44C1300.58 108.747 1301.77 108.4 1303.13 108.4C1303.98 108.4 1304.82 108.52 1305.65 108.76C1306.48 108.973 1307.26 109.28 1308.01 109.68L1307.05 112.96C1306.65 112.693 1306.17 112.493 1305.61 112.36C1305.08 112.2 1304.56 112.12 1304.05 112.12C1303.04 112.12 1302.25 112.507 1301.69 113.28C1301.13 114.053 1300.85 115.173 1300.85 116.64V117.6H1306.21V121H1300.85V138H1296.45ZM1318.52 138.4C1316.86 138.4 1315.38 138.12 1314.08 137.56C1312.77 136.973 1311.64 136.173 1310.68 135.16C1309.74 134.147 1309.02 133 1308.52 131.72C1308.01 130.413 1307.76 129.027 1307.76 127.56C1307.76 126.093 1308.01 124.707 1308.52 123.4C1309.02 122.093 1309.74 120.947 1310.68 119.96C1311.64 118.947 1312.77 118.16 1314.08 117.6C1315.41 117.013 1316.89 116.72 1318.52 116.72C1320.14 116.72 1321.61 117.013 1322.92 117.6C1324.25 118.16 1325.38 118.947 1326.32 119.96C1327.28 120.947 1328.01 122.093 1328.52 123.4C1329.02 124.707 1329.28 126.093 1329.28 127.56C1329.28 129.027 1329.02 130.413 1328.52 131.72C1328.01 133 1327.28 134.147 1326.32 135.16C1325.38 136.173 1324.25 136.973 1322.92 137.56C1321.61 138.12 1320.14 138.4 1318.52 138.4ZM1312.28 127.6C1312.28 128.933 1312.56 130.133 1313.12 131.2C1313.68 132.267 1314.42 133.107 1315.36 133.72C1316.29 134.333 1317.34 134.64 1318.52 134.64C1319.66 134.64 1320.7 134.333 1321.64 133.72C1322.6 133.08 1323.36 132.227 1323.92 131.16C1324.48 130.067 1324.76 128.867 1324.76 127.56C1324.76 126.227 1324.48 125.027 1323.92 123.96C1323.36 122.893 1322.6 122.053 1321.64 121.44C1320.7 120.8 1319.66 120.48 1318.52 120.48C1317.34 120.48 1316.29 120.8 1315.36 121.44C1314.42 122.08 1313.68 122.933 1313.12 124C1312.56 125.04 1312.28 126.24 1312.28 127.6ZM1344.94 120.88C1343.23 120.907 1341.71 121.293 1340.38 122.04C1339.07 122.787 1338.14 123.84 1337.58 125.2V138H1333.18V117.08H1337.26V121.76C1337.98 120.32 1338.93 119.173 1340.1 118.32C1341.27 117.44 1342.51 116.96 1343.82 116.88C1344.09 116.88 1344.3 116.88 1344.46 116.88C1344.65 116.88 1344.81 116.893 1344.94 116.92V120.88ZM1380.14 138H1375.74V126.28C1375.74 124.333 1375.42 122.907 1374.78 122C1374.14 121.093 1373.21 120.64 1371.98 120.64C1370.75 120.64 1369.61 121.107 1368.54 122.04C1367.5 122.947 1366.77 124.133 1366.34 125.6V138H1361.94V126.28C1361.94 124.333 1361.62 122.907 1360.98 122C1360.34 121.093 1359.42 120.64 1358.22 120.64C1356.99 120.64 1355.85 121.093 1354.78 122C1353.74 122.907 1352.99 124.093 1352.54 125.56V138H1348.14V117.08H1352.14V121.28C1352.97 119.813 1354.05 118.693 1355.38 117.92C1356.74 117.12 1358.29 116.72 1360.02 116.72C1361.75 116.72 1363.11 117.173 1364.1 118.08C1365.11 118.987 1365.74 120.12 1365.98 121.48C1366.89 119.933 1367.99 118.76 1369.3 117.96C1370.63 117.133 1372.15 116.72 1373.86 116.72C1375.09 116.72 1376.11 116.947 1376.94 117.4C1377.77 117.853 1378.41 118.48 1378.86 119.28C1379.31 120.053 1379.63 120.96 1379.82 122C1380.03 123.013 1380.14 124.093 1380.14 125.24V138ZM1383.69 131.88C1383.69 130.547 1384.06 129.387 1384.81 128.4C1385.58 127.387 1386.64 126.613 1387.97 126.08C1389.3 125.52 1390.85 125.24 1392.61 125.24C1393.54 125.24 1394.49 125.307 1395.45 125.44C1396.44 125.573 1397.3 125.787 1398.05 126.08V124.76C1398.05 123.293 1397.61 122.147 1396.73 121.32C1395.85 120.493 1394.58 120.08 1392.93 120.08C1391.76 120.08 1390.65 120.293 1389.61 120.72C1388.57 121.12 1387.46 121.693 1386.29 122.44L1384.81 119.48C1386.2 118.547 1387.58 117.853 1388.97 117.4C1390.38 116.947 1391.86 116.72 1393.41 116.72C1396.21 116.72 1398.41 117.467 1400.01 118.96C1401.64 120.427 1402.45 122.52 1402.45 125.24V133.04C1402.45 133.547 1402.53 133.907 1402.69 134.12C1402.88 134.333 1403.18 134.453 1403.61 134.48V138C1403.21 138.08 1402.85 138.133 1402.53 138.16C1402.21 138.187 1401.94 138.2 1401.73 138.2C1400.8 138.2 1400.09 137.973 1399.61 137.52C1399.13 137.067 1398.85 136.533 1398.77 135.92L1398.65 134.72C1397.74 135.893 1396.58 136.8 1395.17 137.44C1393.76 138.08 1392.33 138.4 1390.89 138.4C1389.5 138.4 1388.26 138.12 1387.17 137.56C1386.08 136.973 1385.22 136.187 1384.61 135.2C1384 134.213 1383.69 133.107 1383.69 131.88ZM1397.01 133.16C1397.33 132.813 1397.58 132.467 1397.77 132.12C1397.96 131.773 1398.05 131.467 1398.05 131.2V128.8C1397.3 128.507 1396.52 128.293 1395.69 128.16C1394.86 128 1394.05 127.92 1393.25 127.92C1391.65 127.92 1390.34 128.24 1389.33 128.88C1388.34 129.52 1387.85 130.4 1387.85 131.52C1387.85 132.133 1388.01 132.72 1388.33 133.28C1388.68 133.84 1389.16 134.293 1389.77 134.64C1390.41 134.987 1391.2 135.16 1392.13 135.16C1393.09 135.16 1394.01 134.973 1394.89 134.6C1395.77 134.227 1396.48 133.747 1397.01 133.16ZM1419.27 136.92C1418.9 137.107 1418.43 137.307 1417.87 137.52C1417.31 137.733 1416.67 137.92 1415.95 138.08C1415.26 138.24 1414.54 138.32 1413.79 138.32C1412.89 138.32 1412.05 138.16 1411.27 137.84C1410.5 137.52 1409.87 137.013 1409.39 136.32C1408.94 135.6 1408.71 134.68 1408.71 133.56V120.48H1405.95V117.08H1408.71V110.2H1413.11V117.08H1417.67V120.48H1413.11V132.16C1413.17 132.88 1413.39 133.413 1413.79 133.76C1414.22 134.107 1414.74 134.28 1415.35 134.28C1415.97 134.28 1416.55 134.173 1417.11 133.96C1417.67 133.747 1418.09 133.573 1418.35 133.44L1419.27 136.92ZM1422.32 138V117.08H1426.72V138H1422.32ZM1422.32 113.64V108.8H1426.72V113.64H1422.32ZM1437.85 138L1429.89 117.08H1434.45L1440.41 133.92L1446.37 117.08H1450.61L1442.65 138H1437.85ZM1451.74 131.88C1451.74 130.547 1452.11 129.387 1452.86 128.4C1453.63 127.387 1454.68 126.613 1456.02 126.08C1457.35 125.52 1458.9 125.24 1460.66 125.24C1461.59 125.24 1462.54 125.307 1463.5 125.44C1464.48 125.573 1465.35 125.787 1466.1 126.08V124.76C1466.1 123.293 1465.66 122.147 1464.78 121.32C1463.9 120.493 1462.63 120.08 1460.98 120.08C1459.8 120.08 1458.7 120.293 1457.66 120.72C1456.62 121.12 1455.51 121.693 1454.34 122.44L1452.86 119.48C1454.24 118.547 1455.63 117.853 1457.02 117.4C1458.43 116.947 1459.91 116.72 1461.46 116.72C1464.26 116.72 1466.46 117.467 1468.06 118.96C1469.68 120.427 1470.5 122.52 1470.5 125.24V133.04C1470.5 133.547 1470.58 133.907 1470.74 134.12C1470.92 134.333 1471.23 134.453 1471.66 134.48V138C1471.26 138.08 1470.9 138.133 1470.58 138.16C1470.26 138.187 1469.99 138.2 1469.78 138.2C1468.84 138.2 1468.14 137.973 1467.66 137.52C1467.18 137.067 1466.9 136.533 1466.82 135.92L1466.7 134.72C1465.79 135.893 1464.63 136.8 1463.22 137.44C1461.8 138.08 1460.38 138.4 1458.94 138.4C1457.55 138.4 1456.31 138.12 1455.22 137.56C1454.12 136.973 1453.27 136.187 1452.66 135.2C1452.04 134.213 1451.74 133.107 1451.74 131.88ZM1465.06 133.16C1465.38 132.813 1465.63 132.467 1465.82 132.12C1466 131.773 1466.1 131.467 1466.1 131.2V128.8C1465.35 128.507 1464.56 128.293 1463.74 128.16C1462.91 128 1462.1 127.92 1461.3 127.92C1459.7 127.92 1458.39 128.24 1457.38 128.88C1456.39 129.52 1455.9 130.4 1455.9 131.52C1455.9 132.133 1456.06 132.72 1456.38 133.28C1456.72 133.84 1457.2 134.293 1457.82 134.64C1458.46 134.987 1459.24 135.16 1460.18 135.16C1461.14 135.16 1462.06 134.973 1462.94 134.6C1463.82 134.227 1464.52 133.747 1465.06 133.16Z" fill="white"/>
<ellipse cx="960" cy="153.5" rx="154" ry="153.5" fill="url(#paint3_linear_669_4266)"/>
<path d="M939.689 187.28C938.475 187.28 937.383 186.963 936.413 186.328C935.461 185.693 934.705 184.909 934.145 183.976V192.964H932.241V172.412H933.949V175.24C934.527 174.325 935.302 173.588 936.273 173.028C937.243 172.449 938.279 172.16 939.381 172.16C940.389 172.16 941.313 172.375 942.153 172.804C942.993 173.215 943.721 173.775 944.337 174.484C944.953 175.193 945.429 176.005 945.765 176.92C946.119 177.816 946.297 178.749 946.297 179.72C946.297 181.083 946.017 182.343 945.457 183.5C944.915 184.639 944.15 185.553 943.161 186.244C942.171 186.935 941.014 187.28 939.689 187.28ZM939.157 185.6C939.959 185.6 940.678 185.441 941.313 185.124C941.947 184.788 942.489 184.34 942.937 183.78C943.403 183.22 943.758 182.595 944.001 181.904C944.243 181.195 944.365 180.467 944.365 179.72C944.365 178.936 944.225 178.189 943.945 177.48C943.683 176.771 943.301 176.145 942.797 175.604C942.293 175.063 941.714 174.633 941.061 174.316C940.407 173.999 939.698 173.84 938.933 173.84C938.447 173.84 937.943 173.933 937.421 174.12C936.898 174.307 936.394 174.577 935.909 174.932C935.442 175.268 935.05 175.651 934.733 176.08C934.415 176.509 934.219 176.967 934.145 177.452V181.932C934.443 182.623 934.845 183.248 935.349 183.808C935.853 184.349 936.431 184.788 937.085 185.124C937.757 185.441 938.447 185.6 939.157 185.6ZM955.822 187.28C954.777 187.28 953.806 187.084 952.91 186.692C952.014 186.281 951.239 185.731 950.586 185.04C949.933 184.331 949.419 183.519 949.046 182.604C948.691 181.689 948.514 180.709 948.514 179.664C948.514 178.301 948.822 177.051 949.438 175.912C950.073 174.773 950.941 173.868 952.042 173.196C953.143 172.505 954.394 172.16 955.794 172.16C957.231 172.16 958.482 172.505 959.546 173.196C960.629 173.887 961.478 174.801 962.094 175.94C962.71 177.06 963.018 178.292 963.018 179.636C963.018 179.785 963.018 179.935 963.018 180.084C963.018 180.215 963.009 180.317 962.99 180.392H950.502C950.595 181.437 950.885 182.371 951.37 183.192C951.874 183.995 952.518 184.639 953.302 185.124C954.105 185.591 954.973 185.824 955.906 185.824C956.858 185.824 957.754 185.581 958.594 185.096C959.453 184.611 960.05 183.976 960.386 183.192L962.038 183.64C961.739 184.331 961.282 184.956 960.666 185.516C960.05 186.076 959.322 186.515 958.482 186.832C957.661 187.131 956.774 187.28 955.822 187.28ZM950.446 179.02H961.226C961.151 177.956 960.862 177.023 960.358 176.22C959.873 175.417 959.229 174.792 958.426 174.344C957.642 173.877 956.774 173.644 955.822 173.644C954.87 173.644 954.002 173.877 953.218 174.344C952.434 174.792 951.79 175.427 951.286 176.248C950.801 177.051 950.521 177.975 950.446 179.02ZM973.235 174.092C971.966 174.129 970.846 174.484 969.875 175.156C968.923 175.828 968.251 176.752 967.859 177.928V187H965.955V172.412H967.747V175.912C968.251 174.885 968.914 174.055 969.735 173.42C970.575 172.785 971.462 172.431 972.395 172.356C972.582 172.337 972.741 172.328 972.871 172.328C973.021 172.328 973.142 172.337 973.235 172.356V174.092ZM981.523 187.28C980.478 187.28 979.507 187.084 978.611 186.692C977.734 186.281 976.968 185.731 976.315 185.04C975.68 184.331 975.186 183.528 974.831 182.632C974.476 181.717 974.299 180.756 974.299 179.748C974.299 178.703 974.476 177.732 974.831 176.836C975.186 175.921 975.69 175.119 976.343 174.428C976.996 173.719 977.762 173.168 978.639 172.776C979.535 172.365 980.506 172.16 981.551 172.16C982.596 172.16 983.558 172.365 984.435 172.776C985.312 173.168 986.078 173.719 986.731 174.428C987.384 175.119 987.888 175.921 988.243 176.836C988.598 177.732 988.775 178.703 988.775 179.748C988.775 180.756 988.598 181.717 988.243 182.632C987.888 183.528 987.384 184.331 986.731 185.04C986.096 185.731 985.331 186.281 984.435 186.692C983.558 187.084 982.587 187.28 981.523 187.28ZM976.231 179.776C976.231 180.859 976.464 181.848 976.931 182.744C977.416 183.621 978.06 184.321 978.863 184.844C979.666 185.348 980.552 185.6 981.523 185.6C982.494 185.6 983.38 185.339 984.183 184.816C984.986 184.293 985.63 183.584 986.115 182.688C986.6 181.773 986.843 180.784 986.843 179.72C986.843 178.637 986.6 177.648 986.115 176.752C985.63 175.856 984.986 175.147 984.183 174.624C983.38 174.101 982.494 173.84 981.523 173.84C980.552 173.84 979.666 174.111 978.863 174.652C978.079 175.193 977.444 175.912 976.959 176.808C976.474 177.685 976.231 178.675 976.231 179.776ZM899.36 215.8C899.36 214.885 899.621 214.101 900.144 213.448C900.666 212.776 901.385 212.263 902.3 211.908C903.233 211.535 904.306 211.348 905.52 211.348C906.229 211.348 906.966 211.404 907.732 211.516C908.497 211.628 909.178 211.796 909.776 212.02V210.788C909.776 209.556 909.412 208.576 908.684 207.848C907.956 207.12 906.948 206.756 905.66 206.756C904.876 206.756 904.101 206.905 903.336 207.204C902.589 207.484 901.805 207.904 900.984 208.464L900.256 207.12C901.208 206.467 902.141 205.981 903.056 205.664C903.97 205.328 904.904 205.16 905.856 205.16C907.648 205.16 909.066 205.673 910.112 206.7C911.157 207.727 911.68 209.145 911.68 210.956V217.704C911.68 217.965 911.736 218.161 911.848 218.292C911.96 218.404 912.137 218.469 912.38 218.488V220C912.174 220.019 911.997 220.037 911.848 220.056C911.698 220.075 911.586 220.075 911.512 220.056C911.045 220.037 910.69 219.888 910.448 219.608C910.205 219.328 910.074 219.029 910.056 218.712L910.028 217.648C909.374 218.488 908.525 219.141 907.48 219.608C906.434 220.056 905.37 220.28 904.288 220.28C903.354 220.28 902.505 220.084 901.74 219.692C900.993 219.281 900.405 218.74 899.976 218.068C899.565 217.377 899.36 216.621 899.36 215.8ZM909.132 216.92C909.337 216.659 909.496 216.407 909.608 216.164C909.72 215.921 909.776 215.707 909.776 215.52V213.392C909.141 213.149 908.478 212.963 907.788 212.832C907.116 212.701 906.434 212.636 905.744 212.636C904.381 212.636 903.28 212.907 902.44 213.448C901.6 213.989 901.18 214.727 901.18 215.66C901.18 216.201 901.32 216.715 901.6 217.2C901.88 217.667 902.29 218.059 902.832 218.376C903.373 218.675 904.008 218.824 904.736 218.824C905.65 218.824 906.5 218.647 907.284 218.292C908.086 217.937 908.702 217.48 909.132 216.92ZM922.121 220.28C921.057 220.28 920.077 220.084 919.181 219.692C918.304 219.281 917.529 218.721 916.857 218.012C916.204 217.303 915.691 216.491 915.317 215.576C914.963 214.661 914.785 213.691 914.785 212.664C914.785 211.283 915.093 210.023 915.709 208.884C916.325 207.745 917.184 206.84 918.285 206.168C919.387 205.496 920.656 205.16 922.093 205.16C923.456 205.16 924.66 205.477 925.705 206.112C926.751 206.728 927.525 207.568 928.029 208.632L926.181 209.22C925.771 208.473 925.192 207.895 924.445 207.484C923.717 207.055 922.905 206.84 922.009 206.84C921.039 206.84 920.152 207.092 919.349 207.596C918.547 208.1 917.903 208.791 917.417 209.668C916.951 210.545 916.717 211.544 916.717 212.664C916.717 213.765 916.96 214.764 917.445 215.66C917.931 216.556 918.575 217.275 919.377 217.816C920.18 218.339 921.067 218.6 922.037 218.6C922.672 218.6 923.279 218.488 923.857 218.264C924.455 218.04 924.968 217.741 925.397 217.368C925.845 216.976 926.144 216.556 926.293 216.108L928.169 216.668C927.908 217.359 927.469 217.984 926.853 218.544C926.256 219.085 925.547 219.515 924.725 219.832C923.923 220.131 923.055 220.28 922.121 220.28ZM937.352 220.28C936.288 220.28 935.308 220.084 934.412 219.692C933.534 219.281 932.76 218.721 932.088 218.012C931.434 217.303 930.921 216.491 930.548 215.576C930.193 214.661 930.016 213.691 930.016 212.664C930.016 211.283 930.324 210.023 930.94 208.884C931.556 207.745 932.414 206.84 933.516 206.168C934.617 205.496 935.886 205.16 937.324 205.16C938.686 205.16 939.89 205.477 940.936 206.112C941.981 206.728 942.756 207.568 943.26 208.632L941.412 209.22C941.001 208.473 940.422 207.895 939.676 207.484C938.948 207.055 938.136 206.84 937.24 206.84C936.269 206.84 935.382 207.092 934.58 207.596C933.777 208.1 933.133 208.791 932.648 209.668C932.181 210.545 931.948 211.544 931.948 212.664C931.948 213.765 932.19 214.764 932.676 215.66C933.161 216.556 933.805 217.275 934.608 217.816C935.41 218.339 936.297 218.6 937.268 218.6C937.902 218.6 938.509 218.488 939.088 218.264C939.685 218.04 940.198 217.741 940.628 217.368C941.076 216.976 941.374 216.556 941.524 216.108L943.4 216.668C943.138 217.359 942.7 217.984 942.084 218.544C941.486 219.085 940.777 219.515 939.956 219.832C939.153 220.131 938.285 220.28 937.352 220.28ZM952.554 220.28C951.509 220.28 950.538 220.084 949.642 219.692C948.746 219.281 947.972 218.731 947.318 218.04C946.665 217.331 946.152 216.519 945.778 215.604C945.424 214.689 945.246 213.709 945.246 212.664C945.246 211.301 945.554 210.051 946.17 208.912C946.805 207.773 947.673 206.868 948.774 206.196C949.876 205.505 951.126 205.16 952.526 205.16C953.964 205.16 955.214 205.505 956.278 206.196C957.361 206.887 958.21 207.801 958.826 208.94C959.442 210.06 959.75 211.292 959.75 212.636C959.75 212.785 959.75 212.935 959.75 213.084C959.75 213.215 959.741 213.317 959.722 213.392H947.234C947.328 214.437 947.617 215.371 948.102 216.192C948.606 216.995 949.25 217.639 950.034 218.124C950.837 218.591 951.705 218.824 952.638 218.824C953.59 218.824 954.486 218.581 955.326 218.096C956.185 217.611 956.782 216.976 957.118 216.192L958.77 216.64C958.472 217.331 958.014 217.956 957.398 218.516C956.782 219.076 956.054 219.515 955.214 219.832C954.393 220.131 953.506 220.28 952.554 220.28ZM947.178 212.02H957.958C957.884 210.956 957.594 210.023 957.09 209.22C956.605 208.417 955.961 207.792 955.158 207.344C954.374 206.877 953.506 206.644 952.554 206.644C951.602 206.644 950.734 206.877 949.95 207.344C949.166 207.792 948.522 208.427 948.018 209.248C947.533 210.051 947.253 210.975 947.178 212.02ZM967.476 220.28C966.281 220.28 965.171 220.084 964.144 219.692C963.117 219.3 962.231 218.703 961.484 217.9L962.268 216.556C963.089 217.321 963.911 217.881 964.732 218.236C965.572 218.572 966.459 218.74 967.392 218.74C968.531 218.74 969.455 218.516 970.164 218.068C970.873 217.601 971.228 216.939 971.228 216.08C971.228 215.501 971.051 215.063 970.696 214.764C970.36 214.447 969.865 214.195 969.212 214.008C968.577 213.803 967.812 213.588 966.916 213.364C965.908 213.084 965.059 212.795 964.368 212.496C963.696 212.179 963.183 211.787 962.828 211.32C962.492 210.835 962.324 210.209 962.324 209.444C962.324 208.492 962.557 207.708 963.024 207.092C963.509 206.457 964.163 205.981 964.984 205.664C965.824 205.328 966.757 205.16 967.784 205.16C968.904 205.16 969.893 205.337 970.752 205.692C971.611 206.047 972.311 206.541 972.852 207.176L971.928 208.464C971.405 207.867 970.78 207.428 970.052 207.148C969.343 206.849 968.549 206.7 967.672 206.7C967.075 206.7 966.505 206.784 965.964 206.952C965.423 207.101 964.975 207.363 964.62 207.736C964.284 208.091 964.116 208.585 964.116 209.22C964.116 209.743 964.247 210.153 964.508 210.452C964.769 210.732 965.161 210.975 965.684 211.18C966.207 211.367 966.851 211.572 967.616 211.796C968.717 212.095 969.679 212.403 970.5 212.72C971.321 213.019 971.956 213.411 972.404 213.896C972.852 214.381 973.076 215.063 973.076 215.94C973.076 217.303 972.563 218.367 971.536 219.132C970.509 219.897 969.156 220.28 967.476 220.28ZM976.223 220V205.412H978.127V220H976.223ZM976.223 202.36V199.56H978.127V202.36H976.223ZM989.461 220.28C988.322 220.28 987.267 219.991 986.297 219.412C985.326 218.815 984.57 218.068 984.029 217.172V220H982.321V199.56H984.225V208.464C984.878 207.475 985.662 206.681 986.577 206.084C987.491 205.468 988.555 205.16 989.769 205.16C990.795 205.16 991.71 205.375 992.513 205.804C993.334 206.233 994.034 206.812 994.613 207.54C995.191 208.249 995.63 209.061 995.929 209.976C996.227 210.872 996.377 211.796 996.377 212.748C996.377 213.775 996.199 214.736 995.845 215.632C995.509 216.528 995.023 217.331 994.389 218.04C993.754 218.731 993.017 219.281 992.177 219.692C991.355 220.084 990.45 220.28 989.461 220.28ZM989.013 218.6C989.797 218.6 990.525 218.441 991.197 218.124C991.869 217.807 992.447 217.368 992.933 216.808C993.418 216.248 993.791 215.623 994.053 214.932C994.314 214.223 994.445 213.495 994.445 212.748C994.445 211.721 994.221 210.76 993.773 209.864C993.343 208.949 992.737 208.221 991.953 207.68C991.187 207.12 990.282 206.84 989.237 206.84C988.49 206.84 987.79 207.008 987.137 207.344C986.502 207.68 985.933 208.128 985.429 208.688C984.943 209.229 984.542 209.827 984.225 210.48V215.016C984.299 215.52 984.495 215.996 984.813 216.444C985.13 216.873 985.522 217.247 985.989 217.564C986.474 217.881 986.978 218.133 987.501 218.32C988.023 218.507 988.527 218.6 989.013 218.6ZM999.686 199.56H1001.59V216.696C1001.59 217.424 1001.72 217.9 1001.98 218.124C1002.24 218.348 1002.56 218.46 1002.93 218.46C1003.27 218.46 1003.61 218.423 1003.94 218.348C1004.28 218.273 1004.57 218.199 1004.81 218.124L1005.15 219.664C1004.79 219.813 1004.35 219.935 1003.83 220.028C1003.33 220.121 1002.89 220.168 1002.51 220.168C1001.66 220.168 1000.96 219.916 1000.44 219.412C999.938 218.908 999.686 218.217 999.686 217.34V199.56ZM1013.53 220.28C1012.49 220.28 1011.51 220.084 1010.62 219.692C1009.72 219.281 1008.95 218.731 1008.29 218.04C1007.64 217.331 1007.13 216.519 1006.75 215.604C1006.4 214.689 1006.22 213.709 1006.22 212.664C1006.22 211.301 1006.53 210.051 1007.15 208.912C1007.78 207.773 1008.65 206.868 1009.75 206.196C1010.85 205.505 1012.1 205.16 1013.5 205.16C1014.94 205.16 1016.19 205.505 1017.25 206.196C1018.34 206.887 1019.19 207.801 1019.8 208.94C1020.42 210.06 1020.73 211.292 1020.73 212.636C1020.73 212.785 1020.73 212.935 1020.73 213.084C1020.73 213.215 1020.72 213.317 1020.7 213.392H1008.21C1008.3 214.437 1008.59 215.371 1009.08 216.192C1009.58 216.995 1010.23 217.639 1011.01 218.124C1011.81 218.591 1012.68 218.824 1013.61 218.824C1014.57 218.824 1015.46 218.581 1016.3 218.096C1017.16 217.611 1017.76 216.976 1018.09 216.192L1019.75 216.64C1019.45 217.331 1018.99 217.956 1018.37 218.516C1017.76 219.076 1017.03 219.515 1016.19 219.832C1015.37 220.131 1014.48 220.28 1013.53 220.28ZM1008.15 212.02H1018.93C1018.86 210.956 1018.57 210.023 1018.07 209.22C1017.58 208.417 1016.94 207.792 1016.13 207.344C1015.35 206.877 1014.48 206.644 1013.53 206.644C1012.58 206.644 1011.71 206.877 1010.93 207.344C1010.14 207.792 1009.5 208.427 1008.99 209.248C1008.51 210.051 1008.23 210.975 1008.15 212.02Z" fill="white"/>
<path d="M903.08 138V117.76L894.72 133.12H892.08L883.68 117.76V138H879.2V109.6H884L893.4 126.96L902.8 109.6H907.6V138H903.08ZM922.493 138.4C920.84 138.4 919.36 138.12 918.053 137.56C916.746 136.973 915.613 136.173 914.653 135.16C913.72 134.147 913 133 912.493 131.72C911.986 130.413 911.733 129.027 911.733 127.56C911.733 126.093 911.986 124.707 912.493 123.4C913 122.093 913.72 120.947 914.653 119.96C915.613 118.947 916.746 118.16 918.053 117.6C919.386 117.013 920.866 116.72 922.493 116.72C924.12 116.72 925.586 117.013 926.893 117.6C928.226 118.16 929.36 118.947 930.293 119.96C931.253 120.947 931.986 122.093 932.493 123.4C933 124.707 933.253 126.093 933.253 127.56C933.253 129.027 933 130.413 932.493 131.72C931.986 133 931.253 134.147 930.293 135.16C929.36 136.173 928.226 136.973 926.893 137.56C925.586 138.12 924.12 138.4 922.493 138.4ZM916.253 127.6C916.253 128.933 916.533 130.133 917.093 131.2C917.653 132.267 918.4 133.107 919.333 133.72C920.266 134.333 921.32 134.64 922.493 134.64C923.64 134.64 924.68 134.333 925.613 133.72C926.573 133.08 927.333 132.227 927.893 131.16C928.453 130.067 928.733 128.867 928.733 127.56C928.733 126.227 928.453 125.027 927.893 123.96C927.333 122.893 926.573 122.053 925.613 121.44C924.68 120.8 923.64 120.48 922.493 120.48C921.32 120.48 920.266 120.8 919.333 121.44C918.4 122.08 917.653 122.933 917.093 124C916.533 125.04 916.253 126.24 916.253 127.6ZM935.836 127.56C935.836 125.56 936.236 123.747 937.036 122.12C937.862 120.467 938.982 119.16 940.396 118.2C941.809 117.213 943.436 116.72 945.276 116.72C946.876 116.72 948.316 117.133 949.596 117.96C950.902 118.787 951.916 119.813 952.636 121.04V108.8H957.036V133.04C957.036 133.547 957.129 133.907 957.316 134.12C957.502 134.333 957.809 134.453 958.236 134.48V138C957.409 138.133 956.769 138.2 956.316 138.2C955.489 138.2 954.782 137.96 954.196 137.48C953.636 137 953.342 136.427 953.316 135.76L953.276 134.2C952.476 135.533 951.396 136.573 950.036 137.32C948.676 138.04 947.262 138.4 945.796 138.4C944.356 138.4 943.022 138.12 941.796 137.56C940.596 137 939.542 136.213 938.636 135.2C937.756 134.187 937.062 133.027 936.556 131.72C936.076 130.413 935.836 129.027 935.836 127.56ZM952.636 130.48V125C952.342 124.147 951.862 123.387 951.196 122.72C950.556 122.027 949.822 121.48 948.996 121.08C948.196 120.68 947.396 120.48 946.596 120.48C945.662 120.48 944.809 120.68 944.036 121.08C943.289 121.48 942.636 122.013 942.076 122.68C941.542 123.347 941.129 124.107 940.836 124.96C940.542 125.813 940.396 126.707 940.396 127.64C940.396 128.6 940.556 129.507 940.876 130.36C941.196 131.187 941.649 131.933 942.236 132.6C942.849 133.24 943.542 133.747 944.316 134.12C945.116 134.467 945.982 134.64 946.916 134.64C947.502 134.64 948.089 134.533 948.676 134.32C949.289 134.107 949.862 133.813 950.396 133.44C950.956 133.067 951.422 132.627 951.796 132.12C952.196 131.613 952.476 131.067 952.636 130.48ZM972.104 138.4C970.478 138.4 968.998 138.12 967.664 137.56C966.358 136.973 965.224 136.187 964.264 135.2C963.304 134.187 962.558 133.04 962.024 131.76C961.518 130.453 961.264 129.067 961.264 127.6C961.264 125.627 961.718 123.827 962.624 122.2C963.531 120.547 964.798 119.227 966.424 118.24C968.051 117.227 969.958 116.72 972.144 116.72C974.331 116.72 976.211 117.227 977.784 118.24C979.384 119.227 980.624 120.533 981.504 122.16C982.384 123.787 982.824 125.533 982.824 127.4C982.824 127.72 982.811 128.027 982.784 128.32C982.758 128.587 982.731 128.813 982.704 129H965.944C966.024 130.227 966.358 131.307 966.944 132.24C967.558 133.147 968.331 133.867 969.264 134.4C970.198 134.907 971.198 135.16 972.264 135.16C973.438 135.16 974.544 134.867 975.584 134.28C976.651 133.693 977.371 132.92 977.744 131.96L981.504 133.04C981.051 134.053 980.358 134.973 979.424 135.8C978.518 136.6 977.438 137.24 976.184 137.72C974.931 138.173 973.571 138.4 972.104 138.4ZM965.824 126.08H978.464C978.384 124.88 978.038 123.827 977.424 122.92C976.838 121.987 976.078 121.267 975.144 120.76C974.238 120.227 973.224 119.96 972.104 119.96C971.011 119.96 969.998 120.227 969.064 120.76C968.158 121.267 967.411 121.987 966.824 122.92C966.238 123.827 965.904 124.88 965.824 126.08ZM998.173 120.88C996.467 120.907 994.947 121.293 993.613 122.04C992.307 122.787 991.373 123.84 990.813 125.2V138H986.413V117.08H990.493V121.76C991.213 120.32 992.16 119.173 993.333 118.32C994.507 117.44 995.747 116.96 997.053 116.88C997.32 116.88 997.533 116.88 997.693 116.88C997.88 116.88 998.04 116.893 998.173 116.92V120.88ZM1020.13 138H1015.73V126.28C1015.73 124.333 1015.41 122.907 1014.77 122C1014.16 121.093 1013.24 120.64 1012.01 120.64C1011.16 120.64 1010.31 120.853 1009.45 121.28C1008.63 121.707 1007.88 122.293 1007.21 123.04C1006.55 123.76 1006.07 124.6 1005.77 125.56V138H1001.37V117.08H1005.37V121.28C1005.91 120.347 1006.6 119.547 1007.45 118.88C1008.33 118.187 1009.32 117.653 1010.41 117.28C1011.51 116.907 1012.67 116.72 1013.89 116.72C1015.15 116.72 1016.17 116.947 1016.97 117.4C1017.8 117.853 1018.44 118.48 1018.89 119.28C1019.37 120.053 1019.69 120.96 1019.85 122C1020.04 123.013 1020.13 124.093 1020.13 125.24V138ZM1023.72 131.88C1023.72 130.547 1024.09 129.387 1024.84 128.4C1025.61 127.387 1026.67 126.613 1028 126.08C1029.33 125.52 1030.88 125.24 1032.64 125.24C1033.57 125.24 1034.52 125.307 1035.48 125.44C1036.47 125.573 1037.33 125.787 1038.08 126.08V124.76C1038.08 123.293 1037.64 122.147 1036.76 121.32C1035.88 120.493 1034.61 120.08 1032.96 120.08C1031.79 120.08 1030.68 120.293 1029.64 120.72C1028.6 121.12 1027.49 121.693 1026.32 122.44L1024.84 119.48C1026.23 118.547 1027.61 117.853 1029 117.4C1030.41 116.947 1031.89 116.72 1033.44 116.72C1036.24 116.72 1038.44 117.467 1040.04 118.96C1041.67 120.427 1042.48 122.52 1042.48 125.24V133.04C1042.48 133.547 1042.56 133.907 1042.72 134.12C1042.91 134.333 1043.21 134.453 1043.64 134.48V138C1043.24 138.08 1042.88 138.133 1042.56 138.16C1042.24 138.187 1041.97 138.2 1041.76 138.2C1040.83 138.2 1040.12 137.973 1039.64 137.52C1039.16 137.067 1038.88 136.533 1038.8 135.92L1038.68 134.72C1037.77 135.893 1036.61 136.8 1035.2 137.44C1033.79 138.08 1032.36 138.4 1030.92 138.4C1029.53 138.4 1028.29 138.12 1027.2 137.56C1026.11 136.973 1025.25 136.187 1024.64 135.2C1024.03 134.213 1023.72 133.107 1023.72 131.88ZM1037.04 133.16C1037.36 132.813 1037.61 132.467 1037.8 132.12C1037.99 131.773 1038.08 131.467 1038.08 131.2V128.8C1037.33 128.507 1036.55 128.293 1035.72 128.16C1034.89 128 1034.08 127.92 1033.28 127.92C1031.68 127.92 1030.37 128.24 1029.36 128.88C1028.37 129.52 1027.88 130.4 1027.88 131.52C1027.88 132.133 1028.04 132.72 1028.36 133.28C1028.71 133.84 1029.19 134.293 1029.8 134.64C1030.44 134.987 1031.23 135.16 1032.16 135.16C1033.12 135.16 1034.04 134.973 1034.92 134.6C1035.8 134.227 1036.51 133.747 1037.04 133.16Z" fill="white"/>
<defs>
<linearGradient id="paint0_linear_669_4266" x1="0" y1="154" x2="307" y2="154" gradientUnits="userSpaceOnUse">
<stop stop-color="#8251FB"/>
<stop offset="1" stop-color="#9E7FFF"/>
</linearGradient>
<linearGradient id="paint1_linear_669_4266" x1="489.5" y1="291" x2="570.5" y2="1.02893e-06" gradientUnits="userSpaceOnUse">
<stop stop-color="#8251FB"/>
<stop offset="1" stop-color="#9E7FFF"/>
</linearGradient>
<linearGradient id="paint2_linear_669_4266" x1="1487.5" y1="80.5" x2="1311.5" y2="284" gradientUnits="userSpaceOnUse">
<stop stop-color="#7651FB"/>
<stop offset="1" stop-color="#9E7FFF"/>
</linearGradient>
<linearGradient id="paint3_linear_669_4266" x1="1099.5" y1="223" x2="826.5" y2="79.5" gradientUnits="userSpaceOnUse">
<stop stop-color="#8251FB"/>
<stop offset="1" stop-color="#9E7FFF"/>
</linearGradient>
</defs>
</svg>
